<svg width="367" height="379" viewBox="0 0 367 379" fill="none" xmlns="http://www.w3.org/2000/svg">
    <path
        d="M80.1893 339.922L90.774 334.532L104.866 362.152L103.997 362.59C98.609 365.329 92.0174 363.203 89.2835 357.837L80.1495 339.938L80.1893 339.922Z"
        fill="#FDC226" />
    <path
        d="M99.0394 364.151C94.9267 364.151 90.9574 361.905 88.9648 358.004L79.8307 340.105C79.743 339.93 79.8068 339.715 79.9901 339.62L80.022 339.604L90.6067 334.213C90.6944 334.165 90.79 334.158 90.8777 334.189C90.9654 334.221 91.0451 334.285 91.0849 334.365L105.177 361.985C105.216 362.073 105.224 362.168 105.201 362.256C105.169 362.343 105.105 362.423 105.025 362.463L104.156 362.901C102.523 363.753 100.769 364.151 99.0394 364.151ZM80.6437 340.097L89.6104 357.678C92.2566 362.861 98.6329 364.923 103.838 362.272L104.38 361.993L90.6147 335.009L80.6437 340.097Z"
        fill="#090667" />
    <path
        d="M80.8029 341.483C80.6754 341.483 80.5478 341.411 80.4841 341.284L64.4157 309.778C64.3281 309.602 64.3997 309.387 64.5751 309.292C64.7505 309.204 64.9657 309.268 65.0613 309.451L81.1297 340.957C81.2174 341.132 81.1456 341.347 80.9703 341.443C80.9145 341.467 80.8587 341.483 80.8029 341.483Z"
        fill="#090667" />
    <path
        d="M283.379 271.281L282.51 271.719L268.419 244.098L279.035 238.692L288.169 256.591C290.903 261.965 288.759 268.534 283.379 271.281Z"
        fill="#FDC226" />
    <path
        d="M282.511 272.085C282.471 272.085 282.439 272.077 282.399 272.069C282.311 272.037 282.232 271.974 282.192 271.894L268.1 244.273C268.06 244.186 268.052 244.09 268.076 244.003C268.108 243.915 268.172 243.836 268.251 243.796L278.868 238.39C279.044 238.302 279.259 238.374 279.354 238.549L288.488 256.448C291.31 261.981 289.086 268.781 283.539 271.615L282.67 272.053C282.622 272.069 282.566 272.085 282.511 272.085ZM268.905 244.258L282.67 271.241L283.212 270.962C288.409 268.311 290.489 261.941 287.843 256.766L278.876 239.186L268.905 244.258Z"
        fill="#090667" />
    <path
        d="M279.928 240.81C279.801 240.81 279.673 240.738 279.609 240.611L263.262 208.564C263.174 208.388 263.238 208.173 263.422 208.078C263.597 207.99 263.812 208.062 263.908 208.237L280.255 240.285C280.343 240.46 280.279 240.675 280.096 240.77C280.04 240.794 279.984 240.81 279.928 240.81Z"
        fill="#090667" />
    <path
        d="M238.928 254.481C242.906 260.126 246.468 266.05 249.585 272.205C252.454 277.818 254.965 283.606 257.093 289.538L257.189 289.729C257.212 289.785 257.26 289.864 257.3 289.952C257.348 290.04 257.348 290.048 257.372 290.087C258.137 292.197 260.911 299.475 264.521 304.347C267.064 307.771 271.719 308.854 275.529 306.911C282.957 303.129 285.914 294.068 282.144 286.672L256.997 237.378C253.219 229.982 244.141 227.059 236.721 230.834C232.48 232.967 230.448 237.88 231.962 242.371C233.237 245.754 234.975 248.955 237.111 251.869C237.693 252.737 238.315 253.589 238.928 254.481Z"
        fill="#CDB2C4" />
    <path
        d="M271.535 308.241C268.737 308.241 266.012 306.951 264.242 304.562C260.568 299.602 257.802 292.325 257.045 290.215L256.782 289.705C254.646 283.766 252.127 277.953 249.274 272.372C246.173 266.249 242.594 260.301 238.641 254.688C238.458 254.417 238.266 254.154 238.083 253.892C237.645 253.271 237.23 252.681 236.832 252.068C234.688 249.138 232.934 245.914 231.643 242.498C230.073 237.864 232.201 232.713 236.577 230.515C244.165 226.653 253.474 229.663 257.332 237.219L282.478 286.512C286.336 294.076 283.299 303.376 275.704 307.238C274.373 307.914 272.946 308.241 271.535 308.241ZM239.223 254.274C243.2 259.911 246.787 265.891 249.903 272.045C252.773 277.651 255.307 283.495 257.427 289.419L257.69 289.928C258.24 291.457 261.102 299.132 264.808 304.133C267.255 307.429 271.694 308.464 275.361 306.585C282.598 302.898 285.499 294.037 281.817 286.831L256.67 237.538C252.988 230.332 244.109 227.474 236.88 231.152C232.815 233.19 230.846 237.96 232.297 242.251C233.556 245.595 235.278 248.764 237.398 251.654C237.804 252.275 238.211 252.857 238.641 253.478C238.848 253.732 239.04 254.003 239.223 254.274Z"
        fill="#090667" />
    <path
        d="M282.279 285.836L281.777 286.09L256.814 237.147L257.316 236.893C260.552 235.245 264.513 236.526 266.163 239.751L285.157 276.99C285.954 278.542 286.097 280.342 285.555 282.006C285.013 283.662 283.834 285.039 282.279 285.836Z"
        fill="#21056E" />
    <path
        d="M281.777 286.449C281.65 286.449 281.522 286.377 281.458 286.25L256.495 237.307C256.407 237.132 256.471 236.917 256.655 236.821L257.157 236.566C258.807 235.722 260.688 235.571 262.449 236.144C264.211 236.71 265.645 237.936 266.482 239.584L285.475 276.823C286.312 278.447 286.464 280.374 285.898 282.109C285.324 283.877 284.097 285.31 282.439 286.154L281.937 286.409C281.889 286.441 281.833 286.449 281.777 286.449ZM257.292 237.307L281.929 285.605L282.112 285.509C283.579 284.761 284.702 283.447 285.213 281.886C285.723 280.326 285.579 278.598 284.83 277.149L265.836 239.91C265.087 238.437 263.796 237.339 262.218 236.829C260.64 236.319 258.95 236.455 257.468 237.203L257.292 237.307Z"
        fill="#090667" />
    <path
        d="M237.239 240.77C237.047 240.77 236.888 240.619 236.88 240.428C236.744 237.936 238.099 235.611 240.339 234.488C240.514 234.401 240.73 234.472 240.825 234.647C240.913 234.823 240.841 235.037 240.666 235.133C238.689 236.12 237.486 238.183 237.605 240.388C237.613 240.587 237.462 240.754 237.263 240.77C237.247 240.77 237.247 240.77 237.239 240.77Z"
        fill="#090667" />
    <path
        d="M271.878 302.58C270.26 302.58 268.666 301.895 267.55 300.613C267.422 300.462 267.438 300.239 267.59 300.104C267.741 299.976 267.964 299.992 268.1 300.143C269.654 301.935 272.276 302.381 274.349 301.21C274.524 301.115 274.739 301.171 274.835 301.346C274.931 301.521 274.875 301.736 274.699 301.831C273.815 302.333 272.842 302.58 271.878 302.58Z"
        fill="#090667" />
    <path
        d="M116.359 316.577C118.599 323.106 121.309 329.46 124.457 335.599C127.311 341.22 130.523 346.65 134.069 351.865C134.069 351.865 134.101 351.937 134.165 352.056C134.229 352.176 134.237 352.192 134.277 352.279C134.317 352.367 134.325 352.375 134.348 352.415C135.616 354.278 139.872 360.799 141.689 366.571C142.972 370.64 141.107 375.043 137.29 376.978C133.719 378.793 129.582 379.127 125.772 377.901C121.97 376.675 118.814 373.984 116.997 370.433L91.8581 321.147C90.0489 317.596 89.7221 313.464 90.9655 309.666C92.2088 305.868 94.9108 302.715 98.4816 300.9C102.706 298.726 107.879 299.976 110.621 303.83C112.605 306.856 114.175 310.136 115.275 313.583C115.69 314.547 116.009 315.542 116.359 316.577Z"
        fill="#CDB2C4" />
    <path
        d="M130.443 379C128.841 379 127.239 378.753 125.676 378.244C121.755 376.978 118.559 374.263 116.694 370.592L91.555 321.307C89.682 317.644 89.3631 313.464 90.6464 309.547C91.9296 305.629 94.6635 302.445 98.3378 300.573C102.69 298.336 108.102 299.642 110.931 303.623C112.94 306.688 114.526 310.001 115.642 313.472C115.96 314.26 116.239 315.08 116.534 315.948L116.71 316.458C118.933 322.947 121.651 329.333 124.792 335.431C127.629 341.021 130.857 346.475 134.388 351.658L134.691 352.247C135.934 354.071 140.206 360.608 142.056 366.46C143.395 370.711 141.466 375.266 137.481 377.288C135.257 378.427 132.858 379 130.443 379ZM102.849 300.207C101.43 300.207 99.9957 300.534 98.6646 301.218C95.1497 303.002 92.5513 306.043 91.3238 309.778C90.1044 313.512 90.4152 317.493 92.1926 320.988L117.331 370.274C119.117 373.769 122.153 376.357 125.9 377.567C129.638 378.777 133.631 378.459 137.138 376.667C140.812 374.804 142.59 370.608 141.354 366.691C139.537 360.926 135.313 354.469 134.061 352.63L133.758 352.04C130.235 346.873 126.992 341.387 124.138 335.774C120.99 329.643 118.256 323.226 116.016 316.705L115.841 316.195C115.554 315.335 115.275 314.531 114.956 313.735C113.856 310.295 112.302 307.039 110.333 304.045C108.58 301.561 105.742 300.207 102.849 300.207Z"
        fill="#090667" />
    <path
        d="M91.3158 321.092L91.8179 320.837L116.773 369.764L116.271 370.019C113.035 371.667 109.074 370.385 107.424 367.16L88.4305 329.922C86.7806 326.697 88.0718 322.74 91.3158 321.092Z"
        fill="#21056E" />
    <path
        d="M113.282 371.102C112.565 371.102 111.84 370.99 111.138 370.759C109.377 370.194 107.942 368.968 107.105 367.32L88.1119 330.081C86.3823 326.681 87.7452 322.501 91.1566 320.765L91.6587 320.511C91.7464 320.471 91.842 320.455 91.9297 320.487C92.0174 320.518 92.0971 320.582 92.1369 320.662L117.092 369.589C117.18 369.764 117.108 369.979 116.933 370.075L116.431 370.329C115.442 370.839 114.366 371.102 113.282 371.102ZM91.6587 321.323L91.4754 321.418C88.4147 322.971 87.1953 326.721 88.7495 329.762L107.743 367.001C108.492 368.474 109.775 369.573 111.362 370.082C112.94 370.592 114.629 370.457 116.112 369.708L116.295 369.613L91.6587 321.323Z"
        fill="#090667" />
    <path
        d="M105.99 307.317C105.91 307.317 105.83 307.293 105.766 307.238C104.053 305.844 101.67 305.605 99.7088 306.625C99.5335 306.72 99.3183 306.649 99.2226 306.473C99.127 306.298 99.1987 306.083 99.3741 305.988C101.598 304.833 104.284 305.104 106.221 306.68C106.372 306.808 106.396 307.031 106.268 307.19C106.197 307.27 106.093 307.317 105.99 307.317Z"
        fill="#090667" />
    <path
        d="M133.543 373.347C133.408 373.347 133.272 373.267 133.216 373.132C133.137 372.949 133.216 372.742 133.392 372.654C135.56 371.675 136.739 369.286 136.213 366.977C136.166 366.786 136.293 366.587 136.484 366.547C136.676 366.5 136.875 366.627 136.915 366.818C137.52 369.461 136.166 372.184 133.695 373.307C133.647 373.339 133.591 373.347 133.543 373.347Z"
        fill="#090667" />
    <path
        d="M53.1457 137.168L60.0561 142.12C61.6502 143.266 62.0168 145.488 60.8691 147.08C60.8691 147.08 60.8691 147.088 60.8611 147.088L48.5468 164.135C47.399 165.728 45.1753 166.086 43.5812 164.947L36.6709 159.995C35.0768 158.848 34.7101 156.627 35.8579 155.034C35.8579 155.034 35.8579 155.026 35.8659 155.026L48.1801 137.98C49.3358 136.379 51.5516 136.021 53.1457 137.168Z"
        fill="#21056E" />
    <path
        d="M45.6614 165.974C44.8724 165.974 44.0753 165.735 43.3819 165.242L36.4716 160.289C35.6187 159.676 35.0608 158.777 34.8934 157.742C34.726 156.706 34.9651 155.671 35.5788 154.819L47.8932 137.765C49.1525 136.021 51.6074 135.615 53.3609 136.873L60.2633 141.825C61.1161 142.438 61.674 143.338 61.8414 144.373C62.0088 145.408 61.7697 146.443 61.1559 147.295L48.8416 164.35C48.0844 165.409 46.8809 165.974 45.6614 165.974ZM51.0813 136.857C50.085 136.857 49.1046 137.319 48.483 138.179L36.1687 155.226C35.6666 155.926 35.4673 156.77 35.6028 157.614C35.7383 158.458 36.2006 159.199 36.894 159.692L43.8043 164.645C45.231 165.672 47.2396 165.345 48.2678 163.92L60.5821 146.873C61.6183 145.432 61.2835 143.434 59.8488 142.407L52.9464 137.454C52.3726 137.056 51.7269 136.857 51.0813 136.857Z"
        fill="#090667" />
    <path
        d="M160.117 97.166L160.069 105.662C160.061 107.62 158.459 109.205 156.498 109.197L135.456 109.125C133.487 109.117 131.901 107.517 131.909 105.558V105.55L131.957 97.0545C131.965 95.0958 133.567 93.5114 135.528 93.5193L156.57 93.591C158.539 93.599 160.125 95.1994 160.117 97.158C160.117 97.158 160.117 97.158 160.117 97.166Z"
        fill="#21056E" />
    <path
        d="M156.506 109.555C156.498 109.555 156.498 109.555 156.49 109.555L135.448 109.483C134.404 109.483 133.416 109.069 132.683 108.329C131.941 107.588 131.543 106.601 131.543 105.558L131.591 97.0545C131.607 94.9047 133.36 93.1611 135.512 93.1611C135.52 93.1611 135.52 93.1611 135.528 93.1611L156.57 93.2327C157.614 93.2327 158.602 93.6467 159.336 94.3872C160.077 95.1277 160.475 96.115 160.475 97.158V97.166L160.428 105.662C160.412 107.811 158.658 109.555 156.506 109.555ZM135.512 93.8776C133.759 93.8776 132.324 95.3028 132.308 97.0545L132.26 105.55C132.26 106.41 132.587 107.214 133.193 107.819C133.798 108.424 134.595 108.759 135.456 108.767L156.498 108.838H156.506C158.26 108.838 159.694 107.413 159.71 105.662L159.758 97.166C159.758 96.314 159.431 95.5099 158.826 94.9048C158.22 94.2996 157.423 93.9652 156.562 93.9573L135.52 93.8856C135.52 93.8777 135.512 93.8776 135.512 93.8776Z"
        fill="#090667" />
    <path
        d="M257.061 186.182L266.219 181.524C268.331 180.449 270.905 181.285 271.981 183.395L283.451 205.88C284.527 207.99 283.69 210.562 281.578 211.637L272.42 216.295C270.308 217.37 267.733 216.534 266.657 214.424L255.188 191.939C254.112 189.829 254.949 187.257 257.061 186.182Z"
        fill="#36BAB7" />
    <path
        d="M270.483 217.123C268.793 217.123 267.159 216.199 266.338 214.591L254.869 192.106C253.705 189.829 254.614 187.026 256.901 185.864L266.059 181.206C268.339 180.043 271.145 180.951 272.308 183.236L283.778 205.721C284.941 207.998 284.033 210.801 281.745 211.963L272.587 216.621C271.91 216.964 271.192 217.123 270.483 217.123ZM257.22 186.501C255.291 187.48 254.518 189.845 255.507 191.772L266.976 214.256C267.956 216.183 270.324 216.948 272.252 215.968L281.41 211.31C283.339 210.331 284.112 207.966 283.124 206.04L271.655 183.555C270.674 181.628 268.299 180.863 266.378 181.843L257.22 186.501Z"
        fill="#090667" />
    <path
        d="M270.73 189.152C270.674 189.152 270.619 189.144 270.571 189.112C268.801 188.236 266.761 187.966 264.824 188.348C264.625 188.388 264.441 188.26 264.402 188.061C264.362 187.87 264.489 187.679 264.689 187.639C266.777 187.233 268.985 187.528 270.89 188.467C271.065 188.555 271.137 188.77 271.049 188.945C270.985 189.08 270.858 189.152 270.73 189.152Z"
        fill="#090667" />
    <path
        d="M41.413 295.939L50.571 291.282C52.6832 290.207 55.2576 291.043 56.3337 293.153L67.8031 315.638C68.8791 317.748 68.0422 320.319 65.93 321.394L56.772 326.052C54.6599 327.127 52.0854 326.291 51.0094 324.181L39.54 301.696C38.4719 299.594 39.3088 297.014 41.413 295.939Z"
        fill="#36BAB7" />
    <path
        d="M54.8353 326.888C54.3491 326.888 53.8709 326.809 53.3927 326.657C52.213 326.275 51.2566 325.455 50.6907 324.348L39.2212 301.863C38.6553 300.757 38.5597 299.499 38.9423 298.32C39.3249 297.142 40.1458 296.186 41.2537 295.621L50.4117 290.963C51.5196 290.398 52.7789 290.302 53.9585 290.685C55.1382 291.067 56.0946 291.887 56.6605 292.994L68.13 315.478C69.2936 317.756 68.385 320.558 66.0975 321.721L56.9395 326.379C56.278 326.713 55.5606 326.888 54.8353 326.888ZM41.5805 296.266C40.6479 296.744 39.9545 297.556 39.6277 298.551C39.3009 299.546 39.3886 300.605 39.8668 301.545L51.3363 324.03C51.8145 324.961 52.6195 325.654 53.6238 325.98C54.6201 326.307 55.6881 326.219 56.6207 325.742L65.7787 321.084C67.7075 320.104 68.4727 317.74 67.4923 315.813L56.0229 293.328C55.5447 292.396 54.7397 291.704 53.7354 291.377C52.7391 291.051 51.671 291.138 50.7385 291.616L41.5805 296.266Z"
        fill="#090667" />
    <path
        d="M54.8036 298.28C54.7478 298.28 54.692 298.272 54.6442 298.241C52.8748 297.373 50.8343 297.094 48.8975 297.476C48.7062 297.516 48.5149 297.389 48.4751 297.19C48.4352 296.991 48.5628 296.807 48.762 296.768C50.8503 296.362 53.058 296.656 54.963 297.596C55.1383 297.683 55.2181 297.898 55.1304 298.073C55.0666 298.209 54.9391 298.28 54.8036 298.28Z"
        fill="#090667" />
    <path
        d="M45.8289 314.706C45.7014 314.706 45.5739 314.634 45.5101 314.507C45.4224 314.332 45.4942 314.117 45.6695 314.021L62.4632 305.47C62.6385 305.383 62.8537 305.446 62.9494 305.629C63.0371 305.805 62.9653 306.02 62.79 306.115L45.9963 314.666C45.9405 314.69 45.8847 314.706 45.8289 314.706Z"
        fill="#090667" />
    <path
        d="M261.604 204.877C261.476 204.877 261.349 204.805 261.285 204.678C261.197 204.503 261.261 204.288 261.445 204.192L278.238 195.649C278.414 195.561 278.629 195.633 278.724 195.808C278.812 195.983 278.748 196.198 278.565 196.294L261.771 204.837C261.715 204.861 261.66 204.877 261.604 204.877Z"
        fill="#090667" />
    <path
        d="M340.001 317.111C339.419 317.111 338.83 317.007 338.272 316.808C336.988 316.338 335.944 315.359 335.394 314.117C335.163 313.52 335.052 312.915 335.044 312.302C335.004 310.733 335.386 309.18 336.167 307.811C338.04 304.618 341.635 302.421 345.788 301.171C345.142 299.244 344.417 297.994 344.393 297.962C343.341 295.812 342.018 293.83 340.448 292.054C337.769 288.925 334.079 286.703 330.054 285.804C329.281 285.557 328.492 285.43 327.711 285.414C328.428 286.409 329.018 287.484 329.409 288.678C330.054 290.39 329.95 292.325 329.121 293.973C328.293 295.621 326.802 296.871 325.025 297.389C322.897 297.954 320.784 297.038 319.629 295.072C318.569 293.272 318.242 290.223 320.808 287.579C322.267 286.011 324.22 285.039 326.276 284.761C325.033 283.32 323.534 282.03 322.06 280.764L321.334 280.135C308.112 268.582 297.391 254.783 289.477 239.13L283.563 227.529C283.475 227.354 283.539 227.139 283.722 227.044C283.897 226.956 284.113 227.028 284.208 227.203L290.122 238.804C297.997 254.377 308.661 268.104 321.813 279.593L322.538 280.222C324.172 281.624 325.838 283.049 327.169 284.689C328.197 284.649 329.241 284.785 330.253 285.103C334.398 286.035 338.224 288.336 340.997 291.576C342.599 293.4 343.962 295.43 345.031 297.62C345.046 297.643 345.804 298.957 346.473 300.972C350.897 299.777 355.87 299.618 360.071 300.47C365.307 301.577 370.082 304.14 373.891 307.875C374.035 308.01 374.035 308.241 373.899 308.384C373.764 308.528 373.533 308.528 373.389 308.392C369.675 304.754 365.02 302.253 359.927 301.179C355.83 300.35 350.984 300.494 346.688 301.648C347.605 304.754 348.147 309.18 345.851 313.233C345.038 314.706 343.747 315.9 342.217 316.609C341.523 316.943 340.766 317.111 340.001 317.111ZM346.003 301.839C342.01 303.034 338.574 305.128 336.789 308.169C336.08 309.419 335.721 310.845 335.761 312.286C335.769 312.819 335.865 313.345 336.056 313.838C336.518 314.889 337.419 315.733 338.519 316.131C339.619 316.529 340.854 316.466 341.906 315.956C343.309 315.311 344.481 314.22 345.222 312.883C347.406 309.029 346.88 304.809 346.003 301.839ZM326.834 285.43C324.77 285.597 322.793 286.52 321.342 288.073C319.055 290.43 319.334 293.121 320.266 294.705C321.255 296.393 323.056 297.174 324.849 296.696C326.427 296.234 327.759 295.119 328.492 293.646C329.233 292.173 329.321 290.446 328.739 288.909C328.324 287.635 327.655 286.488 326.834 285.43Z"
        fill="#090667" />
    <path
        d="M214.746 82.9457C214.746 82.9457 213.917 86.0907 208.92 87.6592C203.922 89.2278 201.523 91.3537 199.116 91.7199C199.116 91.7199 191.592 81.7434 191.321 78.9646C192.23 83.7897 193.561 88.5271 195.29 93.1212C195.29 93.1212 189.488 95.0481 184.961 95.2471C177.676 95.5736 174.806 94.0846 169.641 94.9207C168.972 95.0242 168.263 95.1755 167.497 95.3665C164.341 96.1707 160.133 96.2583 156.737 96.1548C153.342 96.0513 150.879 95.7487 150.879 95.7487C150.871 94.9684 150.72 94.1961 150.441 93.4716C150.05 94.2837 149.564 95.0481 148.99 95.7408C142.988 95.8682 138.254 94.634 135.114 94.4191C131.981 94.2041 128.65 92.2932 128.65 92.2932C129.534 91.4094 131.073 86.5127 131.073 86.5127L125.948 91.3298C118.081 88.1131 117.292 82.7068 117.292 82.7068C119.739 82.7626 122.783 81.8788 127.701 74.4422C132.212 67.6187 136.54 45.6831 142.797 23.5246C145.929 12.4494 150.903 6.58926 155.095 3.47609C159.551 0.147933 165.433 -0.576612 170.566 1.56519C173.491 2.79135 175.603 4.89335 178.489 8.92216C185.112 18.19 186.316 24.2492 191.257 40.9855C196.318 58.1517 202.535 83.503 214.746 82.9457Z"
        fill="#FDC226" />
    <path
        d="M159.017 96.5609C158.284 96.5609 157.518 96.545 156.721 96.5211C153.35 96.4176 150.855 96.115 150.831 96.115C150.656 96.0911 150.52 95.9398 150.512 95.7647C150.504 95.3108 150.457 94.857 150.353 94.4191C150.034 94.9685 149.668 95.4939 149.261 95.9876C149.197 96.0672 149.094 96.115 148.99 96.115C144.949 96.1946 141.49 95.6771 138.708 95.2551C137.313 95.0401 136.11 94.8649 135.082 94.7933C131.902 94.5704 128.602 92.6992 128.466 92.6196C128.371 92.5639 128.307 92.4684 128.291 92.3569C128.275 92.2454 128.315 92.1339 128.395 92.0543C128.873 91.5766 129.67 89.5463 130.283 87.7548L126.195 91.6005C126.091 91.696 125.94 91.7279 125.812 91.6722C117.842 88.4157 116.965 82.9935 116.933 82.7626C116.917 82.6591 116.949 82.5556 117.021 82.4759C117.092 82.3963 117.188 82.3485 117.3 82.3565C119.731 82.4122 122.624 81.4648 127.398 74.2591C130.451 69.6411 133.496 57.7218 137.026 43.9235C138.716 37.2991 140.47 30.4437 142.446 23.4371C145.061 14.1851 149.245 7.37753 154.88 3.19744C159.415 -0.18645 165.473 -0.934891 170.702 1.23876C173.563 2.44103 175.683 4.39971 178.784 8.71516C184.618 16.8763 186.276 22.601 189.918 35.1254C190.436 36.9009 190.986 38.8119 191.6 40.89C192.022 42.3311 192.461 43.82 192.899 45.3567C197.769 62.1647 203.835 83.0651 214.73 82.5874C214.842 82.5874 214.953 82.6352 215.025 82.7228C215.097 82.8103 215.121 82.9298 215.089 83.0413C215.057 83.1766 214.148 86.3933 209.023 88.0016C206.473 88.8058 204.576 89.7612 203.061 90.5336C201.571 91.29 200.391 91.8871 199.172 92.0782C199.036 92.0941 198.909 92.0464 198.829 91.9429C198.606 91.6403 194.637 86.3614 192.421 82.4441C193.258 86.027 194.334 89.5622 195.625 93.0018C195.657 93.0894 195.657 93.1929 195.609 93.2805C195.561 93.3681 195.49 93.4397 195.394 93.4636C195.155 93.5433 189.496 95.4064 184.969 95.6134C181.517 95.7647 179.055 95.5179 176.879 95.3029C174.464 95.064 172.383 94.849 169.697 95.2869C169.044 95.3904 168.334 95.5417 167.585 95.7328C165.409 96.2822 162.532 96.5609 159.017 96.5609ZM151.23 95.4382C151.987 95.5178 154.091 95.7248 156.745 95.8045C161.185 95.9398 164.875 95.6771 167.41 95.0242C168.175 94.8251 168.908 94.6739 169.586 94.5704C172.367 94.1245 174.495 94.3394 176.958 94.5863C179.11 94.8012 181.549 95.0481 184.945 94.8968C188.739 94.7216 193.497 93.3123 194.82 92.8983C193.194 88.5271 191.927 84.0047 191.042 79.4344C191.002 79.2831 190.978 79.1398 190.962 79.0124C190.946 78.8214 191.082 78.6462 191.273 78.6223C191.457 78.5904 191.64 78.7258 191.68 78.9089C191.704 79.0522 191.735 79.1876 191.759 79.3309C192.421 81.7673 196.813 88.0494 199.275 91.3377C200.32 91.1307 201.396 90.5814 202.743 89.9046C204.289 89.1243 206.21 88.1449 208.816 87.3248C212.411 86.1942 213.766 84.2196 214.212 83.3199C203.093 83.1448 197.076 62.3398 192.214 45.5637C191.767 44.035 191.337 42.5381 190.915 41.1049C190.301 39.0268 189.743 37.1159 189.233 35.3404C185.622 22.8956 183.972 17.2107 178.202 9.14512C175.189 4.9491 173.156 3.05411 170.431 1.90757C165.441 -0.170534 159.647 0.546059 155.319 3.77867C149.819 7.85526 145.722 14.5354 143.148 23.6361C141.171 30.6348 139.426 37.4822 137.728 44.1066C134.181 57.9686 131.12 69.9436 128.004 74.6572C123.333 81.7275 120.289 83.0014 117.754 83.0811C118.121 84.363 119.731 88.344 125.876 90.9317L130.825 86.2739C130.945 86.1624 131.128 86.1465 131.264 86.234C131.399 86.3216 131.463 86.4888 131.415 86.6481C131.272 87.1099 130.092 90.8043 129.192 92.2056C130.124 92.6913 132.707 93.9254 135.137 94.0926C136.198 94.1643 137.417 94.3474 138.82 94.5624C141.538 94.9764 144.909 95.486 148.815 95.4223C149.325 94.7853 149.763 94.0926 150.114 93.3521C150.178 93.2248 150.297 93.1372 150.449 93.1451C150.592 93.1531 150.72 93.2407 150.767 93.376C151.038 94.021 151.19 94.7216 151.23 95.4382Z"
        fill="#090667" />
    <path
        d="M156.697 94.2598C156.673 94.2598 156.65 94.2598 156.626 94.2519C156.434 94.2121 156.307 94.021 156.347 93.8299C159.017 80.4217 157.327 62.4592 157.311 62.2841C157.295 62.085 157.439 61.9099 157.638 61.8939C157.837 61.8701 158.013 62.0213 158.028 62.2204C158.044 62.4035 159.742 80.4615 157.048 93.9732C157.016 94.1404 156.865 94.2598 156.697 94.2598Z"
        fill="#090667" />
    <path
        d="M137.417 95.0242C137.321 95.0242 137.234 94.9923 137.162 94.9207C137.018 94.7774 137.018 94.5544 137.162 94.4111C139.178 92.3887 140.876 88.7023 142.199 83.4473C142.247 83.2562 142.446 83.1368 142.638 83.1846C142.829 83.2323 142.948 83.4314 142.901 83.6225C141.538 89.0048 139.776 92.8028 137.672 94.9127C137.6 94.9923 137.505 95.0242 137.417 95.0242Z"
        fill="#090667" />
    <path
        d="M143.411 79.9838C143.387 79.9838 143.363 79.9838 143.347 79.9758C143.148 79.936 143.02 79.7529 143.06 79.5539C143.817 75.5728 144.088 72.4119 144.088 72.388C144.104 72.1889 144.28 72.0456 144.479 72.0615C144.678 72.0775 144.822 72.2526 144.806 72.4517C144.806 72.4835 144.535 75.6763 143.769 79.6972C143.73 79.8644 143.578 79.9838 143.411 79.9838Z"
        fill="#090667" />
    <path
        d="M143.961 95.9C143.889 95.9 143.817 95.8761 143.753 95.8363C143.586 95.7248 143.546 95.5019 143.658 95.3347C146.774 90.8043 146.671 82.3804 146.671 82.3008C146.671 82.1017 146.822 81.9345 147.021 81.9345C147.213 81.9425 147.388 82.0858 147.388 82.2849C147.396 82.6431 147.5 91.0193 144.248 95.7408C144.184 95.8522 144.072 95.9 143.961 95.9Z"
        fill="#090667" />
    <path
        d="M119.97 87.7946C119.802 87.7946 119.659 87.6832 119.619 87.516C119.579 87.3249 119.699 87.1338 119.89 87.086C119.938 87.078 124.561 85.9554 128.315 79.53C128.418 79.3548 128.633 79.2991 128.809 79.4026C128.984 79.5061 129.04 79.7211 128.936 79.8962C125.015 86.6162 120.249 87.7468 120.049 87.7867C120.025 87.7867 120.001 87.7946 119.97 87.7946Z"
        fill="#090667" />
    <path
        d="M188.858 95.0401C188.77 95.0401 188.682 95.0083 188.611 94.9446C180.242 87.2771 177.205 64.41 176.137 51.4636C176.121 51.2646 176.265 51.0894 176.464 51.0735C176.663 51.0655 176.838 51.2009 176.854 51.3999C177.914 64.2428 180.911 86.9108 189.097 94.4111C189.24 94.5465 189.256 94.7694 189.121 94.9207C189.049 95.0083 188.953 95.0401 188.858 95.0401Z"
        fill="#090667" />
    <path
        d="M176.329 49.6801C176.145 49.6801 175.986 49.5368 175.97 49.3457C175.699 45.5876 175.627 43.1512 175.627 43.1273C175.619 42.9282 175.779 42.761 175.978 42.761H175.986C176.177 42.761 176.337 42.9123 176.344 43.1114C176.344 43.1352 176.416 45.5557 176.687 49.2979C176.703 49.497 176.552 49.6721 176.352 49.6801C176.344 49.6801 176.336 49.6801 176.329 49.6801Z"
        fill="#090667" />
    <path
        d="M179.326 95.0242C179.198 95.0242 179.07 94.9525 179.007 94.8331C176.416 89.8409 174.073 78.0809 173.977 77.5872C173.938 77.3961 174.065 77.205 174.264 77.1652C174.464 77.1254 174.647 77.2528 174.687 77.4519C174.711 77.5713 177.102 89.61 179.652 94.5067C179.74 94.6818 179.676 94.8968 179.501 94.9923C179.437 95.0162 179.381 95.0242 179.326 95.0242Z"
        fill="#090667" />
    <path
        d="M184.123 73.6937C183.988 73.6937 183.86 73.6221 183.805 73.4947C182.043 69.9595 181.39 61.0818 181.366 60.6996C181.35 60.5006 181.501 60.3334 181.7 60.3174C181.892 60.2935 182.067 60.4528 182.083 60.6519C182.091 60.7394 182.745 69.7684 184.45 73.1762C184.538 73.3514 184.466 73.5664 184.291 73.6619C184.235 73.6778 184.179 73.6937 184.123 73.6937Z"
        fill="#090667" />
    <path
        d="M204.711 89.6816C204.616 89.6816 204.52 89.6418 204.448 89.5622C201.978 86.8471 200.232 81.1622 200.16 80.9154C200.104 80.7243 200.208 80.5252 200.399 80.4695C200.591 80.4138 200.79 80.5173 200.846 80.7083C200.862 80.7641 202.607 86.4809 204.974 89.0765C205.11 89.2198 205.094 89.4507 204.95 89.5861C204.879 89.6498 204.791 89.6816 204.711 89.6816Z"
        fill="#090667" />
    <path
        d="M172.925 14.5514C172.75 14.5514 172.59 14.416 172.567 14.2409C170.964 1.78019 164.795 0.721231 164.74 0.713269C164.54 0.68142 164.405 0.498297 164.437 0.307206C164.469 0.108154 164.652 -0.0272051 164.843 0.00464328C165.122 0.0444537 171.602 1.09545 173.284 14.1533C173.308 14.3523 173.172 14.5275 172.973 14.5594C172.957 14.5514 172.941 14.5514 172.925 14.5514Z"
        fill="#090667" />
    <path
        d="M156.745 8.18168C156.705 8.18168 156.665 8.17372 156.634 8.16575C156.442 8.10206 156.347 7.89505 156.41 7.71192C158.387 1.89164 162.364 0.23552 162.532 0.171824C162.715 0.100165 162.922 0.187748 163.002 0.370876C163.074 0.554004 162.986 0.761015 162.803 0.840636C162.763 0.85656 158.953 2.45694 157.096 7.94282C157.032 8.08613 156.897 8.18168 156.745 8.18168Z"
        fill="#090667" />
    <path
        d="M166.023 6.26282C165.84 6.26282 165.68 6.11951 165.664 5.93639C165.298 1.65278 163.815 0.82472 163.799 0.816758C163.624 0.729175 163.552 0.514206 163.64 0.33904C163.727 0.163874 163.935 0.0922099 164.11 0.171831C164.19 0.211641 165.967 1.11136 166.374 5.88065C166.39 6.0797 166.246 6.25487 166.047 6.27079C166.039 6.26283 166.031 6.26282 166.023 6.26282Z"
        fill="#090667" />
    <path
        d="M171.299 195.49C168.159 202.146 158.594 202.146 157.781 199.367C156.968 196.597 155.996 193.826 154.155 192.623C153.828 192.408 153.525 192.154 153.262 191.867C152.242 190.689 151.812 189.112 152.098 187.583C152.529 185.266 153.278 183.013 154.322 180.895C154.322 181.055 154.059 184.63 155.239 186.716C156.418 188.802 157.279 190.593 159.591 189.391C161.902 188.189 162.827 190.498 164.214 188.189C165.6 185.88 166.987 183.658 169.665 184.677C172.208 185.633 172.853 182.798 172.925 182.456C173.124 188.611 172.774 192.369 171.299 195.49Z"
        fill="#21056E" />
    <path
        d="M161.886 201.485C161.623 201.485 161.36 201.477 161.105 201.453C159.128 201.302 157.757 200.562 157.447 199.479C156.697 196.923 155.749 194.096 153.964 192.934C153.613 192.703 153.286 192.424 152.999 192.114C151.891 190.84 151.437 189.168 151.756 187.52C152.194 185.171 152.951 182.886 154.003 180.744C154.075 180.593 154.242 180.513 154.41 180.553C154.569 180.593 154.689 180.736 154.689 180.903V181.007C154.577 183.356 154.896 185.378 155.566 186.548L155.733 186.843C156.921 188.961 157.63 190.028 159.439 189.088C160.587 188.491 161.44 188.674 162.117 188.826C162.898 188.993 163.289 189.08 163.919 188.021C165.274 185.768 166.804 183.212 169.809 184.359C170.43 184.59 170.964 184.59 171.395 184.351C172.272 183.865 172.551 182.559 172.582 182.408C172.614 182.225 172.79 182.106 172.965 182.121C173.148 182.137 173.292 182.289 173.3 182.472C173.515 189.072 173.061 192.647 171.642 195.665C169.697 199.726 165.385 201.485 161.886 201.485ZM153.948 182.591C153.278 184.223 152.776 185.919 152.449 187.647C152.178 189.08 152.569 190.529 153.525 191.628C153.764 191.891 154.043 192.122 154.346 192.321C156.339 193.619 157.343 196.589 158.124 199.272C158.347 200.036 159.535 200.609 161.153 200.737C164.524 201 169.044 199.423 170.972 195.339C172.224 192.695 172.694 189.566 172.606 184.144C172.383 184.462 172.104 184.757 171.73 184.956C171.1 185.306 170.367 185.322 169.538 185.012C167.266 184.144 166.071 185.776 164.516 188.372C163.616 189.869 162.763 189.685 161.942 189.51C161.312 189.375 160.667 189.232 159.75 189.709C157.239 191.015 156.187 189.152 155.079 187.177L154.92 186.883C154.235 185.673 154.003 183.985 153.948 182.591Z"
        fill="#090667" />
    <path
        d="M172.925 182.488C172.861 182.798 172.208 185.641 169.665 184.709C166.987 183.69 165.6 185.903 164.214 188.22C162.827 190.537 161.902 188.22 159.591 189.423C157.279 190.625 156.442 188.865 155.239 186.747C154.035 184.63 154.314 181.078 154.322 180.927C154.641 180.25 155.008 179.542 155.43 178.801C159.033 172.328 157.375 149.692 157.439 137.59C157.439 135.081 157.439 131.769 157.383 128.091C157.383 125.997 157.319 123.791 157.279 121.538C157.096 111.195 156.817 100.096 156.721 96.1707C160.117 96.2822 164.333 96.1707 167.481 95.3904C168.239 95.1993 168.956 95.0481 169.625 94.9446C169.873 107.413 171.259 150.249 171.259 150.249C171.905 165.648 172.758 175.577 172.925 182.488Z"
        fill="#FDC226" />
    <path
        d="M158.228 190.171C156.761 190.171 155.948 188.73 155.103 187.217L154.928 186.915C153.748 184.837 153.916 181.54 153.963 180.895C153.963 180.848 153.979 180.8 153.995 180.76C154.338 180.043 154.713 179.319 155.119 178.61C157.837 173.737 157.494 159.143 157.231 147.415C157.152 143.808 157.072 140.4 157.088 137.574C157.088 135.121 157.088 131.753 157.032 128.083C157.032 126.634 157 125.161 156.968 123.6C156.952 122.915 156.936 122.223 156.928 121.53C156.761 112.262 156.522 102.365 156.41 97.6119L156.378 96.1707C156.378 96.0752 156.418 95.9796 156.482 95.908C156.554 95.8363 156.65 95.8045 156.745 95.8045C159.79 95.9 164.11 95.8523 167.409 95.0322C168.175 94.8411 168.908 94.6818 169.585 94.5783C169.689 94.5624 169.793 94.5942 169.872 94.6579C169.952 94.7216 170 94.8251 170 94.9286C170.247 107.254 171.618 149.803 171.634 150.233C171.969 158.195 172.359 164.788 172.678 170.075C172.981 175.139 173.22 179.136 173.3 182.48C173.3 182.512 173.3 182.535 173.292 182.567C173.204 182.981 172.821 184.383 171.729 184.988C171.108 185.33 170.374 185.354 169.554 185.052C167.274 184.184 166.086 185.816 164.532 188.412C163.631 189.908 162.779 189.725 161.958 189.55C161.328 189.415 160.682 189.271 159.766 189.749C159.176 190.036 158.674 190.171 158.228 190.171ZM154.681 181.007C154.641 181.612 154.505 184.701 155.557 186.556L155.733 186.867C156.952 189.041 157.622 190.036 159.431 189.096C160.579 188.499 161.424 188.682 162.109 188.834C162.89 189.001 163.281 189.088 163.918 188.029C165.273 185.776 166.804 183.22 169.809 184.367C170.414 184.59 170.948 184.582 171.379 184.351C172.192 183.905 172.503 182.766 172.574 182.456C172.487 179.136 172.255 175.155 171.953 170.115C171.634 164.82 171.243 158.227 170.908 150.257C170.893 149.827 169.553 108.201 169.282 95.3586C168.741 95.4541 168.175 95.5815 167.577 95.7328C164.333 96.537 160.156 96.6166 157.096 96.537L157.12 97.6039C157.231 102.357 157.478 112.262 157.638 121.53C157.646 122.223 157.662 122.915 157.678 123.592C157.709 125.153 157.741 126.634 157.741 128.083C157.797 131.753 157.797 135.121 157.797 137.582C157.781 140.4 157.861 143.8 157.941 147.407C158.212 159.223 158.554 173.921 155.741 178.976C155.366 179.637 155.008 180.322 154.681 181.007Z"
        fill="#090667" />
    <path
        d="M166.963 120.001C166.525 122.35 165.592 123.138 161.655 124.078C160.34 124.388 158.985 124.46 157.646 124.285C157.271 124.261 156.904 124.221 156.538 124.149C156.044 124.006 155.637 123.656 155.43 123.194C155.063 122.175 155.908 120.527 157.287 120.718C158.323 121.092 159.854 120.344 161.169 120.2C162.492 120.057 163.942 119.946 164.723 118.791C164.931 118.473 165.186 118.074 165.576 118.09C166.023 118.146 166.429 118.377 166.692 118.743C166.955 119.11 167.051 119.563 166.963 120.001Z"
        fill="#36BAB7" />
    <path
        d="M159.065 124.739C158.57 124.739 158.084 124.707 157.59 124.643C157.231 124.627 156.841 124.579 156.458 124.5C155.837 124.325 155.342 123.903 155.087 123.337C154.832 122.629 155.016 121.737 155.534 121.1C155.996 120.535 156.642 120.264 157.319 120.36C157.343 120.36 157.367 120.368 157.391 120.375C157.949 120.582 158.754 120.375 159.607 120.153C160.101 120.025 160.619 119.89 161.113 119.834L161.272 119.818C162.492 119.691 163.751 119.547 164.405 118.584C164.644 118.226 164.963 117.716 165.561 117.724C166.134 117.788 166.637 118.082 166.963 118.528C167.29 118.974 167.41 119.531 167.314 120.073C166.836 122.621 165.744 123.481 161.735 124.428C160.858 124.635 159.965 124.739 159.065 124.739ZM157.056 121.06C156.57 121.06 156.251 121.363 156.092 121.554C155.733 121.992 155.59 122.629 155.749 123.075C155.908 123.417 156.227 123.696 156.618 123.807C156.937 123.871 157.295 123.911 157.646 123.935C158.969 124.102 160.276 124.038 161.559 123.735C165.497 122.796 166.206 122.048 166.597 119.946C166.66 119.603 166.581 119.245 166.374 118.958C166.166 118.68 165.847 118.488 165.505 118.449C165.361 118.449 165.17 118.743 165.019 118.974C164.166 120.24 162.675 120.399 161.352 120.543L161.193 120.559C160.746 120.606 160.26 120.734 159.79 120.853C158.889 121.084 157.949 121.323 157.192 121.068C157.144 121.06 157.104 121.06 157.056 121.06Z"
        fill="#090667" />
    <path
        d="M170.924 131.889C169.745 131.944 168.812 131.18 168.374 130.949C166.987 130.209 166.11 129.619 164.564 129.89C163.839 130.057 163.09 130.153 162.34 130.177C161.591 130.193 160.874 129.866 160.396 129.293C159.933 128.68 160.029 127.82 160.619 127.326C161.288 126.88 162.285 127.215 162.93 126.681C163.751 126.164 164.795 126.196 165.592 126.753C166.055 126.976 166.549 127.119 167.059 127.191C167.449 127.271 167.848 127.31 168.254 127.302C169.012 127.35 169.761 127.414 170.438 127.438C171.068 127.446 171.658 127.732 172.048 128.218C172.447 128.704 172.606 129.341 172.487 129.954C172.375 131.443 171.482 131.889 170.924 131.889Z"
        fill="#36BAB7" />
    <path
        d="M170.805 132.255C169.801 132.255 168.98 131.745 168.486 131.435C168.382 131.371 168.286 131.307 168.215 131.268L167.824 131.053C166.668 130.432 165.911 130.018 164.644 130.24C163.911 130.416 163.138 130.511 162.372 130.527C161.496 130.543 160.699 130.169 160.149 129.508C159.559 128.728 159.678 127.653 160.42 127.032C160.842 126.745 161.312 126.705 161.719 126.666C162.109 126.634 162.476 126.594 162.731 126.387C163.703 125.774 164.891 125.798 165.8 126.427C166.222 126.626 166.669 126.761 167.131 126.817C167.521 126.896 167.896 126.928 168.271 126.928L168.948 126.976C169.482 127.016 170 127.048 170.478 127.072C171.204 127.08 171.889 127.414 172.351 127.987C172.814 128.553 172.997 129.293 172.862 130.018C172.726 131.761 171.602 132.247 170.949 132.247C170.893 132.255 170.845 132.255 170.805 132.255ZM165.298 129.468C166.389 129.468 167.187 129.898 168.159 130.424L168.549 130.631C168.637 130.678 168.741 130.742 168.868 130.822C169.347 131.124 170.072 131.578 170.917 131.53C170.925 131.53 170.925 131.53 170.933 131.53C171.331 131.53 172.041 131.188 172.136 129.922C172.24 129.373 172.104 128.847 171.778 128.441C171.451 128.035 170.965 127.804 170.438 127.788C169.944 127.764 169.418 127.732 168.876 127.693L168.231 127.645C167.84 127.653 167.41 127.613 166.987 127.525C166.461 127.454 165.935 127.295 165.433 127.056C165.417 127.048 165.401 127.04 165.385 127.024C164.708 126.546 163.823 126.522 163.13 126.96C162.747 127.287 162.221 127.326 161.767 127.374C161.408 127.406 161.073 127.438 160.834 127.597C160.428 127.939 160.348 128.592 160.699 129.046C161.097 129.524 161.711 129.795 162.349 129.795C163.066 129.779 163.791 129.683 164.493 129.524C164.78 129.484 165.05 129.468 165.298 129.468Z"
        fill="#090667" />
    <path
        d="M167.099 106.872C166.907 106.872 166.748 106.728 166.74 106.537C166.533 103.106 166.349 95.8522 166.349 95.7806C166.341 95.5815 166.501 95.4143 166.7 95.4143C166.907 95.4302 167.067 95.5656 167.067 95.7647C167.067 95.8363 167.25 103.074 167.457 106.498C167.465 106.697 167.322 106.864 167.123 106.88C167.115 106.872 167.107 106.872 167.099 106.872Z"
        fill="#090667" />
    <path
        d="M164.485 102.055C164.309 102.055 164.158 101.927 164.126 101.752C163.903 100.319 164.11 95.9319 164.126 95.7487C164.134 95.5497 164.309 95.3984 164.5 95.4064C164.7 95.4143 164.851 95.5815 164.843 95.7806C164.843 95.8284 164.628 100.279 164.843 101.641C164.875 101.84 164.74 102.023 164.54 102.047C164.516 102.055 164.5 102.055 164.485 102.055Z"
        fill="#090667" />
    <path
        d="M168.693 184.805C168.669 184.805 168.653 184.805 168.629 184.797C168.43 184.765 168.302 184.574 168.334 184.383C169.29 178.801 168.509 162.527 168.127 155.799C168.119 155.6 168.27 155.433 168.47 155.417C168.645 155.409 168.836 155.56 168.852 155.759C169.322 164.159 169.984 179.056 169.051 184.51C169.012 184.685 168.86 184.805 168.693 184.805Z"
        fill="#090667" />
    <path
        d="M168.398 154.302C168.207 154.302 168.047 154.159 168.039 153.968C167.864 151.085 167.737 149.222 167.737 149.222C167.721 149.023 167.872 148.856 168.071 148.84C168.271 148.824 168.446 148.975 168.454 149.174C168.454 149.174 168.589 151.037 168.757 153.928C168.765 154.127 168.613 154.294 168.422 154.31C168.414 154.302 168.406 154.302 168.398 154.302Z"
        fill="#090667" />
    <path
        d="M162.787 186.214C162.755 186.214 162.723 186.214 162.699 186.206C162.508 186.158 162.388 185.959 162.436 185.768C165.146 175.194 164.253 157.105 164.245 156.921C164.237 156.722 164.389 156.555 164.588 156.547C164.771 156.539 164.955 156.691 164.963 156.89C164.971 157.073 165.871 175.266 163.129 185.951C163.09 186.11 162.946 186.214 162.787 186.214Z"
        fill="#090667" />
    <path
        d="M157.112 189.184C157.08 189.184 157.048 189.176 157.016 189.168C156.825 189.12 156.713 188.921 156.761 188.73C157.741 185.107 159.854 173.801 159.877 173.682C159.917 173.483 160.101 173.355 160.3 173.395C160.499 173.435 160.627 173.618 160.587 173.817C160.563 173.928 158.451 185.266 157.462 188.921C157.415 189.08 157.271 189.184 157.112 189.184Z"
        fill="#090667" />
    <path
        d="M198.789 164.294L58.095 89.5622C54.1496 87.4682 49.2558 88.965 47.1596 92.8983L1.30573 179.048C-0.790495 182.989 0.707947 187.878 4.64534 189.972L145.339 264.704C149.285 266.798 154.179 265.301 156.275 261.368L202.129 175.218C204.225 171.277 202.734 166.388 198.789 164.294Z"
        fill="#21056E" />
    <path
        d="M149.126 266.01C147.787 266.01 146.432 265.692 145.172 265.023L4.4863 190.291C2.49369 189.232 1.03508 187.464 0.373532 185.306C-0.288013 183.149 -0.0648179 180.871 0.995249 178.881L46.8491 92.7311C49.033 88.6227 54.158 87.0621 58.2707 89.2437L198.965 163.976C203.077 166.157 204.64 171.277 202.456 175.386L156.602 261.535C155.079 264.386 152.146 266.01 149.126 266.01ZM54.3094 88.973C53.5522 88.973 52.7871 89.0845 52.0378 89.3154C50.0612 89.9205 48.4432 91.2502 47.4788 93.0735L1.62489 179.223C0.652503 181.047 0.453225 183.133 1.05898 185.099C1.66473 187.074 2.99582 188.69 4.82104 189.654L145.515 264.386C147.34 265.357 149.428 265.556 151.397 264.951C153.374 264.346 154.992 263.016 155.956 261.193L201.81 175.043C203.811 171.285 202.376 166.603 198.614 164.605L57.92 89.8727C56.7962 89.2756 55.5607 88.973 54.3094 88.973Z"
        fill="#090667" />
    <path
        d="M200.941 170.441L60.2472 95.7089C56.3018 93.6149 51.408 95.1118 49.3118 99.045L3.4579 185.195C1.36168 189.136 2.86012 194.025 6.79751 196.119L147.491 270.851C151.437 272.945 156.331 271.448 158.427 267.515L204.281 181.365C206.385 177.424 204.886 172.535 200.941 170.441Z"
        fill="#E71D74" />
    <path
        d="M151.277 272.157C149.938 272.157 148.583 271.838 147.324 271.169L6.63816 196.437C2.52542 194.256 0.963212 189.136 3.14711 185.028L49.001 98.8778C50.0611 96.8873 51.8305 95.4303 53.9905 94.7694C56.1505 94.1085 58.43 94.3315 60.4226 95.3904L201.117 170.123C203.109 171.182 204.568 172.949 205.229 175.107C205.891 177.265 205.668 179.542 204.608 181.532L158.754 267.682C157.231 270.525 154.306 272.157 151.277 272.157ZM56.4613 95.1197C55.7041 95.1197 54.939 95.2312 54.1897 95.4621C52.2131 96.0672 50.5951 97.3969 49.6306 99.2202L3.7768 185.37C1.77623 189.128 3.21091 193.81 6.97295 195.808L147.667 270.54C151.429 272.539 156.116 271.106 158.116 267.348L203.97 181.198C204.942 179.375 205.142 177.288 204.536 175.322C203.93 173.347 202.599 171.731 200.774 170.768L60.0799 96.0354C58.9481 95.4223 57.7126 95.1197 56.4613 95.1197Z"
        fill="#090667" />
    <path
        d="M153.509 265.035C154.363 263.432 153.753 261.441 152.148 260.588C150.543 259.735 148.55 260.344 147.697 261.947C146.843 263.551 147.452 265.542 149.057 266.395C150.662 267.247 152.656 266.639 153.509 265.035Z"
        fill="#EFF2F1" />
    <path
        d="M150.592 267.093C150.018 267.093 149.428 266.957 148.886 266.671C147.109 265.723 146.431 263.51 147.38 261.734C148.328 259.959 150.544 259.282 152.322 260.222C153.182 260.675 153.812 261.448 154.099 262.379C154.386 263.311 154.29 264.298 153.828 265.158C153.166 266.392 151.899 267.093 150.592 267.093ZM150.608 260.516C149.556 260.516 148.536 261.081 148.009 262.069C147.252 263.494 147.794 265.27 149.221 266.034C150.648 266.79 152.425 266.249 153.19 264.824C153.557 264.131 153.637 263.343 153.405 262.594C153.174 261.846 152.672 261.233 151.979 260.867C151.54 260.628 151.07 260.516 150.608 260.516Z"
        fill="#090667" />
    <path
        d="M147.643 265.246C147.507 265.246 147.38 265.174 147.316 265.047C147.228 264.871 147.3 264.656 147.484 264.569L153.398 261.687C153.573 261.599 153.788 261.671 153.876 261.854C153.963 262.029 153.892 262.244 153.708 262.332L147.794 265.214C147.747 265.238 147.699 265.246 147.643 265.246Z"
        fill="#090667" />
    <path
        d="M13.0367 190.414C13.8902 188.81 13.281 186.819 11.6758 185.967C10.0707 185.114 8.07759 185.723 7.22403 187.326C6.37048 188.93 6.97974 190.921 8.58486 191.773C10.19 192.626 12.1831 192.017 13.0367 190.414Z"
        fill="#EFF2F1" />
    <path
        d="M10.1213 192.488C9.53153 192.488 8.94972 192.345 8.4157 192.058C6.6383 191.111 5.9608 188.897 6.90928 187.122C7.3636 186.262 8.13675 185.633 9.06928 185.346C10.0018 185.059 10.9901 185.155 11.851 185.617C12.7118 186.071 13.3414 186.843 13.6283 187.775C13.9153 188.706 13.8197 189.693 13.3574 190.553C12.9031 191.413 12.1299 192.042 11.1974 192.329C10.8467 192.432 10.48 192.488 10.1213 192.488ZM10.1373 185.903C9.85036 185.903 9.55544 185.943 9.27647 186.031C8.52726 186.262 7.91355 186.763 7.54691 187.456C6.78972 188.881 7.33172 190.657 8.75843 191.421C9.45185 191.787 10.2409 191.867 10.9901 191.636C11.7394 191.405 12.3531 190.904 12.7197 190.211C13.0863 189.518 13.1661 188.73 12.9349 187.982C12.7038 187.233 12.2017 186.62 11.5082 186.254C11.0778 186.015 10.6075 185.903 10.1373 185.903Z"
        fill="#090667" />
    <path
        d="M7.17237 190.633C7.03687 190.633 6.90932 190.561 6.84555 190.434C6.75788 190.259 6.82963 190.044 7.01295 189.956L12.927 187.074C13.1023 186.986 13.3176 187.058 13.4052 187.241C13.4929 187.416 13.4212 187.631 13.2379 187.719L7.32381 190.601C7.27599 190.625 7.22816 190.633 7.17237 190.633Z"
        fill="#090667" />
    <path
        d="M200.527 178.287C201.38 176.683 200.771 174.692 199.166 173.84C197.561 172.987 195.568 173.596 194.714 175.199C193.861 176.802 194.47 178.793 196.075 179.646C197.68 180.499 199.673 179.89 200.527 178.287Z"
        fill="#EFF2F1" />
    <path
        d="M197.601 180.346C197.012 180.346 196.43 180.203 195.896 179.916C195.035 179.462 194.405 178.69 194.118 177.758C193.831 176.827 193.927 175.839 194.389 174.979C195.338 173.204 197.554 172.527 199.331 173.467C201.108 174.414 201.786 176.628 200.837 178.403C200.383 179.263 199.61 179.892 198.677 180.179C198.327 180.29 197.96 180.346 197.601 180.346ZM197.617 173.769C196.565 173.769 195.545 174.335 195.019 175.322C194.652 176.015 194.573 176.803 194.804 177.551C195.035 178.3 195.537 178.913 196.23 179.279C196.924 179.645 197.713 179.725 198.462 179.494C199.211 179.263 199.825 178.761 200.192 178.069C200.949 176.644 200.407 174.86 198.98 174.104C198.55 173.873 198.08 173.769 197.617 173.769Z"
        fill="#090667" />
    <path
        d="M194.652 178.499C194.517 178.499 194.389 178.427 194.326 178.3C194.238 178.124 194.31 177.91 194.493 177.822L200.407 174.94C200.59 174.852 200.798 174.924 200.885 175.107C200.973 175.282 200.901 175.497 200.718 175.585L194.804 178.467C194.756 178.483 194.708 178.499 194.652 178.499Z"
        fill="#090667" />
    <path
        d="M60.0548 103.666C60.9083 102.062 60.2991 100.071 58.694 99.2184C57.0888 98.3657 55.0957 98.9743 54.2421 100.578C53.3886 102.181 53.9978 104.172 55.603 105.025C57.2081 105.878 59.2012 105.269 60.0548 103.666Z"
        fill="#EFF2F1" />
    <path
        d="M57.1308 105.733C56.541 105.733 55.9592 105.59 55.4252 105.303C54.5644 104.849 53.9347 104.077 53.6478 103.146C53.3608 102.214 53.4565 101.227 53.9187 100.367C54.3731 99.5068 55.1462 98.8778 56.0787 98.5912C57.0113 98.3046 57.9996 98.4001 58.8604 98.8619C59.7212 99.3158 60.3509 100.088 60.6378 101.02C60.9247 101.951 60.8291 102.938 60.3668 103.798C59.9125 104.658 59.1394 105.287 58.2068 105.574C57.8561 105.685 57.4895 105.733 57.1308 105.733ZM57.1468 99.1486C56.8598 99.1486 56.5649 99.1884 56.286 99.2759C55.5368 99.5068 54.923 100.008 54.5564 100.701C54.1897 101.394 54.1101 102.182 54.3412 102.931C54.5723 103.679 55.0745 104.292 55.7679 104.658C56.4613 105.025 57.2504 105.104 57.9996 104.873C58.7488 104.642 59.3626 104.141 59.7292 103.448C60.0959 102.755 60.1755 101.967 59.9444 101.219C59.7132 100.47 59.2111 99.8572 58.5177 99.4909C58.0873 99.268 57.617 99.1486 57.1468 99.1486Z"
        fill="#090667" />
    <path
        d="M54.1819 103.886C54.0464 103.886 53.9189 103.814 53.8551 103.687C53.7674 103.512 53.8391 103.297 54.0225 103.209L59.9365 100.327C60.1119 100.239 60.3271 100.311 60.4148 100.494C60.5024 100.669 60.4307 100.884 60.2474 100.972L54.3333 103.854C54.2855 103.87 54.2377 103.886 54.1819 103.886Z"
        fill="#090667" />
    <path d="M180.331 159.526L177.588 164.679L186.49 169.408L189.233 164.255L180.331 159.526Z"
        fill="#CDB2C4" />
    <path
        d="M186.483 169.725C186.427 169.725 186.371 169.709 186.316 169.685L177.413 164.955C177.237 164.86 177.173 164.645 177.261 164.47L180.003 159.318C180.099 159.143 180.314 159.079 180.489 159.167L189.392 163.896C189.48 163.944 189.536 164.016 189.568 164.111C189.599 164.199 189.583 164.302 189.544 164.382L186.802 169.533C186.73 169.653 186.61 169.725 186.483 169.725ZM178.066 164.485L186.332 168.873L188.739 164.358L180.473 159.971L178.066 164.485Z"
        fill="#090667" />
    <path d="M72.2016 102.09L69.4587 107.243L78.3606 111.972L81.1036 106.819L72.2016 102.09Z"
        fill="#CDB2C4" />
    <path
        d="M78.3481 112.286C78.2923 112.286 78.2365 112.27 78.1807 112.246L69.2778 107.517C69.1901 107.469 69.1343 107.397 69.1024 107.302C69.0785 107.214 69.0865 107.111 69.1263 107.031L71.8682 101.88C71.9638 101.704 72.179 101.641 72.3543 101.728L81.2573 106.458C81.345 106.506 81.4008 106.577 81.4327 106.673C81.4566 106.76 81.4486 106.864 81.4087 106.943L78.6669 112.095C78.6031 112.222 78.4756 112.286 78.3481 112.286ZM69.9393 107.055L78.2047 111.442L80.6117 106.928L72.3464 102.54L69.9393 107.055Z"
        fill="#090667" />
    <path
        d="M21.4392 203.89L133.089 263.191L138.907 236.853C139.322 234.974 138.437 233.047 136.739 232.131L45.1672 183.499C43.4695 182.599 41.3812 182.942 40.0422 184.327L21.4392 203.89Z"
        fill="#36BAB7" />
    <path
        d="M133.089 263.558C133.033 263.558 132.969 263.542 132.922 263.518L21.272 204.216C21.1763 204.161 21.1046 204.065 21.0886 203.954C21.0727 203.842 21.1046 203.731 21.1843 203.651L39.7952 184.088C41.2299 182.591 43.5094 182.225 45.3426 183.188L136.915 231.829C138.748 232.816 139.712 234.918 139.266 236.94L133.448 263.279C133.424 263.391 133.352 263.478 133.248 263.526C133.193 263.542 133.137 263.558 133.089 263.558ZM22.0212 203.794L132.834 262.65L138.549 236.773C138.923 235.061 138.11 233.278 136.564 232.45L44.9999 183.817C43.4536 183.005 41.5248 183.316 40.3054 184.582L22.0212 203.794Z"
        fill="#090667" />
    <path
        d="M59.5697 196.843C59.5139 196.843 59.4581 196.827 59.4023 196.804L38.751 185.84C38.5756 185.744 38.5118 185.529 38.5995 185.354C38.6952 185.179 38.9104 185.115 39.0857 185.203L59.7371 196.167C59.9124 196.262 59.9762 196.477 59.8885 196.652C59.8168 196.772 59.6972 196.843 59.5697 196.843Z"
        fill="#090667" />
    <path
        d="M138.557 238.796C138.501 238.796 138.445 238.78 138.389 238.756L64.1606 199.328C63.9852 199.232 63.9215 199.017 64.0091 198.842C64.1048 198.667 64.32 198.603 64.4953 198.691L138.724 238.119C138.899 238.214 138.963 238.429 138.875 238.605C138.812 238.732 138.684 238.796 138.557 238.796Z"
        fill="#090667" />
    <path
        d="M137.536 243.422C137.481 243.422 137.425 243.406 137.369 243.382L35.483 189.263C35.3077 189.168 35.2439 188.953 35.3316 188.778C35.4272 188.603 35.6425 188.539 35.8178 188.626L137.704 242.745C137.879 242.84 137.943 243.055 137.855 243.23C137.791 243.35 137.664 243.422 137.536 243.422Z"
        fill="#090667" />
    <path
        d="M136.404 248.549C136.349 248.549 136.293 248.533 136.237 248.509L31.8644 193.077C31.6891 192.982 31.6253 192.767 31.713 192.592C31.8086 192.416 32.0238 192.353 32.1992 192.44L136.572 247.872C136.747 247.968 136.811 248.183 136.723 248.358C136.652 248.477 136.532 248.549 136.404 248.549Z"
        fill="#090667" />
    <path
        d="M135.273 253.669C135.217 253.669 135.161 253.653 135.105 253.629L28.2539 196.875C28.0786 196.78 28.0149 196.565 28.1026 196.39C28.1982 196.214 28.4134 196.151 28.5887 196.238L135.44 252.992C135.616 253.088 135.679 253.303 135.592 253.478C135.52 253.597 135.4 253.669 135.273 253.669Z"
        fill="#090667" />
    <path
        d="M84.294 232.314C84.2382 232.314 84.1824 232.299 84.1266 232.275L24.6354 200.673C24.46 200.578 24.3963 200.363 24.4839 200.187C24.5796 200.012 24.7948 199.949 24.9701 200.036L84.4614 231.638C84.6367 231.733 84.7005 231.948 84.6128 232.123C84.5491 232.243 84.4216 232.314 84.294 232.314Z"
        fill="#090667" />
    <path
        d="M134.141 258.788C134.085 258.788 134.029 258.772 133.974 258.749L89.2674 235.006C89.0921 234.91 89.0283 234.695 89.116 234.52C89.2116 234.345 89.4268 234.281 89.6022 234.369L134.308 258.112C134.484 258.207 134.547 258.422 134.46 258.597C134.396 258.725 134.268 258.788 134.141 258.788Z"
        fill="#090667" />
    <path
        d="M107.357 235.792C108.188 234.231 107.598 232.294 106.04 231.466C104.481 230.638 102.544 231.232 101.713 232.793C100.882 234.354 101.472 236.29 103.031 237.118C104.589 237.946 106.526 237.352 107.357 235.792Z"
        fill="#FDC226" />
    <path
        d="M104.531 237.888C103.957 237.888 103.383 237.745 102.865 237.474C101.135 236.55 100.474 234.393 101.39 232.665C101.837 231.829 102.586 231.208 103.495 230.929C104.403 230.65 105.368 230.746 106.205 231.192C107.041 231.638 107.663 232.386 107.934 233.294C108.213 234.201 108.117 235.165 107.671 236.001C107.225 236.837 106.476 237.458 105.567 237.737C105.232 237.832 104.881 237.888 104.531 237.888ZM104.547 231.486C104.268 231.486 103.989 231.526 103.71 231.614C102.984 231.837 102.387 232.33 102.028 232.999C101.295 234.385 101.821 236.104 103.2 236.837C103.869 237.195 104.642 237.267 105.368 237.044C106.093 236.821 106.691 236.327 107.049 235.659C107.408 234.99 107.48 234.217 107.257 233.493C107.033 232.768 106.547 232.171 105.878 231.821C105.455 231.598 105.001 231.486 104.547 231.486Z"
        fill="#090667" />
    <path
        d="M119.47 247.915C120.3 246.354 119.711 244.418 118.152 243.59C116.594 242.762 114.657 243.356 113.826 244.917C112.995 246.477 113.585 248.414 115.143 249.242C116.702 250.07 118.639 249.475 119.47 247.915Z"
        fill="#FDC226" />
    <path
        d="M116.646 249.935C116.072 249.935 115.498 249.791 114.98 249.521C114.143 249.075 113.522 248.326 113.251 247.419C112.98 246.511 113.067 245.547 113.514 244.711C113.96 243.875 114.709 243.254 115.618 242.976C116.527 242.697 117.491 242.793 118.328 243.238C120.057 244.162 120.719 246.32 119.802 248.048C119.356 248.884 118.607 249.505 117.698 249.783C117.347 249.879 116.997 249.935 116.646 249.935ZM116.654 243.533C116.375 243.533 116.096 243.573 115.817 243.66C115.092 243.883 114.494 244.377 114.135 245.046C113.777 245.715 113.705 246.487 113.928 247.212C114.151 247.936 114.638 248.533 115.307 248.892C115.977 249.25 116.75 249.321 117.467 249.099C118.192 248.876 118.79 248.382 119.149 247.713C119.882 246.328 119.356 244.608 117.977 243.875C117.571 243.645 117.116 243.533 116.654 243.533Z"
        fill="#090667" />
    <path
        d="M64.1849 212.929C65.0157 211.368 64.4258 209.432 62.8673 208.604C61.3089 207.776 59.3719 208.37 58.5411 209.931C57.7103 211.492 58.3002 213.428 59.8587 214.256C61.4171 215.084 63.3541 214.49 64.1849 212.929Z"
        fill="#FDC226" />
    <path
        d="M61.3552 214.949C60.7813 214.949 60.2074 214.806 59.6893 214.535C58.8524 214.089 58.2308 213.341 57.9598 212.433C57.6808 211.525 57.7765 210.562 58.2228 209.726C58.6691 208.89 59.4184 208.269 60.327 207.99C61.2356 207.712 62.2 207.807 63.0369 208.253C64.7665 209.177 65.4281 211.334 64.5115 213.062C64.0651 213.898 63.3159 214.519 62.4073 214.798C62.0566 214.901 61.7059 214.949 61.3552 214.949ZM61.3711 208.556C61.0922 208.556 60.8132 208.595 60.5342 208.683C59.8089 208.906 59.2111 209.4 58.8524 210.068C58.4938 210.737 58.422 211.51 58.6452 212.234C58.8684 212.959 59.3546 213.556 60.0241 213.906C60.6936 214.264 61.4667 214.336 62.1841 214.113C62.9094 213.89 63.5072 213.397 63.8659 212.728C64.5992 211.342 64.0731 209.623 62.6942 208.89C62.2797 208.667 61.8254 208.556 61.3711 208.556Z"
        fill="#090667" />
    <path
        d="M47.4096 209.634C48.2404 208.073 47.6505 206.137 46.0921 205.309C44.5336 204.481 42.5967 205.075 41.7659 206.636C40.9351 208.197 41.5249 210.133 43.0834 210.961C44.6419 211.789 46.5788 211.195 47.4096 209.634Z"
        fill="#FDC226" />
    <path
        d="M44.5776 211.653C44.0037 211.653 43.4298 211.51 42.9117 211.239C42.0748 210.793 41.4532 210.045 41.1822 209.137C40.9032 208.229 40.9989 207.266 41.4452 206.43C42.3698 204.694 44.5297 204.033 46.2593 204.957C47.0962 205.403 47.7179 206.151 47.9889 207.059C48.2679 207.966 48.1723 208.93 47.7259 209.766C47.2796 210.602 46.5303 211.223 45.6217 211.502C45.2869 211.605 44.9283 211.653 44.5776 211.653ZM44.5935 205.259C43.5733 205.259 42.5929 205.809 42.0749 206.764C41.7162 207.433 41.6444 208.205 41.8676 208.93C42.0908 209.654 42.577 210.252 43.2465 210.61C43.916 210.968 44.6812 211.04 45.4065 210.817C46.1318 210.594 46.7296 210.1 47.0882 209.431C47.4469 208.763 47.5186 207.99 47.2955 207.266C47.0723 206.541 46.5861 205.944 45.9166 205.586C45.5021 205.363 45.0478 205.259 44.5935 205.259Z"
        fill="#090667" />
    <path
        d="M38.9741 140.32L25.3765 165.871C24.8585 166.842 25.2251 168.052 26.1975 168.57L159.734 239.496C160.706 240.014 161.918 239.648 162.436 238.668L176.034 213.118L38.9741 140.32Z"
        fill="#FFD755" />
    <path
        d="M160.667 240.093C160.292 240.093 159.918 240.006 159.567 239.815L26.0303 168.888C24.8826 168.275 24.4522 166.85 25.058 165.704L38.6555 140.153C38.7033 140.066 38.775 140.01 38.8707 139.978C38.9584 139.954 39.062 139.962 39.1417 140.002L176.201 212.799C176.289 212.847 176.345 212.919 176.376 213.014C176.408 213.102 176.392 213.205 176.353 213.285L162.755 238.835C162.333 239.64 161.512 240.093 160.667 240.093ZM39.1257 140.806L25.6956 166.038C25.2732 166.834 25.576 167.83 26.3651 168.252L159.902 239.178C160.699 239.6 161.695 239.297 162.117 238.501L175.548 213.269L39.1257 140.806Z"
        fill="#090667" />
    <path
        d="M52.8825 114.189L38.9582 140.344L176.018 213.142L189.966 186.931C190.189 186.517 190.205 186.015 190.006 185.585L185.088 174.757L66.225 111.617C65.8982 111.442 65.5236 111.378 65.1649 111.442L54.0621 113.313C53.5679 113.417 53.1296 113.735 52.8825 114.189Z"
        fill="#FDC226" />
    <path
        d="M176.025 213.508C175.97 213.508 175.914 213.492 175.858 213.468L38.7987 140.663C38.711 140.615 38.6552 140.543 38.6233 140.448C38.5994 140.36 38.6074 140.257 38.6472 140.177L52.5715 114.022C52.8664 113.472 53.4084 113.082 54.0222 112.971L65.125 111.1C65.5633 111.028 66.0256 111.1 66.4162 111.315L185.279 174.454C185.351 174.494 185.407 174.55 185.439 174.621L190.356 185.45C190.595 185.975 190.572 186.596 190.301 187.114L176.352 213.325C176.281 213.436 176.153 213.508 176.025 213.508ZM39.4523 140.193L175.874 212.656L189.655 186.763C189.822 186.445 189.838 186.063 189.687 185.736L184.825 175.019L66.0655 111.944C65.8104 111.808 65.5155 111.76 65.2366 111.808L54.1338 113.679C53.7352 113.743 53.3925 113.998 53.2012 114.356L39.4523 140.193Z"
        fill="#090667" />
    <path d="M89.3985 192.485L87.1458 196.717L102.121 204.672L104.373 200.44L89.3985 192.485Z"
        fill="#36BAB7" />
    <path
        d="M102.116 204.989C102.06 204.989 102.004 204.973 101.948 204.949L86.972 196.995C86.7967 196.899 86.7329 196.684 86.8206 196.509L89.0762 192.273C89.1241 192.186 89.1958 192.13 89.2914 192.098C89.3791 192.066 89.4827 192.082 89.5624 192.122L104.539 200.076C104.714 200.172 104.778 200.386 104.69 200.562L102.435 204.797C102.371 204.925 102.243 204.989 102.116 204.989ZM87.6256 196.525L101.972 204.145L103.885 200.546L89.5385 192.926L87.6256 196.525Z"
        fill="#090667" />
    <path
        d="M177.102 178.61C177.046 178.61 176.99 178.594 176.934 178.57L67.4764 120.431C67.3011 120.336 67.2373 120.121 67.325 119.946C67.4126 119.77 67.6358 119.707 67.8111 119.794L177.269 177.933C177.444 178.029 177.508 178.244 177.42 178.419C177.349 178.539 177.229 178.61 177.102 178.61Z"
        fill="#090667" />
    <path
        d="M174.24 183.586C174.185 183.586 174.129 183.571 174.073 183.547L64.6152 125.408C64.4398 125.312 64.376 125.097 64.4637 124.922C64.5593 124.747 64.7745 124.683 64.9499 124.771L174.408 182.91C174.583 183.005 174.647 183.22 174.559 183.395C174.495 183.523 174.368 183.586 174.24 183.586Z"
        fill="#090667" />
    <path
        d="M35.4033 165.353C35.2678 165.353 35.1324 165.274 35.0766 165.138C34.9969 164.955 35.0765 164.748 35.2599 164.661L43.3419 161.022C43.5252 160.942 43.7324 161.022 43.8201 161.205C43.8998 161.388 43.8201 161.595 43.6368 161.683L35.5548 165.321C35.507 165.345 35.4512 165.353 35.4033 165.353Z"
        fill="#090667" />
    <path
        d="M38.0654 161.07C37.9299 161.07 37.7944 160.99 37.7386 160.855C37.6589 160.672 37.7385 160.465 37.9219 160.377L39.9145 159.485C40.0978 159.406 40.3051 159.485 40.3927 159.668C40.4724 159.852 40.3927 160.059 40.2094 160.146L38.2168 161.038C38.1689 161.062 38.1212 161.07 38.0654 161.07Z"
        fill="#090667" />
    <path
        d="M38.6632 166.97C38.5277 166.97 38.3921 166.89 38.3363 166.755C38.2566 166.572 38.3363 166.364 38.5196 166.277L42.8317 164.334C43.015 164.255 43.2222 164.334 43.3099 164.517C43.3896 164.7 43.3099 164.907 43.1266 164.995L38.8145 166.938C38.7667 166.962 38.711 166.97 38.6632 166.97Z"
        fill="#090667" />
    <path
        d="M161.766 185.736L70.0029 137C69.3015 136.626 68.4248 136.897 68.0502 137.597L52.484 166.842C52.1093 167.543 52.3803 168.419 53.0817 168.793L144.837 217.529C145.539 217.903 146.415 217.632 146.79 216.932L162.356 187.687C162.739 186.986 162.468 186.11 161.766 185.736Z"
        fill="#00AFEA" />
    <path
        d="M145.515 218.062C145.228 218.062 144.941 217.999 144.67 217.855L52.9146 169.119C52.0379 168.65 51.7031 167.559 52.1654 166.683L67.7316 137.438C68.2019 136.562 69.2938 136.228 70.1706 136.69L161.926 185.426C162.349 185.649 162.667 186.031 162.803 186.493C162.946 186.954 162.898 187.44 162.667 187.862L147.101 217.107C146.79 217.712 146.161 218.062 145.515 218.062ZM69.3337 137.191C68.9432 137.191 68.5685 137.398 68.3773 137.765L52.811 167.009C52.5321 167.535 52.7313 168.196 53.2574 168.474L145.013 217.21C145.539 217.489 146.2 217.29 146.479 216.764L162.046 187.52C162.181 187.265 162.213 186.97 162.125 186.692C162.038 186.413 161.854 186.19 161.599 186.055L69.8359 137.319C69.6764 137.231 69.5011 137.191 69.3337 137.191Z"
        fill="#090667" />
    <path
        d="M112.382 179.175C109.305 184.932 107.751 191.365 107.862 197.886L144.662 217.433C145.451 217.855 146.431 217.553 146.846 216.764L162.245 187.83C162.667 187.042 162.364 186.063 161.575 185.649L124.162 165.775C119.244 169.255 115.203 173.849 112.382 179.175Z"
        fill="#21056E" />
    <path
        d="M145.419 217.983C145.1 217.983 144.782 217.903 144.495 217.752L107.695 198.205C107.584 198.141 107.504 198.022 107.504 197.894C107.392 191.334 108.97 184.797 112.063 179.008C114.892 173.658 119.005 168.976 123.963 165.481C124.074 165.401 124.218 165.393 124.337 165.457L161.751 185.33C162.715 185.84 163.082 187.042 162.564 187.997L147.165 216.932C146.918 217.401 146.503 217.736 146.001 217.895C145.81 217.951 145.61 217.983 145.419 217.983ZM108.221 197.671L144.829 217.115C145.124 217.274 145.467 217.306 145.786 217.21C146.105 217.115 146.368 216.892 146.527 216.597L161.926 187.663C162.253 187.05 162.022 186.286 161.408 185.967L124.194 166.197C119.412 169.613 115.442 174.151 112.701 179.343C109.696 184.972 108.149 191.302 108.221 197.671Z"
        fill="#090667" />
    <path
        d="M148.273 198.404C151.702 191.964 149.261 183.969 142.821 180.548C136.381 177.127 128.381 179.575 124.952 186.016C121.524 192.457 123.965 200.452 130.405 203.873C136.844 207.294 144.845 204.845 148.273 198.404Z"
        fill="#CDB2C4" />
    <path
        d="M136.58 205.737C134.436 205.737 132.26 205.227 130.236 204.153C123.628 200.641 121.117 192.416 124.632 185.808C126.338 182.607 129.184 180.266 132.651 179.199C136.118 178.14 139.792 178.491 142.988 180.195C146.192 181.891 148.536 184.741 149.596 188.204C150.656 191.668 150.297 195.339 148.599 198.539C146.153 203.117 141.442 205.737 136.58 205.737ZM136.636 179.319C135.369 179.319 134.101 179.51 132.858 179.884C129.574 180.887 126.88 183.109 125.262 186.142C121.93 192.401 124.314 200.187 130.57 203.508C136.827 206.828 144.622 204.447 147.954 198.189C149.564 195.155 149.899 191.684 148.902 188.404C147.898 185.123 145.682 182.432 142.646 180.824C140.765 179.828 138.708 179.319 136.636 179.319Z"
        fill="#090667" />
    <path
        d="M145.726 197.051C148.404 192.02 146.496 185.773 141.463 183.1C136.43 180.426 130.178 182.338 127.5 187.369C124.821 192.401 126.73 198.647 131.763 201.321C136.796 203.994 143.047 202.083 145.726 197.051Z"
        fill="#EFF2F1" />
    <path
        d="M136.588 202.855C134.867 202.855 133.153 202.433 131.591 201.605C126.394 198.842 124.409 192.369 127.175 187.169C129.941 181.97 136.429 179.988 141.625 182.75C144.144 184.088 145.993 186.325 146.822 189.056C147.659 191.787 147.38 194.67 146.033 197.194C144.694 199.71 142.454 201.557 139.721 202.393C138.692 202.696 137.64 202.855 136.588 202.855ZM136.628 182.217C133.057 182.217 129.598 184.136 127.805 187.504C125.222 192.353 127.071 198.396 131.917 200.968C134.269 202.218 136.963 202.473 139.505 201.692C142.048 200.912 144.144 199.192 145.395 196.843C146.647 194.495 146.91 191.803 146.129 189.256C145.356 186.716 143.626 184.622 141.283 183.379C139.8 182.591 138.206 182.217 136.628 182.217Z"
        fill="#090667" />
    <path
        d="M139.904 186.341C139.848 186.341 139.792 186.325 139.736 186.302C139.561 186.206 139.497 185.991 139.585 185.816L141.139 182.894C141.235 182.719 141.45 182.655 141.625 182.743C141.801 182.838 141.865 183.053 141.777 183.228L140.223 186.15C140.151 186.278 140.031 186.341 139.904 186.341Z"
        fill="#090667" />
    <path
        d="M131.877 201.422C131.821 201.422 131.766 201.406 131.71 201.382C131.535 201.286 131.471 201.071 131.559 200.896L132.993 198.197C133.089 198.022 133.304 197.958 133.479 198.046C133.655 198.141 133.718 198.356 133.631 198.531L132.196 201.23C132.124 201.358 132.005 201.422 131.877 201.422Z"
        fill="#090667" />
    <path
        d="M145.722 197.369C145.666 197.369 145.61 197.353 145.555 197.329L142.637 195.776C142.462 195.681 142.398 195.466 142.486 195.291C142.582 195.116 142.797 195.052 142.972 195.139L145.889 196.692C146.065 196.788 146.128 197.003 146.041 197.178C145.977 197.305 145.849 197.369 145.722 197.369Z"
        fill="#090667" />
    <path
        d="M130.419 189.24C130.363 189.24 130.307 189.224 130.251 189.2L127.326 187.647C127.151 187.552 127.087 187.337 127.175 187.161C127.27 186.986 127.486 186.923 127.661 187.01L130.586 188.563C130.761 188.658 130.825 188.873 130.738 189.048C130.666 189.176 130.546 189.24 130.419 189.24Z"
        fill="#090667" />
    <path
        d="M143.259 190.314C143.092 190.314 142.94 190.195 142.909 190.02C142.877 189.821 143.004 189.638 143.196 189.598L146.495 188.993C146.687 188.961 146.878 189.088 146.918 189.279C146.95 189.478 146.822 189.662 146.631 189.701L143.331 190.306C143.307 190.314 143.283 190.314 143.259 190.314Z"
        fill="#090667" />
    <path
        d="M134.723 185.784C134.587 185.784 134.452 185.704 134.396 185.569L133.057 182.488C132.977 182.305 133.065 182.098 133.24 182.018C133.424 181.938 133.631 182.026 133.711 182.201L135.05 185.282C135.129 185.466 135.042 185.673 134.866 185.752C134.819 185.776 134.771 185.784 134.723 185.784Z"
        fill="#090667" />
    <path
        d="M139.824 202.361C139.688 202.361 139.553 202.281 139.497 202.146L138.158 199.073C138.078 198.89 138.158 198.683 138.341 198.603C138.525 198.523 138.732 198.603 138.812 198.786L140.151 201.859C140.23 202.043 140.151 202.25 139.967 202.329C139.928 202.353 139.872 202.361 139.824 202.361Z"
        fill="#090667" />
    <path
        d="M126.649 195.362C126.481 195.362 126.33 195.243 126.298 195.068C126.266 194.869 126.394 194.686 126.585 194.646L129.885 194.041C130.076 194.001 130.267 194.136 130.307 194.327C130.339 194.526 130.211 194.71 130.02 194.749L126.72 195.354C126.689 195.354 126.665 195.362 126.649 195.362Z"
        fill="#090667" />
    <path
        d="M65.1492 143.051L55.2499 161.643C55.226 164.852 55.8875 168.029 57.1787 170.967L82.0783 184.192C89.0126 182.934 94.9745 178.531 98.2264 172.28C101.47 166.022 101.638 158.625 98.6807 152.232L74.4188 139.349C71.0951 139.883 67.9308 141.149 65.1492 143.051Z"
        fill="#21056E" />
    <path
        d="M82.0784 184.55C82.0226 184.55 81.9588 184.534 81.911 184.51L57.0114 171.285C56.9397 171.245 56.8839 171.19 56.852 171.11C55.5289 168.108 54.8754 164.915 54.8993 161.635C54.8993 161.579 54.9152 161.524 54.9391 161.468L64.8384 142.876C64.8623 142.829 64.9021 142.781 64.95 142.749C67.7555 140.83 71.0075 139.524 74.363 138.983C74.4427 138.967 74.5224 138.983 74.5862 139.023L98.8481 151.905C98.9199 151.945 98.9757 152.001 99.0076 152.073C101.996 158.514 101.821 166.126 98.5453 172.44C95.2694 178.746 89.1402 183.268 82.1422 184.542C82.1183 184.55 82.0943 184.55 82.0784 184.55ZM57.4577 170.712L82.1342 183.817C88.8612 182.559 94.7514 178.188 97.8997 172.113C101.056 166.038 101.239 158.713 98.3938 152.495L74.3471 139.723C71.1669 140.257 68.0903 141.491 65.4202 143.298L55.6086 161.739C55.6086 164.844 56.2223 167.861 57.4577 170.712Z"
        fill="#090667" />
    <path
        d="M89.841 167.715C93.2689 161.273 90.8267 153.279 84.386 149.858C77.9454 146.438 69.9454 148.888 66.5174 155.329C63.0895 161.771 65.5317 169.765 71.9724 173.186C78.413 176.606 86.413 174.157 89.841 167.715Z"
        fill="#CDB2C4" />
    <path
        d="M78.141 175.091C75.997 175.091 73.8211 174.581 71.7966 173.506C65.1891 169.995 62.6784 161.77 66.1934 155.162C67.8991 151.961 70.7445 149.62 74.2116 148.553C77.6788 147.494 81.3531 147.845 84.5492 149.549C91.1567 153.06 93.6674 161.285 90.1525 167.893C87.7135 172.479 83.003 175.091 78.141 175.091ZM78.1968 148.681C76.9295 148.681 75.6623 148.872 74.4189 149.246C71.1351 150.249 68.441 152.471 66.823 155.504C63.4914 161.762 65.8746 169.549 72.1314 172.87C78.3881 176.19 86.1832 173.809 89.5149 167.551C92.8465 161.293 90.4633 153.506 84.2065 150.186C82.3255 149.19 80.2691 148.681 78.1968 148.681Z"
        fill="#090667" />
    <path
        d="M87.308 166.377C89.9871 161.346 88.0788 155.099 83.0458 152.425C78.0129 149.751 71.761 151.662 69.082 156.693C66.403 161.725 68.3112 167.972 73.3442 170.646C78.3772 173.32 84.629 171.409 87.308 166.377Z"
        fill="#EFF2F1" />
    <path
        d="M78.1488 172.209C76.459 172.209 74.7454 171.811 73.1513 170.959C67.9546 168.196 65.9699 161.723 68.7357 156.523C70.0747 154.007 72.3144 152.16 75.0482 151.324C77.7741 150.488 80.6674 150.767 83.1861 152.104C88.3828 154.867 90.3674 161.34 87.6017 166.54C85.6808 170.146 81.9746 172.209 78.1488 172.209ZM78.1886 151.563C77.2082 151.563 76.2199 151.706 75.2555 152.001C72.7129 152.781 70.6167 154.501 69.3653 156.85C66.7829 161.699 68.6321 167.742 73.4781 170.314C78.3321 172.893 84.3736 171.038 86.9561 166.189C89.5385 161.34 87.6894 155.297 82.8434 152.725C81.3927 151.961 79.7986 151.563 78.1886 151.563Z"
        fill="#090667" />
    <path
        d="M81.4643 155.695C81.4086 155.695 81.3528 155.679 81.297 155.655C81.1216 155.56 81.0579 155.345 81.1456 155.17L82.6998 152.248C82.7954 152.073 83.0106 152.009 83.186 152.096C83.3613 152.192 83.4251 152.407 83.3374 152.582L81.7832 155.504C81.7194 155.632 81.5919 155.695 81.4643 155.695Z"
        fill="#090667" />
    <path
        d="M73.4383 170.775C73.3825 170.775 73.3267 170.76 73.2709 170.736C73.0956 170.64 73.0318 170.425 73.1195 170.25L74.5541 167.551C74.6498 167.376 74.865 167.312 75.0403 167.4C75.2157 167.495 75.2794 167.71 75.1918 167.885L73.7571 170.584C73.6933 170.712 73.5658 170.775 73.4383 170.775Z"
        fill="#090667" />
    <path
        d="M87.2829 166.731C87.2271 166.731 87.1713 166.715 87.1155 166.691L84.1983 165.138C84.023 165.043 83.9592 164.828 84.0469 164.653C84.1425 164.477 84.3578 164.414 84.5331 164.501L87.4503 166.054C87.6256 166.149 87.6893 166.365 87.6017 166.54C87.5379 166.659 87.4105 166.731 87.2829 166.731Z"
        fill="#090667" />
    <path
        d="M71.9797 158.601C71.9239 158.601 71.8681 158.586 71.8123 158.562L68.8872 157.009C68.7118 156.914 68.648 156.699 68.7357 156.523C68.8234 156.348 69.0466 156.284 69.2219 156.372L72.1471 157.925C72.3224 158.02 72.3862 158.235 72.2985 158.41C72.2347 158.53 72.1072 158.601 71.9797 158.601Z"
        fill="#090667" />
    <path
        d="M84.8281 159.668C84.6607 159.668 84.5093 159.549 84.4774 159.374C84.4455 159.175 84.573 158.992 84.7643 158.952L88.0641 158.347C88.2553 158.307 88.4466 158.442 88.4865 158.633C88.5183 158.832 88.3908 159.015 88.1995 159.055L84.8998 159.66C84.8679 159.668 84.852 159.668 84.8281 159.668Z"
        fill="#090667" />
    <path
        d="M76.2839 155.138C76.1484 155.138 76.0129 155.058 75.9571 154.923L74.6181 151.85C74.5384 151.666 74.6181 151.459 74.8014 151.38C74.9847 151.3 75.192 151.38 75.2717 151.563L76.6107 154.636C76.6904 154.819 76.6107 155.026 76.4274 155.106C76.3875 155.13 76.3317 155.138 76.2839 155.138Z"
        fill="#090667" />
    <path
        d="M81.3927 171.715C81.2572 171.715 81.1217 171.635 81.0659 171.5L79.7269 168.427C79.6472 168.244 79.7269 168.037 79.9102 167.957C80.0936 167.877 80.3008 167.957 80.3805 168.14L81.7195 171.213C81.7992 171.397 81.7195 171.604 81.5362 171.683C81.4884 171.707 81.4406 171.715 81.3927 171.715Z"
        fill="#090667" />
    <path
        d="M68.2097 164.708C68.0423 164.708 67.8908 164.589 67.859 164.414C67.8271 164.215 67.9546 164.032 68.1459 163.992L71.4456 163.387C71.6369 163.355 71.8283 163.482 71.8681 163.673C71.9 163.872 71.7725 164.055 71.5812 164.095L68.2814 164.7C68.2575 164.708 68.2336 164.708 68.2097 164.708Z"
        fill="#090667" />
    <path
        d="M254.869 149.819C254.869 149.819 254.136 152.582 249.744 153.96C245.352 155.337 243.24 157.208 241.128 157.535C241.128 157.535 234.521 148.76 234.274 146.324C235.079 150.56 236.242 154.724 237.765 158.769C237.765 158.769 232.664 160.457 228.686 160.64C222.278 160.926 219.759 159.621 215.224 160.353C214.642 160.449 214.013 160.576 213.343 160.751C210.57 161.46 206.871 161.539 203.882 161.444C200.893 161.348 198.733 161.086 198.733 161.086C198.725 160.401 198.598 159.724 198.351 159.079C198.008 159.796 197.578 160.465 197.076 161.078C191.799 161.189 187.639 160.106 184.881 159.915C182.123 159.724 179.206 158.044 179.206 158.044C179.979 157.272 181.334 152.964 181.334 152.964L176.831 157.2C169.912 154.374 169.219 149.62 169.219 149.62C171.371 149.668 174.041 148.896 178.369 142.359C182.338 136.363 186.14 117.079 191.64 97.6039C194.39 87.8663 198.765 82.7148 202.448 79.9838C206.361 77.0617 211.534 76.4248 216.045 78.3038C218.62 79.3787 220.469 81.2259 223.011 84.769C228.83 92.9142 229.89 98.2409 234.234 112.955C238.681 128.027 244.141 150.305 254.869 149.819Z"
        fill="#CDB2C4" />
    <path
        d="M205.883 161.834C205.237 161.834 204.568 161.826 203.866 161.802C200.901 161.707 198.709 161.444 198.685 161.444C198.502 161.42 198.367 161.269 198.367 161.094C198.367 160.735 198.327 160.377 198.247 160.027C197.976 160.48 197.673 160.91 197.338 161.317C197.275 161.396 197.171 161.444 197.067 161.444C193.521 161.516 190.468 161.054 188.021 160.688C186.801 160.504 185.741 160.345 184.841 160.281C182.035 160.09 179.134 158.434 179.006 158.363C178.911 158.307 178.847 158.211 178.831 158.1C178.815 157.988 178.855 157.877 178.935 157.797C179.325 157.407 180.003 155.711 180.529 154.206L177.062 157.463C176.958 157.558 176.807 157.59 176.679 157.535C169.649 154.66 168.876 149.875 168.852 149.668C168.836 149.564 168.868 149.461 168.94 149.381C169.011 149.302 169.131 149.262 169.219 149.262C171.347 149.318 173.873 148.482 178.058 142.16C180.736 138.107 183.414 127.637 186.515 115.511C188.005 109.69 189.543 103.663 191.281 97.5084C193.584 89.3631 197.267 83.3757 202.224 79.6972C206.225 76.7114 211.566 76.0505 216.172 77.9694C218.699 79.0284 220.564 80.7561 223.29 84.562C228.423 91.7438 229.882 96.7758 233.086 107.787C233.54 109.348 234.026 111.028 234.568 112.851C234.943 114.117 235.325 115.431 235.716 116.777C239.988 131.538 245.312 149.899 254.861 149.469C254.981 149.461 255.084 149.517 255.156 149.604C255.228 149.692 255.251 149.811 255.22 149.923C255.188 150.042 254.383 152.893 249.856 154.318C247.616 155.019 245.958 155.863 244.619 156.539C243.304 157.208 242.268 157.734 241.184 157.901C241.056 157.917 240.921 157.869 240.841 157.765C240.65 157.511 237.326 153.092 235.357 149.668C236.083 152.717 236.999 155.727 238.107 158.649C238.139 158.737 238.139 158.84 238.091 158.928C238.051 159.015 237.972 159.087 237.876 159.111C237.669 159.183 232.687 160.823 228.702 160.998C225.665 161.133 223.497 160.918 221.584 160.719C219.464 160.504 217.639 160.321 215.28 160.703C214.706 160.791 214.084 160.926 213.431 161.094C211.518 161.587 208.983 161.834 205.883 161.834ZM199.084 160.759C199.777 160.831 201.603 161.006 203.89 161.078C207.788 161.197 211.032 160.966 213.247 160.393C213.917 160.218 214.562 160.082 215.16 159.995C217.607 159.597 219.48 159.788 221.648 160.003C223.537 160.194 225.681 160.409 228.662 160.273C231.946 160.122 236.067 158.912 237.286 158.53C235.867 154.7 234.76 150.735 233.978 146.722C233.947 146.587 233.923 146.459 233.907 146.348C233.891 146.157 234.026 145.982 234.21 145.958C234.393 145.926 234.576 146.053 234.616 146.244C234.64 146.364 234.664 146.491 234.688 146.611C235.286 148.816 239.462 154.708 241.271 157.128C242.172 156.945 243.113 156.468 244.276 155.878C245.639 155.186 247.329 154.334 249.624 153.609C252.709 152.638 253.904 150.974 254.311 150.178C244.555 149.939 239.263 131.682 234.999 116.96C234.608 115.614 234.226 114.3 233.851 113.034C233.309 111.211 232.823 109.523 232.368 107.963C229.196 97.0227 227.746 92.0384 222.684 84.9521C220.038 81.2657 218.261 79.6096 215.87 78.6064C211.502 76.783 206.425 77.4121 202.631 80.2466C197.801 83.8295 194.206 89.6896 191.95 97.6756C190.213 103.83 188.675 109.842 187.184 115.662C184.068 127.852 181.374 138.378 178.632 142.526C174.543 148.705 171.873 149.859 169.641 149.947C169.992 151.117 171.435 154.517 176.719 156.754L181.055 152.678C181.174 152.566 181.35 152.55 181.493 152.638C181.629 152.725 181.692 152.893 181.645 153.052C181.517 153.45 180.505 156.635 179.708 157.909C180.561 158.347 182.784 159.398 184.873 159.541C185.805 159.605 186.873 159.764 188.117 159.955C190.5 160.313 193.449 160.759 196.868 160.711C197.314 160.162 197.689 159.557 197.992 158.912C198.056 158.785 198.183 158.697 198.327 158.705C198.47 158.713 198.598 158.801 198.646 158.936C198.917 159.533 199.044 160.138 199.084 160.759Z"
        fill="#090667" />
    <path
        d="M203.851 159.804C203.827 159.804 203.803 159.804 203.779 159.796C203.588 159.756 203.46 159.565 203.5 159.374C205.843 147.59 204.361 131.817 204.345 131.658C204.329 131.459 204.472 131.284 204.671 131.268C204.863 131.244 205.046 131.395 205.062 131.594C205.078 131.753 206.568 147.63 204.201 159.517C204.169 159.684 204.018 159.804 203.851 159.804Z"
        fill="#090667" />
    <path
        d="M186.905 160.48C186.81 160.48 186.722 160.449 186.65 160.377C186.507 160.234 186.507 160.011 186.65 159.867C188.412 158.1 189.902 154.859 191.066 150.249C191.114 150.058 191.313 149.939 191.504 149.986C191.695 150.034 191.815 150.233 191.767 150.424C190.572 155.162 189.017 158.506 187.16 160.369C187.089 160.449 186.993 160.48 186.905 160.48Z"
        fill="#090667" />
    <path
        d="M192.174 147.255C192.15 147.255 192.126 147.255 192.102 147.247C191.911 147.208 191.775 147.025 191.815 146.826C192.485 143.33 192.716 140.559 192.716 140.527C192.732 140.328 192.915 140.185 193.106 140.201C193.306 140.217 193.449 140.392 193.433 140.591C193.433 140.623 193.194 143.426 192.525 146.961C192.493 147.136 192.341 147.255 192.174 147.255Z"
        fill="#090667" />
    <path
        d="M192.652 161.253C192.58 161.253 192.508 161.229 192.445 161.189C192.277 161.078 192.237 160.855 192.349 160.688C195.083 156.714 194.987 149.334 194.987 149.254C194.987 149.055 195.139 148.888 195.338 148.888C195.537 148.904 195.705 149.039 195.705 149.238C195.713 149.549 195.8 156.929 192.939 161.086C192.883 161.197 192.771 161.253 192.652 161.253Z"
        fill="#090667" />
    <path
        d="M171.57 154.127C171.403 154.127 171.259 154.015 171.219 153.848C171.171 153.657 171.299 153.466 171.49 153.418C171.53 153.41 175.579 152.431 178.863 146.802C178.967 146.626 179.182 146.571 179.357 146.674C179.532 146.778 179.588 146.993 179.485 147.168C176.033 153.092 171.825 154.087 171.65 154.127C171.626 154.119 171.594 154.127 171.57 154.127Z"
        fill="#090667" />
    <path
        d="M232.121 160.496C232.034 160.496 231.946 160.465 231.874 160.401C224.51 153.657 221.832 133.545 220.899 122.159C220.883 121.96 221.027 121.785 221.226 121.769C221.425 121.753 221.601 121.896 221.616 122.095C222.549 133.378 225.179 153.291 232.369 159.867C232.512 160.003 232.528 160.226 232.393 160.377C232.313 160.457 232.217 160.496 232.121 160.496Z"
        fill="#090667" />
    <path
        d="M221.106 120.622C220.923 120.622 220.764 120.479 220.748 120.288C220.509 116.984 220.445 114.842 220.445 114.818C220.437 114.619 220.596 114.452 220.795 114.452C221.011 114.436 221.162 114.603 221.17 114.802C221.17 114.826 221.234 116.952 221.473 120.24C221.489 120.439 221.337 120.606 221.138 120.622C221.122 120.622 221.114 120.622 221.106 120.622Z"
        fill="#090667" />
    <path
        d="M223.737 160.48C223.609 160.48 223.482 160.409 223.418 160.289C221.138 155.902 219.082 145.552 218.994 145.114C218.954 144.923 219.082 144.731 219.281 144.692C219.48 144.652 219.664 144.779 219.704 144.978C219.728 145.082 221.824 155.663 224.063 159.963C224.151 160.138 224.087 160.353 223.912 160.449C223.848 160.473 223.792 160.48 223.737 160.48Z"
        fill="#090667" />
    <path
        d="M227.961 141.73C227.826 141.73 227.698 141.658 227.642 141.531C226.088 138.418 225.514 130.599 225.49 130.272C225.474 130.073 225.626 129.906 225.825 129.89C226.024 129.866 226.192 130.026 226.208 130.225C226.216 130.304 226.789 138.226 228.28 141.212C228.368 141.387 228.296 141.602 228.12 141.698C228.065 141.722 228.009 141.73 227.961 141.73Z"
        fill="#090667" />
    <path
        d="M246.054 155.783C245.958 155.783 245.863 155.743 245.791 155.663C243.607 153.275 242.077 148.259 242.013 148.052C241.957 147.861 242.061 147.662 242.252 147.606C242.443 147.55 242.642 147.654 242.698 147.845C242.714 147.892 244.245 152.909 246.317 155.178C246.452 155.321 246.436 155.552 246.293 155.687C246.221 155.751 246.133 155.783 246.054 155.783Z"
        fill="#090667" />
    <path
        d="M218.117 89.7533C217.942 89.7533 217.782 89.6179 217.759 89.4428C216.356 78.5267 210.968 77.5952 210.912 77.5872C210.713 77.5554 210.577 77.3722 210.609 77.1811C210.641 76.9821 210.824 76.8467 211.016 76.8786C211.263 76.9104 216.993 77.842 218.476 89.3552C218.5 89.5542 218.364 89.7294 218.165 89.7612C218.149 89.7453 218.133 89.7533 218.117 89.7533Z"
        fill="#090667" />
    <path
        d="M203.89 84.148C203.85 84.148 203.811 84.14 203.779 84.132C203.587 84.0684 203.492 83.8613 203.555 83.6782C205.293 78.5427 208.816 77.0856 208.959 77.0219C209.143 76.9502 209.35 77.0378 209.43 77.221C209.501 77.4041 209.414 77.6111 209.23 77.6907C209.199 77.7066 205.867 79.108 204.233 83.9091C204.185 84.0524 204.042 84.148 203.89 84.148Z"
        fill="#090667" />
    <path
        d="M212.044 82.468C211.861 82.468 211.701 82.3247 211.685 82.1415C211.367 78.4073 210.083 77.6828 210.075 77.6748C209.9 77.5793 209.828 77.3643 209.924 77.1971C210.012 77.0219 210.219 76.9502 210.394 77.0299C210.562 77.1095 212.052 77.9375 212.411 82.0778C212.427 82.2769 212.283 82.4521 212.084 82.468C212.068 82.468 212.052 82.468 212.044 82.468Z"
        fill="#090667" />
    <path
        d="M216.683 248.748C213.925 254.592 205.516 254.592 204.807 252.156C204.098 249.72 203.245 247.283 201.619 246.224C201.332 246.033 201.069 245.81 200.83 245.555C199.929 244.52 199.554 243.135 199.809 241.789C200.184 239.751 200.846 237.776 201.762 235.913C201.762 236.057 201.531 239.202 202.567 241.033C203.603 242.864 204.361 244.441 206.393 243.39C208.425 242.331 209.238 244.361 210.458 242.331C211.677 240.3 212.897 238.35 215.256 239.249C217.488 240.093 218.062 237.601 218.118 237.299C218.293 242.697 217.982 245.993 216.683 248.748Z"
        fill="#21056E" />
    <path
        d="M208.409 254.051C208.17 254.051 207.947 254.043 207.716 254.027C205.962 253.892 204.743 253.231 204.456 252.259C203.802 250.022 202.974 247.546 201.411 246.527C201.092 246.32 200.806 246.081 200.559 245.802C199.578 244.672 199.172 243.191 199.451 241.726C199.833 239.656 200.503 237.649 201.435 235.754C201.507 235.603 201.674 235.523 201.842 235.563C202.001 235.603 202.121 235.746 202.121 235.913V236.001C202.025 238.055 202.304 239.823 202.886 240.85L203.029 241.105C204.089 242.992 204.671 243.867 206.233 243.055C207.254 242.522 208.043 242.697 208.617 242.816C209.278 242.96 209.613 243.031 210.155 242.132C211.35 240.133 212.705 237.88 215.383 238.899C215.925 239.106 216.372 239.098 216.746 238.891C217.36 238.549 217.679 237.681 217.767 237.219C217.799 237.036 217.966 236.924 218.149 236.932C218.333 236.948 218.476 237.1 218.484 237.283C218.675 243.095 218.277 246.24 217.017 248.899C215.304 252.506 211.502 254.051 208.409 254.051ZM201.403 237.601C200.853 238.971 200.439 240.396 200.168 241.853C199.929 243.095 200.272 244.361 201.108 245.317C201.316 245.539 201.555 245.746 201.818 245.922C203.579 247.068 204.464 249.688 205.157 252.052C205.349 252.705 206.377 253.199 207.78 253.31C210.737 253.541 214.682 252.164 216.364 248.589C217.448 246.296 217.862 243.581 217.799 238.899C217.615 239.138 217.384 239.361 217.097 239.52C216.531 239.839 215.87 239.855 215.128 239.576C213.16 238.827 212.124 240.253 210.769 242.506C209.964 243.852 209.198 243.684 208.457 243.525C207.915 243.406 207.357 243.286 206.56 243.7C204.313 244.871 203.34 243.135 202.4 241.463L202.256 241.208C201.674 240.181 201.459 238.796 201.403 237.601Z"
        fill="#090667" />
    <path
        d="M218.117 237.315C218.062 237.585 217.488 240.085 215.256 239.265C212.897 238.366 211.677 240.316 210.458 242.347C209.238 244.377 208.425 242.347 206.393 243.406C204.36 244.465 203.627 242.92 202.567 241.049C201.507 239.186 201.754 236.073 201.762 235.929C202.041 235.332 202.368 234.711 202.734 234.058C205.899 228.373 204.44 208.476 204.504 197.831C204.504 195.625 204.504 192.711 204.456 189.486C204.456 187.647 204.4 185.704 204.36 183.73C204.201 174.645 203.954 164.884 203.874 161.436C206.863 161.532 210.561 161.436 213.335 160.751C214.005 160.584 214.634 160.449 215.216 160.353C215.439 171.309 216.651 208.97 216.651 208.97C217.225 222.513 217.966 231.232 218.117 237.315Z"
        fill="#FDC226" />
    <path
        d="M205.189 244.114C203.882 244.114 203.165 242.832 202.408 241.495L202.256 241.224C201.212 239.377 201.363 236.471 201.403 235.913C201.403 235.866 201.419 235.818 201.435 235.778C201.738 235.141 202.073 234.504 202.424 233.883C204.807 229.607 204.512 216.788 204.273 206.485C204.201 203.317 204.129 200.315 204.145 197.831C204.145 195.673 204.145 192.719 204.097 189.486C204.097 188.212 204.073 186.915 204.042 185.545C204.026 184.94 204.018 184.335 204.002 183.73C203.858 175.616 203.643 166.922 203.547 162.75L203.515 161.436C203.515 161.34 203.555 161.245 203.619 161.173C203.691 161.102 203.786 161.062 203.882 161.07C206.552 161.157 210.346 161.11 213.239 160.393C213.909 160.218 214.555 160.09 215.152 159.995C215.256 159.979 215.36 160.011 215.439 160.074C215.519 160.138 215.567 160.242 215.567 160.345C215.782 171.174 216.986 208.579 217.001 208.954C217.296 215.952 217.639 221.741 217.918 226.399C218.181 230.849 218.396 234.369 218.468 237.307C218.468 237.339 218.468 237.362 218.46 237.394C218.38 237.761 218.046 239.011 217.065 239.544C216.507 239.855 215.854 239.87 215.12 239.6C213.152 238.851 212.116 240.277 210.761 242.53C209.956 243.875 209.19 243.708 208.449 243.549C207.907 243.43 207.341 243.31 206.552 243.724C206.042 243.995 205.588 244.114 205.189 244.114ZM202.121 236.025C202.089 236.566 201.969 239.257 202.886 240.874L203.037 241.144C204.097 243.023 204.679 243.899 206.233 243.087C207.254 242.554 208.043 242.721 208.617 242.848C209.286 242.992 209.613 243.063 210.155 242.164C211.35 240.165 212.713 237.912 215.383 238.931C215.917 239.13 216.356 239.122 216.73 238.915C217.424 238.533 217.695 237.561 217.759 237.283C217.687 234.369 217.48 230.865 217.209 226.446C216.93 221.789 216.587 216 216.292 208.986C216.276 208.611 215.104 172.129 214.865 160.783C214.411 160.871 213.925 160.974 213.423 161.102C210.585 161.802 206.935 161.882 204.241 161.81L204.265 162.742C204.368 166.914 204.576 175.608 204.719 183.73C204.727 184.343 204.743 184.948 204.759 185.545C204.791 186.923 204.815 188.22 204.815 189.494C204.862 192.719 204.862 195.681 204.862 197.839C204.847 200.315 204.918 203.309 204.99 206.47C205.229 216.86 205.524 229.79 203.053 234.233C202.718 234.83 202.408 235.428 202.121 236.025Z"
        fill="#090667" />
    <path
        d="M212.873 182.392C212.49 184.454 211.669 185.147 208.202 185.975C207.047 186.246 205.851 186.31 204.679 186.158C204.353 186.142 204.026 186.103 203.707 186.039C203.277 185.911 202.918 185.609 202.735 185.195C202.416 184.295 203.157 182.854 204.361 183.013C205.269 183.348 206.616 182.687 207.772 182.559C208.936 182.432 210.211 182.336 210.896 181.325C211.08 181.047 211.303 180.696 211.646 180.704C212.036 180.752 212.395 180.959 212.626 181.277C212.857 181.604 212.953 182.002 212.873 182.392Z"
        fill="#36BAB7" />
    <path
        d="M205.939 186.596C205.508 186.596 205.07 186.572 204.639 186.517C204.321 186.501 203.978 186.461 203.643 186.389C203.077 186.23 202.639 185.848 202.408 185.338C202.176 184.701 202.344 183.897 202.806 183.324C203.221 182.814 203.802 182.575 204.416 182.655C204.44 182.655 204.464 182.663 204.488 182.671C204.966 182.846 205.668 182.663 206.409 182.472C206.847 182.36 207.301 182.241 207.74 182.193L207.883 182.177C208.943 182.066 210.043 181.946 210.601 181.11C210.808 180.784 211.127 180.322 211.653 180.33C212.179 180.394 212.626 180.656 212.921 181.055C213.216 181.453 213.327 181.962 213.231 182.448C212.809 184.709 211.837 185.466 208.29 186.31C207.517 186.509 206.728 186.596 205.939 186.596ZM204.169 183.364C203.787 183.364 203.523 183.586 203.364 183.786C203.061 184.16 202.942 184.701 203.069 185.075C203.197 185.362 203.476 185.601 203.802 185.696C204.081 185.752 204.392 185.792 204.695 185.808C205.859 185.959 207.007 185.895 208.122 185.633C211.558 184.813 212.179 184.16 212.522 182.336C212.578 182.05 212.506 181.739 212.339 181.508C212.163 181.27 211.892 181.11 211.606 181.078C211.502 181.078 211.335 181.333 211.215 181.524C210.45 182.655 209.127 182.798 207.963 182.926L207.82 182.942C207.429 182.981 207.007 183.093 206.592 183.204C205.795 183.411 204.966 183.618 204.289 183.395C204.241 183.364 204.201 183.364 204.169 183.364Z"
        fill="#090667" />
    <path
        d="M216.356 192.838C215.32 192.886 214.499 192.217 214.116 192.01C212.897 191.365 212.124 190.84 210.769 191.079C210.131 191.23 209.478 191.31 208.816 191.326C208.154 191.342 207.533 191.047 207.11 190.545C206.704 190.012 206.791 189.248 207.302 188.818C207.891 188.419 208.768 188.722 209.334 188.252C210.051 187.798 210.976 187.822 211.669 188.316C212.076 188.515 212.514 188.642 212.961 188.698C213.303 188.77 213.654 188.802 214.013 188.794C214.674 188.841 215.336 188.889 215.934 188.913C216.484 188.921 217.002 189.176 217.352 189.598C217.703 190.028 217.839 190.585 217.735 191.127C217.631 192.448 216.85 192.838 216.356 192.838Z"
        fill="#36BAB7" />
    <path
        d="M216.253 193.205C215.36 193.205 214.635 192.751 214.188 192.472C214.093 192.416 214.013 192.361 213.949 192.329L213.598 192.146C212.594 191.604 211.933 191.246 210.833 191.437C210.187 191.588 209.51 191.676 208.824 191.692C208.051 191.7 207.326 191.373 206.832 190.784C206.298 190.084 206.409 189.104 207.071 188.547C207.461 188.284 207.876 188.244 208.242 188.212C208.593 188.181 208.896 188.157 209.103 187.982C209.98 187.432 211.04 187.448 211.853 188.013C212.22 188.189 212.61 188.3 213.009 188.356C213.351 188.419 213.67 188.459 214.005 188.451L214.603 188.491C215.065 188.523 215.527 188.555 215.942 188.571C216.587 188.579 217.209 188.881 217.623 189.391C218.038 189.9 218.205 190.561 218.078 191.214C217.974 192.568 217.113 193.205 216.356 193.213C216.324 193.205 216.292 193.205 216.253 193.205ZM211.415 190.665C212.379 190.665 213.088 191.047 213.949 191.509L214.292 191.692C214.372 191.732 214.467 191.795 214.571 191.859C214.985 192.122 215.615 192.512 216.34 192.48C216.348 192.48 216.348 192.48 216.356 192.48C216.691 192.48 217.289 192.193 217.376 191.103C217.464 190.625 217.352 190.179 217.074 189.829C216.795 189.486 216.38 189.279 215.934 189.271C215.495 189.255 215.033 189.224 214.563 189.192L213.997 189.152C213.646 189.16 213.272 189.12 212.905 189.048C212.443 188.985 211.972 188.849 211.534 188.634C211.518 188.626 211.502 188.619 211.486 188.603C210.912 188.197 210.147 188.173 209.549 188.547C209.207 188.833 208.736 188.881 208.33 188.913C208.019 188.945 207.732 188.969 207.525 189.104C207.182 189.391 207.126 189.932 207.413 190.314C207.756 190.728 208.274 190.967 208.824 190.951C209.454 190.935 210.083 190.856 210.697 190.713C210.952 190.689 211.191 190.665 211.415 190.665Z"
        fill="#090667" />
    <path
        d="M212.992 170.895C212.801 170.895 212.642 170.752 212.634 170.561C212.45 167.543 212.291 161.165 212.283 161.102C212.275 160.902 212.434 160.735 212.634 160.735C212.833 160.743 213 160.887 213 161.086C213 161.149 213.16 167.511 213.343 170.521C213.351 170.72 213.207 170.887 213.008 170.903C213.008 170.895 213 170.895 212.992 170.895Z"
        fill="#090667" />
    <path
        d="M210.697 166.659C210.522 166.659 210.37 166.532 210.338 166.357C210.147 165.091 210.33 161.237 210.338 161.07C210.346 160.871 210.522 160.719 210.713 160.727C210.912 160.735 211.064 160.903 211.056 161.102C211.056 161.141 210.872 165.051 211.056 166.245C211.088 166.444 210.952 166.627 210.753 166.651C210.729 166.659 210.713 166.659 210.697 166.659Z"
        fill="#090667" />
    <path
        d="M214.395 239.401C214.371 239.401 214.355 239.401 214.331 239.393C214.132 239.361 214.005 239.17 214.037 238.979C214.873 234.074 214.188 219.782 213.853 213.858C213.845 213.659 213.997 213.492 214.196 213.476C214.379 213.468 214.563 213.619 214.579 213.819C214.993 221.199 215.575 234.297 214.746 239.098C214.714 239.273 214.563 239.401 214.395 239.401Z"
        fill="#090667" />
    <path
        d="M214.14 212.576C213.949 212.576 213.789 212.433 213.781 212.242C213.63 209.71 213.51 208.07 213.51 208.07C213.495 207.871 213.646 207.704 213.845 207.688C214.044 207.672 214.22 207.823 214.228 208.022C214.228 208.022 214.347 209.662 214.499 212.202C214.507 212.401 214.355 212.568 214.164 212.584C214.148 212.576 214.148 212.576 214.14 212.576Z"
        fill="#090667" />
    <path
        d="M209.198 240.635C209.167 240.635 209.135 240.635 209.111 240.627C208.919 240.579 208.8 240.38 208.848 240.189C211.231 230.905 210.442 215.013 210.434 214.854C210.426 214.655 210.577 214.487 210.777 214.479C210.96 214.479 211.143 214.623 211.151 214.822C211.159 214.981 211.948 230.985 209.541 240.38C209.509 240.523 209.358 240.635 209.198 240.635Z"
        fill="#090667" />
    <path
        d="M204.217 243.238C204.185 243.238 204.153 243.238 204.121 243.223C203.93 243.167 203.818 242.976 203.866 242.785C204.727 239.6 206.584 229.663 206.6 229.56C206.64 229.361 206.823 229.233 207.023 229.273C207.222 229.313 207.349 229.496 207.31 229.695C207.294 229.798 205.429 239.759 204.56 242.976C204.52 243.135 204.376 243.238 204.217 243.238Z"
        fill="#090667" />
    <path
        d="M206.074 112.7C227.849 124.627 245.504 142.829 256.734 164.939L285.842 222.004C286.815 223.907 286.049 226.247 284.137 227.219C282.224 228.19 279.88 227.434 278.908 225.531L249.744 168.347C231.03 130.806 193.521 106.211 151.509 103.942C109.497 101.673 69.4452 122.055 46.594 157.343C23.7428 192.631 21.6147 237.394 41.0147 274.593L70.1785 331.777C71.1509 333.68 70.3857 336.021 68.4728 336.992C66.5599 337.963 64.2166 337.207 63.2442 335.304L34.1362 278.24C3.06751 217.33 27.4251 142.725 88.5583 111.569L89.722 110.98C124.186 93.4079 164.851 92.8426 199.714 109.459"
        fill="#00AFEA" />
    <path
        d="M66.7032 337.78C66.2648 337.78 65.8184 337.709 65.388 337.573C64.312 337.223 63.4353 336.474 62.9172 335.471L33.8092 278.407C18.7371 248.86 16.1148 215.204 26.4206 183.634C36.7264 152.065 58.7327 126.355 88.3827 111.251L89.5464 110.662C106.507 102.015 125.525 97.3013 144.55 97.0386C163.568 96.7758 182.705 100.956 199.857 109.133C200.032 109.221 200.112 109.436 200.024 109.611C199.937 109.786 199.73 109.866 199.546 109.778C165.01 93.3203 124.011 93.8856 89.8732 111.299L88.7095 111.888C27.8792 142.9 3.53753 217.449 34.4548 278.073L63.5628 335.137C63.9932 335.973 64.7185 336.594 65.6112 336.881C66.5119 337.167 67.4603 337.096 68.3052 336.666C69.1421 336.236 69.7717 335.511 70.0587 334.619C70.3536 333.728 70.2739 332.772 69.8514 331.936L40.6877 274.752C21.2717 237.53 23.4158 192.464 46.2829 157.144C69.1501 121.825 109.472 101.306 151.524 103.575C193.568 105.853 231.324 130.607 250.063 168.18L279.227 225.364C279.657 226.2 280.382 226.821 281.275 227.107C282.168 227.394 283.124 227.322 283.969 226.892C284.806 226.462 285.436 225.738 285.722 224.846C286.017 223.954 285.938 222.999 285.515 222.163L256.407 165.099C245.169 142.964 227.706 124.954 205.899 113.011C205.723 112.915 205.66 112.7 205.755 112.525C205.851 112.35 206.066 112.286 206.241 112.382C228.176 124.388 245.743 142.51 257.045 164.772L286.153 221.836C286.671 222.848 286.759 223.994 286.408 225.069C286.057 226.144 285.308 227.02 284.296 227.537C283.283 228.055 282.136 228.142 281.052 227.792C279.976 227.442 279.099 226.693 278.581 225.69L249.417 168.506C230.798 131.164 193.273 106.553 151.485 104.292C109.696 102.031 69.6203 122.43 46.8886 157.527C24.157 192.631 22.0289 237.418 41.3253 274.41L70.497 331.594C71.0071 332.605 71.1028 333.751 70.7521 334.826C70.4014 335.901 69.6522 336.777 68.64 337.295C68.0262 337.621 67.3647 337.78 66.7032 337.78Z"
        fill="#090667" />
</svg>
    