<svg width="336" height="385" viewBox="0 0 336 385" fill="none" xmlns="http://www.w3.org/2000/svg">
    <path fill-rule="evenodd" clip-rule="evenodd"
        d="M288.392 382.622C288.368 382.653 288.348 382.685 288.329 382.719L288.622 382.622H288.392ZM222.659 1.67364C220.706 2.8413 225.593 1.05478 222.659 1.67364V1.67364ZM202.793 0.116765L202.918 0L202.621 0.0973047L202.793 0.116765ZM135.85 365.597H136.147L135.877 365.558C135.867 365.57 135.858 365.583 135.85 365.597ZM66.531 360.07H66.9217H66.9022H66.531Z"
        fill="#4467EE" />
    <path fill-rule="evenodd" clip-rule="evenodd"
        d="M14.297 215.51C14.3868 216.145 15.7503 217.231 16.477 217.955C18.2937 219.765 18.2937 218.585 20.29 219.512C22.5599 220.508 24.5602 222.318 26.6464 223.583C29.6469 225.482 28.0998 223.766 30.3736 224.217C31.9167 224.49 32.0965 225.774 34.0069 225.482C37.0933 225.031 35.9134 225.482 38.4568 225.938C40.0898 226.206 41.9964 225.665 43.4497 226.206C48.173 227.024 51.0797 224.758 55.8929 225.214C68.1564 226.117 62.7064 223.855 68.5198 223.583C71.5163 223.404 71.2545 222.859 73.876 221.862C77.0562 220.695 82.053 218.605 84.9597 218.064C86.7763 217.702 86.0497 217.791 87.2295 216.795C88.0461 216.059 94.0469 214.502 95.4026 214.152C97.8561 213.522 99.5829 213.522 101.853 213.16C103.486 212.887 103.025 212.525 104.197 211.801C104.924 211.35 105.369 211.712 106.287 211.618C107.014 211.529 111.464 210.451 112.464 210.17C115.198 209.446 119.183 211.256 124.454 208.722C128.267 206.913 127.63 208.633 130.263 207.819C131.353 207.547 131.826 206.823 132.807 206.551C133.979 206.189 134.717 206.461 135.807 205.827C137.893 204.562 137.987 204.017 140.983 204.11C144.07 204.2 144.433 204.2 147.43 205.013C150.336 205.737 150.973 204.562 153.88 204.651C156.966 204.741 156.876 206.099 159.42 206.551C161.783 206.913 161.236 205.558 165.053 206.551C168.593 207.457 170.683 206.734 174.039 206.01C178.399 205.013 182.759 206.644 183.212 206.644C185.029 206.734 186.572 205.196 189.205 205.648C190.569 205.92 190.569 206.461 191.749 206.734C192.475 206.913 196.382 206.913 198.109 207.275C199.199 207.547 199.473 208.092 200.652 208.092C201.922 208.181 202.375 207.909 203.829 208.181C204.739 208.36 205.919 208.905 206.829 208.905C208.001 208.905 208.462 208.36 209.826 208.271C210.826 208.271 212.095 208.454 213.185 208.543C216.909 208.633 216.366 207.999 219.436 207.458C222.617 206.913 223.253 207.73 225.613 207.547C227.97 207.306 230.346 207.336 232.696 207.637C235.239 207.73 237.33 208.181 239.873 207.819C240.873 207.637 244.596 206.01 245.323 205.375C245.233 204.11 244.87 204.021 244.87 202.651C244.87 201.654 245.776 197.945 244.323 194.866C243.596 193.309 243.151 191.974 242.506 190.616C241.779 188.896 240.779 188.623 239.873 187.175L235.474 179.496C234.564 177.507 231.024 173.615 231.93 171.626C230.204 171.533 229.297 171.264 228.481 169.816C226.844 165.472 225.117 164.476 222.757 160.946C221.851 159.591 221.124 157.871 220.022 156.244L213.846 147.646C213.025 146.739 213.119 146.198 212.482 145.291C212.029 144.661 211.31 143.937 210.755 143.303C204.852 136.336 206.669 134.253 205.942 133.261C202.399 131.089 203.762 133.078 201.039 129.096L195.96 120.409C194.144 117.968 193.597 118.782 192.507 114.89C191.964 112.901 191.417 113.531 190.944 112.083C190.038 109.549 186.404 102.314 185.041 99.7801C183.951 97.7873 183.314 94.2609 182.497 93.1634C180.954 90.9915 176.504 83.8416 175.856 81.5802C173.949 73.7063 175.582 77.0536 175.582 73.8892C175.582 73.0758 171.043 65.9258 169.589 61.9441C169.136 60.6791 169.042 59.6088 168.417 58.4139C167.96 57.4214 167.245 56.604 166.78 55.6894C165.874 53.79 165.237 51.3457 164.147 49.1738C163.057 47.002 158.881 39.7625 157.064 38.6649L155.501 34.8661C154.868 34.0527 153.868 33.9593 153.157 32.5308C152.341 30.8144 152.52 30.9739 151.251 29.3665C150.797 28.8216 149.614 27.4632 149.071 26.9222C145.347 27.8252 146.437 29.5455 144.621 31.5383C143.621 32.6242 142.71 32.3518 141.886 33.1653C140.89 34.1617 141.433 35.1581 140.714 36.423C139.714 36.9679 138.987 36.8745 138.171 37.5907C137.354 38.3068 137.628 38.6766 136.354 39.4901C132.631 41.8254 127.368 45.6436 125.274 49.6098C123.547 52.957 123.094 50.8786 121.457 53.2295C121.277 53.5019 118.281 57.0322 118.191 57.1217C113.112 60.9205 114.374 61.4654 111.014 64.0887C109.108 65.6261 110.198 66.533 107.834 68.3429C106.662 69.2458 104.021 70.4213 103.474 71.0674C102.568 72.0638 103.021 72.2351 101.751 73.0602C100.661 73.6907 100.661 73.2392 99.7509 74.4147C97.5709 77.3105 97.5709 75.4111 94.8478 76.676C94.0313 77.038 93.3945 77.5829 92.4842 78.0344C91.5778 78.3964 90.5777 78.4859 89.5775 78.9413C86.581 80.109 87.9445 81.1131 86.4013 82.7401C84.1275 85.1844 82.4945 81.5724 77.3179 87.1733C75.2278 89.5086 74.8644 87.8972 72.5047 89.7966C69.5082 92.1514 70.9615 91.155 70.2349 94.5957C69.6879 97.0361 65.9647 100.566 64.4215 102.828C61.5148 107.261 62.1477 106.992 61.1515 110.702C60.7882 111.967 60.5147 111.967 60.0615 112.873C59.5145 114.041 59.788 114.773 59.4247 115.948C59.0613 117.034 58.698 117.217 58.155 118.12C57.3345 119.657 56.9829 121.288 55.975 123.005C55.428 123.912 54.8029 124.363 54.4122 125.177C53.416 127.531 55.1389 126.535 50.7789 132.327C49.8725 133.592 50.3257 133.774 49.9624 135.222C49.599 136.487 49.2357 136.308 48.5989 137.305C48.0558 138.118 47.966 138.842 47.3292 139.745C42.9691 146.171 46.1571 143.91 41.6057 144.361C39.9726 144.54 39.3358 147.347 39.0623 148.794C38.1559 153.138 38.9725 150.515 36.6128 153.5C35.4407 154.948 34.7961 155.761 33.4326 157.209C30.0727 157.661 27.2559 161.736 26.3495 164.811C25.6229 167.255 22.3528 171.326 21.6262 174.584C20.2895 175.518 19.1986 176.76 18.446 178.204C17.9928 179.741 17.903 178.928 17.6295 180.644C17.356 182.361 17.903 181.812 16.7192 183.178C14.9963 185.171 16.1762 185.805 14.3751 187.522C12.1053 189.694 13.2851 189.514 12.1951 192.048C11.195 194.31 10.1987 193.675 10.0151 199.288C10.0599 200.23 9.96776 201.174 9.74163 202.09C9.47206 203.449 9.01496 203.647 8.9251 204.445C8.83525 204.986 9.10872 206.617 9.10872 207.43C9.10872 210.688 8.01872 209.513 9.83539 212.77C10.4683 214.035 10.2886 214.125 11.4684 214.58C12.1951 214.759 13.5586 215.211 14.2853 215.483L14.297 215.51Z"
        fill="#5E598E" />
    <path fill-rule="evenodd" clip-rule="evenodd"
        d="M15.9966 273.411C14.2307 274.703 14.3479 275.641 14.2307 277.4L10.109 288.548C8.81194 291.833 9.8746 292.654 9.75348 295.943C4.80745 301.571 6.33892 305.673 3.27988 308.962C4.92856 310.842 7.28047 311.897 9.75348 312.952C10.5778 314.945 10.8161 315.649 13.2892 316.003C16.231 317.171 20.0011 321.164 21.2942 321.986C25.1815 324.449 25.0643 321.048 30.4792 326.209C35.0736 330.665 36.6051 338.664 43.6686 339.831C44.3757 340.999 44.9657 341.24 45.79 342.999C46.376 344.408 46.8488 345.701 47.9075 347.106C48.9663 348.511 49.6734 348.986 51.2049 349.686C54.8577 351.449 71.4617 365.524 75.3451 367.049C81.9398 369.63 78.6425 366.345 81.7054 372.331C83.4713 375.733 85.5927 375.616 87.8274 378.313C89.3589 380.073 91.1248 383.591 92.6562 385C96.6607 384.179 108.674 377.142 112.323 374.324C122.567 366.345 117.504 365.878 137.049 353.442C142.82 349.686 156.126 337.722 160.838 332.814C164.96 328.474 166.491 329.412 170.14 326.715C172.027 325.306 174.379 321.083 176.852 318.619C184.275 311.224 176.501 314.279 190.397 302.661C203.938 291.397 197.109 296.324 205.704 287.761C210.65 282.834 217.362 280.366 222.425 274.855C225.015 272.158 227.137 269.223 230.551 267.46C236.802 264.408 234.2 265.125 238.56 260.773C245.034 254.203 247.507 252.677 255.043 247.633C272.12 236.019 262.228 241.063 271.061 233.555C275.535 229.686 282.481 222.879 286.841 219.831C289.9 217.718 293.432 216.192 296.143 213.604C300.499 209.614 300.499 210.552 305.445 208.209C308.508 206.8 309.684 203.515 312.868 200.814C320.404 194.477 326.409 196.941 330.058 187.907C332.293 182.275 332.766 181.808 329.937 176.06C326.64 169.49 324.049 162.098 320.869 155.295C316.986 151.539 313.099 148.958 308.758 145.673C308.168 143.797 308.051 141.921 307.586 140.746C306.762 138.636 306.883 140.041 305.469 137.698C303.586 134.53 303.937 132.887 300.995 130.891C298.651 129.248 289.923 123.032 287.216 121.857C281.328 119.393 284.743 124.321 274.382 112.356C271.319 108.853 271.319 109.892 268.131 107.195C264.127 103.91 265.893 104.26 259.771 103.673L251.644 91.4745C251.41 91.1203 246.816 87.3682 245.874 86.547L235.865 75.7345C234.693 74.2087 234.333 74.3255 233.157 73.0333C230.567 70.5734 233.392 71.9785 230.094 70.698C224.09 68.3627 223.148 64.4705 219.155 60.1385C211.029 59.434 211.385 61.1933 205.849 66.5917C202.551 69.76 197.254 72.2237 195.015 75.859C192.425 80.0821 187.951 82.5458 183.83 85.0096L172.496 93.802C167.316 98.025 159.072 102.131 153.302 104.829L136.346 118.202C132.225 120.899 134.225 118.436 130.81 122.659C129.638 124.184 126.099 125.827 124.216 126.298C118.918 127.586 114.323 128.407 111.616 133.693C109.967 136.741 108.553 136.624 107.022 139.321C104.787 143.194 105.139 141.318 100.771 143.077C92.6445 146.362 87.8157 155.863 76.6305 159.269C73.5675 160.207 72.7432 160.911 70.8601 163.492C68.6215 166.539 68.1526 165.955 65.3241 168.065C60.8508 171.467 58.7294 174.635 52.959 176.044C49.9 176.748 48.7201 177.212 46.0127 178.975C36.945 184.84 39.6524 184.373 33.1788 186.37C31.1746 186.958 28.35 188.25 26.3458 189.071C18.3407 190.239 17.9852 194.582 16.5787 195.875C14.6917 197.751 13.8674 196.929 11.7499 199.276C10.1012 201.152 10.4528 201.974 8.45251 204.087C6.80384 205.73 1.38507 210.774 0.681844 212.3C-1.66225 217.578 2.79934 219.337 2.68214 225.436C2.68214 227.9 3.38927 227.9 3.85418 231.301C4.91684 238.813 2.68214 235.879 5.62007 243.974C7.15154 248.197 5.50286 246.201 8.09308 250.202C9.62456 252.537 9.50735 253.724 10.4372 255.951C11.2839 257.744 12.2687 259.47 13.3829 261.112C18.0711 268.269 14.6761 264.163 15.6176 269.674C15.6176 272.255 16.2076 269.204 15.9731 273.427L15.9966 273.411Z"
        fill="#FF6F44" />
    <path
        d="M185.709 273.847C185.256 273.302 185.799 272.037 184.439 272.127C184.166 272.127 183.439 272.216 183.713 272.578C184.166 273.302 184.256 274.209 185.072 274.571C185.346 274.75 185.799 274.477 185.709 273.847Z"
        fill="#21201D" />
    <path
        d="M175.629 277.284C177.899 276.649 180.622 276.649 180.895 273.212C179.805 273.485 178.895 273.847 177.899 274.026C175.899 274.209 175.172 275.221 175.629 277.284Z"
        fill="#21201D" />
    <path
        d="M176.809 278.097C176.083 278.187 175.356 278.28 175.247 279.366C174.883 281.806 175.426 284.072 176.153 286.605C177.468 285.271 178.654 283.817 179.696 282.262C180.693 280.705 180.15 279.093 179.696 277.646C179.442 276.922 177.805 277.918 176.809 278.097Z"
        fill="#21201D" />
    <path
        d="M178.079 299.001C178.079 298.908 178.168 298.819 178.261 298.73C178.168 298.819 178.168 298.908 178.079 299.001Z"
        fill="#21201D" />
    <path d="M254.918 142.107C255.008 142.018 255.008 142.018 254.918 141.929V142.107Z"
        fill="#21201D" />
    <path
        d="M129.032 88.17C128.579 88.5281 128.306 87.9871 128.036 87.7147C126.864 86.0877 125.762 84.4569 124.493 82.7404C123.766 83.9081 124.129 84.9123 124.309 85.9982C124.403 86.3602 124.493 86.8117 124.039 86.9907C123.586 87.1697 123.403 86.7221 123.313 86.3602C122.313 84.0949 123.492 80.8372 125.657 79.6617C126.02 79.4827 126.473 79.1207 126.829 79.5722C127.184 80.0237 126.649 80.3857 126.286 80.5686C125.012 81.1991 124.922 81.8336 125.833 82.9039C126.923 84.2623 127.829 85.7102 128.829 87.1581C129.122 87.3527 129.486 87.8081 129.032 88.17ZM142.292 76.8554C141.929 76.8554 141.296 76.8554 141.296 76.3144C141.296 75.5905 142.023 75.8629 142.468 75.8629C142.913 75.8629 143.468 75.9525 144.031 75.9525C146.031 75.8629 148.117 75.68 150.207 74.8665C150.571 74.6875 151.118 74.5046 151.297 75.0495C151.477 75.5944 150.934 75.7734 150.571 75.8629C147.925 76.8254 145.092 77.1651 142.292 76.8554Z"
        fill="#21201D" />
    <path
        d="M77.3533 43.6354C79.0172 42.5293 80.8713 41.7377 82.8228 41.3001C85.5588 40.7097 88.3989 40.8033 91.0897 41.5726C91.453 41.6621 91.996 41.9346 92.1797 41.3001C92.3594 40.7591 91.7226 40.6657 91.3592 40.4867C89.6363 40.0352 87.9994 39.6732 86.1827 39.7627C82.8051 39.7048 79.4967 40.719 76.736 42.6585C76.3727 42.9271 75.9195 43.1995 76.3727 43.651C76.6266 44.192 76.9899 43.9196 77.3533 43.6354Z"
        fill="#21201D" />
    <path
        d="M167.104 165.352C168.194 167.072 170.011 167.886 171.464 167.524C173.101 167.072 174.008 165.442 174.008 163.27C174.008 161.37 173.191 159.471 171.828 158.385C169.558 156.486 166.831 157.389 166.198 160.284C165.98 161.145 165.947 162.042 166.104 162.915C166.26 163.789 166.601 164.62 167.104 165.352Z"
        fill="#21201D" />
    <path
        d="M120.77 256.021C125.762 256.562 129.032 252.852 133.392 251.677C128.126 250.229 124.309 252.852 120.77 256.021Z"
        fill="#21201D" />
    <path
        d="M104.595 212.946C105.052 212.946 105.052 212.49 105.142 212.039C104.416 207.878 103.689 203.807 102.962 199.642C102.872 199.28 102.783 198.829 102.236 198.918C101.689 199.008 101.872 199.553 101.962 199.825L104.142 212.039C104.146 212.494 104.146 213.039 104.595 212.946Z"
        fill="#21201D" />
    <path
        d="M134.393 287.508C134.666 288.505 135.119 288.773 136.12 288.505C138.206 287.87 140.386 287.146 142.566 286.695C144.566 286.333 144.93 285.336 144.293 283.437C141.386 284.251 138.389 285.157 135.393 285.881C134.393 286.15 134.029 286.422 134.393 287.508Z"
        fill="#21201D" />
    <path
        d="M131.85 287.329C130.76 287.87 129.76 288.415 128.759 288.956C128.745 289.084 128.779 289.213 128.853 289.318C130.025 289.229 131.303 289.229 132.487 289.046C132.94 288.956 133.659 289.318 133.659 288.594C133.663 288.042 133.506 287.501 133.205 287.037C132.756 286.508 132.213 287.057 131.85 287.329Z"
        fill="#21201D" />
    <path
        d="M193.429 272.305C194.066 272.305 194.245 271.854 193.976 271.402C193.613 270.858 194.066 269.772 192.976 269.682C192.429 269.682 191.976 270.044 192.339 270.679C192.612 271.22 192.339 272.216 193.429 272.305Z"
        fill="#21201D" />
    <path
        d="M188.069 273.847C189.342 273.391 190.706 273.302 191.796 272.679C191.885 271.052 191.069 270.344 189.885 270.69C189.17 270.912 188.442 271.093 187.705 271.231C185.892 271.414 186.346 272.5 186.709 273.566C186.982 274.388 187.615 274.026 188.069 273.847Z"
        fill="#21201D" />
    <path
        d="M297.425 267.693C297.425 268.145 300.058 271.13 300.421 271.04C300.878 271.04 303.875 268.417 303.875 268.145C303.875 267.693 301.14 264.614 300.784 264.614C300.327 264.712 297.425 267.331 297.425 267.693Z"
        fill="#21201D" />
    <path
        d="M270.268 277.917C270.268 277.824 270.268 277.824 270.357 277.735C270.268 277.824 270.268 277.824 270.268 277.917Z"
        fill="#21201D" />
    <path
        d="M289.779 256.927C289.325 257.289 289.236 257.562 289.599 258.095C291.689 261.446 292.869 261.625 295.682 259.002C295.865 258.819 296.229 258.64 296.139 258.278C296.045 258.188 296.045 258.095 295.955 258.005C295.049 256.838 294.228 255.382 293.049 254.748C292.322 254.386 291.232 256.017 290.236 256.647C290.068 256.651 289.978 256.834 289.779 256.927Z"
        fill="#21201D" />
    <path
        d="M295.249 260.633C293.432 261.178 293.069 262.353 294.249 263.89C294.796 264.525 295.249 265.159 295.811 265.7C296.081 265.973 296.264 266.786 296.901 266.335C297.701 265.755 298.46 265.12 299.171 264.435C297.898 262.987 296.901 261.812 295.718 260.543C295.557 260.542 295.398 260.573 295.249 260.633Z"
        fill="#21201D" />
    <path
        d="M268.815 255.203C268.725 257.648 270.995 259.819 273.448 259.819C274.641 259.782 275.774 259.294 276.617 258.454C277.461 257.613 277.951 256.484 277.988 255.297C278.078 252.852 275.898 250.681 273.355 250.681C272.162 250.718 271.029 251.206 270.186 252.046C269.342 252.887 268.852 254.016 268.815 255.203Z"
        fill="#21201D" />
    <path
        d="M271.085 247.15C271.129 245.952 270.696 244.785 269.88 243.903C269.064 243.022 267.931 242.497 266.728 242.445C265.501 242.427 264.317 242.892 263.432 243.74C262.548 244.588 262.035 245.749 262.005 246.971C262.008 248.153 262.475 249.287 263.307 250.129C264.139 250.972 265.269 251.456 266.455 251.478C267.045 251.499 267.633 251.404 268.185 251.197C268.738 250.99 269.244 250.677 269.674 250.274C270.104 249.872 270.451 249.389 270.693 248.853C270.935 248.317 271.068 247.738 271.085 247.15Z"
        fill="#21201D" />
    <path
        d="M271.268 228.421C268.815 230.503 266.271 232.492 263.728 234.485C261.638 236.112 259.458 237.832 257.372 239.459C254.555 241.631 251.738 243.893 248.831 246.076C247.659 246.983 247.835 247.524 248.652 248.52C253.191 254.129 257.735 259.831 262.185 265.533C263.912 267.794 265.635 269.694 268.635 269.783C269.452 269.783 270.198 270.145 270.905 270.418C272.358 270.963 273.812 271.504 274.812 272.753C276.085 274.31 275.538 275.828 273.64 276.19C272.829 276.356 272.01 276.477 271.186 276.552C271.823 277.91 272.823 278.451 274.093 278.813C275.367 279.086 276.636 279.72 277.91 280.261C278.816 280.713 279.906 281.258 279.906 282.433C279.906 283.791 278.637 283.99 277.636 284.332C277.547 284.332 277.457 284.426 277.363 284.605C277.782 285.102 278.174 285.621 278.535 286.162C279.168 287.329 279.805 287.431 280.985 286.524C283.719 284.188 286.618 282.001 289.341 279.74C291.248 278.292 293.158 276.754 295.065 275.306C296.137 274.361 297.291 273.514 298.514 272.773C299.515 272.138 299.425 271.605 298.698 270.78C295.963 267.522 293.338 264.163 290.615 260.827C287.798 257.297 287.798 257.297 291.248 254.6C291.431 254.507 291.521 254.328 291.705 254.238C292.432 253.783 292.521 253.331 291.974 252.607C285.618 244.644 279.262 236.591 272.901 228.631C272.265 228.059 271.901 227.88 271.268 228.421ZM283.165 255.277C282.348 255.818 281.711 256.445 280.985 256.994C278.988 258.551 276.988 260.162 274.992 261.699C273.628 262.785 272.175 263.782 270.905 264.868C270.178 265.502 269.631 265.591 268.998 264.689C264.818 259.239 260.548 253.919 256.282 248.579C255.645 247.765 255.465 247.224 256.461 246.59C257.825 245.683 259.095 244.508 260.368 243.511C262.548 241.795 264.638 240.074 266.818 238.354C268.088 237.902 268.905 236.019 270.088 236.365C271.085 236.727 271.721 238.264 272.538 239.261C276.171 243.784 279.715 248.4 283.438 252.922C284.165 254.028 284.255 254.592 283.165 255.297V255.277Z"
        fill="#21201D" />
    <path
        d="M335.755 308.865C335.532 308.495 335.257 308.16 334.938 307.868C330.484 302.711 326.034 297.554 321.948 292.031C317.861 286.605 314.134 280.993 311.868 274.66C311.481 274.024 311.147 273.357 310.868 272.667C307.508 263.984 303.148 255.837 298.698 247.695C297.425 245.434 296.155 243.262 294.518 241.358C293.612 240.276 292.701 238.556 290.978 239.28C289.341 240.004 289.705 241.814 289.806 243.262C289.9 245.523 290.717 247.605 291.08 250.046C290.717 249.684 290.533 249.594 290.353 249.415C285.72 243.624 281.18 237.739 276.457 231.951C275.73 231.044 276.004 230.503 276.636 229.779C281.27 224.33 285.81 218.83 289.99 213.043C297.62 202.273 299.706 190.421 296.346 177.752C293.26 165.99 285.72 157.392 275.73 150.787C268.1 145.727 259.654 142.372 250.934 139.566C234.404 134.409 217.335 131.782 200.071 130.7C192.272 130.098 184.445 129.947 176.63 130.248C175.813 130.248 175.27 130.248 174.907 129.341C173.735 126.445 172.543 123.643 171.273 120.837C171 120.113 171.09 119.934 171.727 119.572C179.446 115.68 182.806 108.985 181.537 100.566C180.626 94.6852 178.267 89.349 175.36 84.1918C174.813 83.1954 174.543 82.4715 175.176 81.296C176.087 79.3928 175.27 77.4038 173.453 77.5829C171.273 77.8553 170.637 76.4152 169.636 75.1425C168.82 74.1461 169 73.6946 170 73.0602C171.453 72.0638 172.363 70.6159 172 68.806C171.637 66.9066 170.09 66.1827 168.273 65.9102C168.003 65.8207 167.64 65.8207 167.367 65.7312C168.367 63.1974 167.91 61.6599 165.804 60.3016C165.035 59.7923 164.212 59.3681 163.35 59.0366C158.447 57.1333 153.361 56.5923 148.184 56.8648C148.274 58.2192 147.184 57.8573 146.457 57.9507C137.011 58.9432 129.201 63.0105 123.388 70.4368C117.211 78.2212 117.391 86.9047 121.207 95.6816C123.114 100.025 125.568 104.007 129.654 106.72C130.291 107.082 130.56 107.537 130.107 108.168C132.74 111.157 135.647 113.87 139.093 115.859C139.384 116.026 139.638 116.25 139.839 116.517C140.041 116.785 140.186 117.091 140.265 117.416C141.628 122.39 143.082 127.278 144.441 132.253C144.715 133.159 144.805 133.611 143.535 133.809C126.279 136.339 109.749 141.594 93.7621 148.467C82.0416 153.527 70.5087 159.144 60.1634 166.761C50.3534 174 42.0006 182.505 36.7225 193.636C32.636 202.23 31.0029 211.19 33.8158 220.492C36.9061 230.9 44.2627 237.143 54.436 240.401L59.6126 242.028C60.5189 242.3 60.9721 242.573 60.3392 243.585C59.0619 245.723 57.9088 247.932 56.8856 250.201C54.802 254.724 55.0754 259.157 57.706 263.501C58.9757 265.49 58.4288 267.572 56.3426 268.841C51.9403 271.246 47.7201 273.967 43.7157 276.984C39.6632 280.059 35.9761 283.585 32.7258 287.493C27.8227 294.911 25.2794 303.147 24.2793 311.924C23.4627 319.253 23.7362 326.492 23.7362 333.821C23.7362 334.545 23.1893 335.9 24.3691 335.9C25.2794 335.9 24.8262 334.545 24.8262 333.821C24.8262 325.134 24.3691 316.357 25.9983 307.67C27.6313 298.718 30.7216 290.567 37.2616 283.962C44.0712 277.174 52.0646 272.2 60.5111 267.767C61.8746 267.043 62.1481 267.767 62.1481 268.853C62.0543 270.39 61.1479 271.655 60.1478 272.745C57.6982 275.641 54.6782 277.996 51.6114 280.257L48.6149 282.429C48.3414 282.608 48.0679 282.791 48.3414 283.153C48.6149 283.604 48.9782 283.242 49.3415 283.242C49.5212 283.063 49.7049 282.701 49.9744 282.97C50.0682 283.063 49.7947 283.425 49.7049 283.694C49.4314 284.239 49.1579 284.78 48.8844 285.414C45.0714 293.198 41.1645 300.886 37.4413 308.67C36.0779 311.566 36.7147 314.462 39.0783 316.54C41.8912 319.074 45.1612 319.529 48.6149 318.097C50.0682 317.462 50.1581 317.914 50.2479 319.183C50.6112 323.795 50.9746 328.411 51.42 333.027C51.42 333.479 51.3301 334.382 52.1466 334.195C52.7834 334.105 52.4201 333.381 52.4201 332.926C52.0568 327.952 51.6036 322.974 51.1504 317.996C51.0566 317.365 50.8769 316.828 51.42 316.279C52.6936 315.01 53.3304 313.29 54.0571 311.663C54.7837 310.036 55.5104 308.767 57.6904 309.219C58.2335 309.312 58.8624 308.95 59.5032 308.857C61.8668 307.047 61.8668 304.424 61.8668 301.8C61.8668 301.166 61.7769 299.99 61.9566 300.08C63.1287 300.352 64.2265 299.087 65.3165 299.811C72.4934 304.424 80.7602 305.782 89.0231 306.957C109.55 309.943 130.26 310.305 150.966 309.764C152.419 309.764 152.693 310.126 152.419 311.391C151.513 317.093 150.602 322.884 149.684 328.582C149.411 330.484 149.139 332.385 148.868 334.284C148.774 334.736 148.594 335.452 149.231 335.553C149.958 335.643 149.774 334.919 149.864 334.467C151.228 325.687 152.599 317.003 153.861 308.226C153.951 307.681 154.134 307.059 153.318 306.669C151.954 306.128 151.228 304.953 150.411 303.867C147.868 300.337 147.051 296.176 146.414 292.011C145.961 288.664 145.688 285.227 145.324 281.892C145.324 281.53 145.414 280.899 144.777 280.899C144.702 280.9 144.627 280.919 144.56 280.954C144.493 280.989 144.435 281.039 144.391 281.101C144.347 281.162 144.318 281.233 144.307 281.307C144.295 281.382 144.301 281.458 144.324 281.53C144.508 283.612 142.961 282.978 141.691 283.34C142.465 281.081 143.567 278.948 144.961 277.007C146.414 275.108 147.414 275.287 148.321 277.548C148.594 278.272 148.868 279.105 149.137 279.813C149.864 281.623 151.228 281.892 152.501 280.444C152.864 280.082 153.497 279.541 152.954 279.089C152.411 278.638 152.138 279.358 151.864 279.63C151.501 279.992 151.048 280.537 150.501 280.082C149.954 279.626 150.227 279.089 150.411 278.544C150.966 277.065 151.719 275.666 152.65 274.388C153.283 273.485 154.103 272.667 155.193 272.94C156.365 273.212 156.189 274.497 156.463 275.384C156.646 276.287 156.736 277.194 156.916 278.108C157.098 278.693 157.375 279.244 157.736 279.739C158.826 281.094 160.08 281.004 161.006 279.556C161.276 279.105 162.003 278.389 161.459 277.929C160.643 277.295 160.643 278.47 160.287 278.832C159.932 279.194 159.74 279.829 159.014 279.377C158.887 279.314 158.774 279.225 158.682 279.117C158.59 279.009 158.521 278.884 158.479 278.749C158.437 278.614 158.422 278.472 158.436 278.331C158.45 278.19 158.493 278.054 158.561 277.929C159.467 275.594 160.467 273.224 162.104 271.231C162.831 270.328 163.647 269.332 165.007 269.604C166.366 269.876 166.644 271.161 167.007 272.329C167.507 274.251 167.781 276.224 167.824 278.21C167.824 278.844 167.37 280.113 168.277 280.113C169.367 280.113 168.734 278.844 168.824 278.12C168.914 277.307 168.824 276.493 169.004 275.68C169.824 270.881 170.277 265.996 170.73 261.111C171.004 258.033 171.094 254.958 172.004 251.972C172.184 251.248 172.367 250.342 173.274 250.342C174.364 250.252 174.446 251.338 174.637 252.062C175.364 254.685 175.454 257.309 175.454 260.025C175.454 266.809 174.817 273.508 174.282 280.202C174.098 282.647 174.555 284.998 175.282 287.352C175.645 288.434 176.098 288.707 176.915 287.711C179.368 284.819 182.275 282.102 181.001 277.591C180.941 277.107 180.972 276.616 181.091 276.143C181.145 275.587 181.404 275.071 181.818 274.695C182.638 273.882 183.271 273.609 183.818 275.057C184.455 276.773 185.088 278.404 185.545 280.117C186.362 283.102 185.815 285.725 183.818 288.076C182.586 289.617 181.433 291.218 180.365 292.875C177.005 297.76 175.098 303.1 175.825 309.071C176.098 311.406 176.278 313.776 176.552 316.038C177.368 322.655 178.548 329.248 179.732 335.763C179.822 336.215 179.638 336.931 180.365 336.849C181.091 336.768 180.728 336.125 180.638 335.682C180.275 333.51 179.911 331.338 179.548 329.065C178.376 322.732 177.458 316.396 176.813 309.993C176.63 308.724 176.903 308.183 178.446 308.09C193.706 307.187 208.966 305.556 224.133 303.567C225.223 303.384 225.586 303.478 225.766 304.735C226.313 307.903 227.766 309.079 230.946 308.989C231.853 308.989 232.216 309.351 232.669 310.075C233.759 312.153 234.486 314.419 236.123 316.229C236.486 316.68 236.392 317.132 236.302 317.676C236.123 319.576 235.942 321.475 235.759 323.375C235.576 325.908 235.302 328.434 235.123 330.976C235.123 332.062 234.306 333.701 235.486 334.055C236.123 334.234 236.029 332.151 236.123 331.159C236.576 326.632 236.939 322.207 237.295 317.583C238.385 317.945 239.385 318.307 240.381 318.579C243.745 319.303 246.742 318.49 249.011 315.855C251.191 313.411 251.191 310.604 249.738 307.709C247.738 303.816 245.831 299.839 243.925 295.946C241.835 291.692 239.565 287.531 237.674 283.102C237.584 283.013 237.584 282.919 237.49 282.83C237.584 282.83 237.764 282.919 237.853 282.919C238.311 283.013 238.764 283.737 239.127 283.102C239.49 282.468 238.764 282.289 238.4 282.016C238.037 281.744 237.674 281.565 237.31 281.292C233.677 278.758 230.134 276.135 227.321 272.694C226.41 271.609 225.504 270.433 225.32 268.985C225.231 268.444 225.231 267.818 225.684 267.448C226.137 267.078 226.594 267.537 226.957 267.81C232.168 270.458 237.176 273.483 241.944 276.859C254.024 285.184 260.306 296.764 261.923 311.153C262.74 318.661 262.56 326.084 262.56 333.592V335.222C262.56 335.491 262.56 335.853 263.013 335.946C263.467 335.946 263.65 335.674 263.65 335.222V333.954C263.65 327.621 263.83 321.195 263.467 314.862C262.924 309.343 262.107 303.914 260.29 298.757C260.017 297.85 260.107 297.589 261.017 297.398C264.924 296.495 268.831 295.499 272.737 294.592C272.827 294.592 273.007 294.502 273.101 294.502C278.57 296.133 284.634 294.413 289.72 297.76C290.287 298.12 290.833 298.509 291.357 298.928C292.264 299.29 292.811 300.095 293.444 300.738C302.617 311.236 311.76 321.733 320.873 332.229C321.152 332.582 321.456 332.914 321.784 333.222C322.053 333.494 322.327 333.584 322.6 333.222C322.643 333.181 322.677 333.132 322.7 333.078C322.724 333.024 322.736 332.966 322.736 332.907C322.736 332.848 322.724 332.789 322.7 332.735C322.677 332.681 322.643 332.632 322.6 332.591C322.336 332.307 322.094 332.004 321.874 331.684L298.167 304.268C294.717 300.286 291.357 296.032 285.544 294.857C287.451 292.774 287.107 291.42 284.724 290.334C283.27 289.699 281.727 289.516 280.184 289.337C279.184 289.337 278.188 289.427 277.187 289.427C276.734 289.427 276.187 289.427 276.187 289.972C276.261 290.4 276.808 290.4 277.277 290.4C278.641 290.4 280.012 290.4 281.364 290.49C282.656 290.558 283.908 290.961 284.997 291.657C285.997 292.292 286.087 293.105 284.817 293.467C280.367 294.825 276.007 294.463 271.925 292.113C271.285 291.714 270.804 291.106 270.565 290.392C269.745 288.399 270.202 287.858 272.288 287.858C273.562 287.858 274.832 288.037 276.015 287.858C277.469 287.496 278.465 288.672 279.738 288.761C287.732 282.429 295.815 276.096 303.808 269.76C304.98 268.857 305.258 268.312 304.172 267.035C301.355 263.688 298.901 260.158 295.995 256.915C293.26 253.93 292.088 250.4 291.182 246.691C290.818 245.064 290.455 243.433 290.545 241.713C290.545 241.172 290.545 240.545 291.271 240.358C291.818 240.175 292.182 240.627 292.545 240.989C293.815 242.156 294.725 243.713 295.631 245.153C300.902 254.02 305.715 263.159 309.528 272.753C310.884 276.277 312.485 279.702 314.318 283.005C319.858 292.595 327.21 300.827 334.391 309.246C334.481 309.425 334.665 309.515 334.754 309.608C334.79 309.656 334.835 309.696 334.886 309.726C334.938 309.757 334.995 309.776 335.054 309.785C335.113 309.793 335.174 309.79 335.231 309.775C335.289 309.76 335.344 309.733 335.391 309.697C335.755 309.316 335.844 309.044 335.755 308.865Z"
        fill="#21201D" />
    <path
        d="M254.828 141.917H254.918C255.008 141.917 255.008 142.006 254.918 142.096C255.102 142.096 255.371 142.006 255.555 142.096C265.455 145.626 274.808 150.059 282.621 157.299C283.075 157.75 283.528 158.295 283.981 158.747C284.165 158.747 284.344 158.836 284.165 159.019C284.018 158.971 283.866 158.941 283.711 158.93C280.895 158.206 278.171 157.12 275.265 156.664C272.811 156.302 271.085 156.847 270.452 158.474C269.725 160.195 270.268 161.643 271.721 162.728C273.448 164.087 275.355 164.717 277.351 165.453C282.074 167.173 286.888 168.804 291.416 171.155C292.049 171.444 292.618 171.858 293.088 172.371C293.558 172.883 293.919 173.485 294.15 174.14C295.322 177.488 296.241 180.839 296.42 184.365C296.514 185.533 296.604 186.7 296.604 187.895C296.64 190.156 296.49 192.416 296.155 194.652C295.324 200.287 293.245 205.666 290.068 210.4C285.708 217.017 280.531 223.065 275.445 229.129C274.901 229.853 274.628 229.402 274.175 228.95C271.721 226.323 271.721 226.323 268.998 228.495C264.091 232.297 259.278 236.186 254.191 240.078C253.191 235.917 252.285 231.935 251.285 227.954C251.195 227.681 251.375 227.409 251.468 227.14C257.551 215.736 263.548 204.336 269.541 192.846C269.815 192.301 270.088 191.76 270.358 191.126C270.541 190.764 270.541 190.491 270.178 190.312C269.815 190.133 269.631 190.402 269.451 190.674C265.998 195.921 257.461 196.372 253.101 194.835C251.738 194.384 252.375 193.749 252.738 193.025C255.845 186.416 257.899 179.364 258.825 172.124C259.997 162.078 258.915 152.399 255.008 143.077C254.848 142.7 254.727 142.309 254.645 141.909H254.555C254.531 141.909 254.508 141.9 254.491 141.883C254.474 141.866 254.465 141.843 254.465 141.82C254.738 142.006 254.828 141.917 254.828 141.917Z"
        fill="#21201D" />
    <path
        d="M251.195 226.611C248.742 217.924 246.292 209.781 243.202 201.456C249.558 203.087 255.555 204.624 261.822 206.251C258.368 212.856 254.918 219.461 251.195 226.611Z"
        fill="#21201D" />
    <path
        d="M136.753 135.764C139.39 135.402 142.023 134.861 144.656 134.499C145.926 134.316 146.199 133.954 145.828 132.689L133.846 90.6103C133.756 90.1588 133.756 89.4426 133.119 89.4426C132.486 89.3531 132.486 90.0771 132.303 90.5286C131.213 93.1519 129.67 93.6968 127.126 92.3384C123.493 90.3456 120.95 85.4609 121.586 81.3897C121.766 79.9418 122.403 78.5834 123.856 78.0424C125.399 77.408 126.763 78.0424 127.943 79.1283C129.943 80.9382 130.849 83.3786 131.576 85.9124C131.76 86.5469 131.76 87.3603 132.576 87.5433C133.483 87.7223 133.94 86.9984 134.393 86.4573C137.389 82.2927 138.663 77.587 139.569 72.7023C140.023 70.441 139.933 70.5305 142.113 71.1649C148.754 73.2472 155.556 74.8742 162.549 74.9637C163.367 74.9786 164.185 74.9487 164.999 74.8742C168.179 74.4227 168.089 74.4227 169.816 77.046C170.449 78.0424 170.086 78.2137 169.179 78.4939C167.363 78.9454 165.636 78.4044 163.909 77.8595C163.456 77.6804 162.823 77.3185 162.549 77.77C162.186 78.4939 163.092 78.5834 163.55 78.7664C165.999 79.6694 168.453 80.1209 170.996 78.9454C171.269 78.8559 171.539 78.7664 171.902 78.673C172.813 78.4044 173.719 78.2215 174.356 79.0349C175.082 79.9418 174.629 80.8448 174.082 81.5687C173.356 82.6547 172.449 83.7406 171.738 84.9199C171.012 85.9124 170.375 86.9983 170.375 88.3567C170.375 88.6292 170.285 88.9912 170.648 89.1702C171.191 89.3531 171.285 88.8082 171.285 88.5358C171.465 86.6364 172.738 85.2819 173.918 83.6511C176.368 87.9052 178.368 92.066 179.638 96.4953C179.611 96.5631 179.57 96.6245 179.518 96.6757C179.466 96.7268 179.404 96.7665 179.335 96.7922C179.267 96.8178 179.194 96.8289 179.121 96.8247C179.048 96.8205 178.976 96.8011 178.911 96.7677C171.648 94.5959 164.382 95.4094 157.205 97.2192C156.662 97.3127 155.662 97.2192 155.841 98.1261C156.021 99.033 156.842 98.3986 157.404 98.2156C163.397 96.7677 169.484 95.8803 175.661 97.1297C180.74 98.1261 180.2 97.4917 180.74 102.921C180.949 105.209 180.697 107.516 179.997 109.705C177.454 117.124 171.187 120.833 163.198 119.658C162.741 119.568 162.026 119.113 161.745 119.837C161.471 120.471 162.198 120.744 162.651 121.004C165.284 122.993 167.73 125.165 170.554 126.886C173.641 128.785 174.914 131.77 176.184 134.849C176.458 135.479 176.458 136.748 177.356 136.386C178.255 136.024 177.356 135.117 177.083 134.576C175.813 131.408 175.813 131.408 179.173 131.408H186.076C186.803 131.408 187.248 131.498 187.248 132.405C187.069 146.066 179.165 157.56 163.452 156.836C156.912 156.563 151.372 153.306 146.379 149.234C142.386 146 139.026 142.108 135.936 137.935C134.846 136.215 135.299 135.943 136.753 135.764Z"
        fill="#21201D" />
    <path
        d="M171.812 158.385C172.503 158.998 173.055 159.751 173.431 160.593C173.806 161.435 173.998 162.348 173.992 163.27C173.992 165.441 173.086 167.072 171.449 167.524C169.996 167.975 168.269 167.072 167.089 165.352C166.585 164.603 166.245 163.757 166.088 162.869C165.932 161.981 165.964 161.07 166.183 160.195C166.714 157.388 169.543 156.485 171.812 158.385Z"
        fill="#21201D" />
    <path
        d="M122.313 139.2C125.673 138.476 129.033 137.573 132.392 136.667C133.482 136.398 134.029 136.76 134.666 137.573C138.479 143.093 142.929 147.888 148.469 151.78C153.739 155.489 159.459 157.75 166.182 157.661C164.456 160.736 164.62 163.542 166.362 166.165C167.726 168.248 169.906 169.061 171.812 168.52C173.719 167.979 174.992 166.076 175.082 163.632C175.172 160.829 173.91 158.657 171.632 156.848C172.992 156.303 174.176 155.851 175.266 155.31C182.802 151.597 186.346 145.19 187.705 137.301C187.947 135.652 188.099 133.992 188.162 132.327C188.162 131.42 188.526 131.159 189.432 131.159L197.246 131.432C198.062 131.432 198.336 131.793 198.515 132.517C200.859 140.029 201.965 147.627 199.605 155.322C196.871 164.099 190.342 168.894 181.896 171.517C161.635 177.838 142.566 171.506 129.208 154.131C126.161 150.146 123.514 145.873 121.305 141.372C120.77 140.107 120.859 139.473 122.313 139.2Z"
        fill="#21201D" />
    <path
        d="M60.2766 241.001C56.8268 239.915 53.2833 239.008 50.0133 237.198C45.9636 235.591 42.4178 232.936 39.7423 229.507C38.1226 227.441 36.8071 225.155 35.8355 222.719C32.7452 215.39 32.9288 207.882 35.1987 200.37C36.1051 196.75 37.742 193.403 39.4688 190.145C39.922 189.332 40.6409 189.059 41.3754 188.88C46.7316 186.977 52.3653 186.346 57.9051 185.529C59.9953 185.26 62.0815 184.898 63.992 183.992C65.9883 183.089 66.7267 181.73 66.336 179.831C65.9454 177.931 64.5194 177.476 62.8863 177.297C58.5263 176.846 54.2562 177.838 49.8961 178.2C49.4677 178.217 49.0422 178.278 48.6264 178.383C48.4428 177.659 49.0796 177.387 49.4429 177.025C57.2566 168.882 66.5197 162.729 76.5094 157.482C77.5994 156.847 78.2362 157.482 78.9629 158.023C83.866 161.732 87.679 166.527 90.8592 171.685C95.7622 179.558 99.0322 188.156 101.306 197.202C101.576 198.369 101.306 198.65 100.216 198.922C95.7622 199.829 91.6757 198.471 87.5891 197.202C85.0458 196.388 82.5103 195.754 79.7755 195.937C78.9804 196.005 78.1908 196.126 77.4119 196.299C76.9587 196.388 76.3219 196.478 76.2398 197.023C76.2398 197.657 76.8766 197.657 77.3298 197.836C83.3877 200.397 89.1284 203.647 94.4378 207.52C103.338 214.035 112.8 219.555 123.137 223.536C130.404 226.339 137.761 228.872 145.117 231.589C149.114 233.037 152.837 235.026 155.834 238.206C160.83 243.363 160.467 249.155 154.661 253.385C150.457 256.366 145.75 258.573 140.765 259.901C140.229 260.037 139.683 260.128 139.132 260.173C138.679 260.263 138.222 260.173 138.042 259.722C137.862 259.27 138.222 258.908 138.585 258.636C141.593 256.33 144.723 254.184 147.961 252.21C148.868 251.669 149.958 252.12 150.868 252.031C151.505 251.941 152.591 252.482 152.591 251.579C152.591 250.583 151.419 251.035 150.778 250.945C147.778 250.762 144.691 250.673 141.695 250.583C127.161 250.038 112.628 248.952 98.1884 247.415C96.1881 247.236 96.1881 247.236 97.0984 245.426C98.0047 243.706 98.8252 241.985 99.7315 240.366C105.271 231.025 100.005 221.181 90.195 218.181C81.3851 215.557 72.9386 219.084 68.6684 227.319C66.4884 231.48 64.2185 235.645 62.0268 239.806C61.7299 240.639 61.4603 241.359 60.2766 241.001Z"
        fill="#21201D" />
    <path
        d="M113.229 217.924C116.226 216.569 119.133 215.935 121.95 214.939C122.766 214.666 122.676 215.39 122.676 215.845C122.766 217.924 122.856 220.006 122.95 222.357C119.68 221.182 116.589 219.644 113.229 217.924Z"
        fill="#21201D" />
    <path
        d="M122.856 258.282C123.678 257.625 124.561 257.049 125.493 256.562C128.712 254.706 132.116 253.191 135.651 252.039C138.741 251.043 141.902 252.039 145.098 252.128C138.456 255.114 132.018 258.192 124.845 259.64C124.428 259.744 124.001 259.804 123.571 259.819C123.118 259.819 122.575 259.819 122.399 259.457C122.04 258.916 122.493 258.554 122.856 258.282Z"
        fill="#21201D" />
    <path
        d="M80.1696 281.538C77.3667 282.527 74.6347 283.705 71.9926 285.064C71.5395 285.336 70.7229 286.15 70.4299 284.885C70.2502 283.978 68.7969 282.892 70.6135 282.079C73.229 280.927 75.7764 279.627 78.2436 278.186C79.6969 277.283 81.1463 276.47 82.1504 275.112C82.6036 274.571 83.1505 273.944 82.6974 273.123C82.334 272.399 81.6073 272.216 80.7908 272.216C78.1537 272.037 75.794 273.029 73.2506 273.485C73.1608 273.485 72.9772 273.574 72.8873 273.574C72.8739 273.447 72.9057 273.319 72.9772 273.212C73.3405 271.655 74.3407 271.04 75.9737 270.768C81.5136 269.865 85.8736 266.969 88.5107 261.902C90.5969 257.83 92.7769 253.849 94.8671 249.684C95.4101 248.691 95.9571 248.419 97.0471 248.516C105.404 249.513 113.76 250.237 122.113 250.778C122.66 250.778 123.387 250.599 123.567 251.502C123.75 252.319 123.203 252.77 122.57 253.132C121.975 253.447 121.424 253.84 120.933 254.3C120.207 254.935 119.207 255.468 119.48 256.472C119.754 257.64 120.933 257.285 121.934 257.468C121.023 258.916 120.207 260.364 122.84 260.816C123.387 260.905 123.387 261.45 123.387 261.812C123.297 264.346 123.113 266.872 123.024 269.41C123.024 270.577 122.477 270.966 121.387 271.13C107.416 273.664 93.5192 276.649 80.1696 281.538Z"
        fill="white" />
    <path
        d="M179.606 282.168C178.626 283.759 177.445 285.218 176.09 286.508C175.363 284.067 174.918 281.713 175.18 279.268C175.363 278.276 175.996 278.182 176.743 278.003C177.743 277.821 179.38 276.918 179.559 277.459C180.079 279.004 180.622 280.72 179.606 282.168Z"
        fill="#21201D" />
    <path
        d="M175.629 277.283C175.082 275.201 175.899 274.209 177.805 273.936C178.805 273.847 179.806 273.391 180.806 273.123C180.622 276.649 177.899 276.649 175.629 277.283Z"
        fill="#21201D" />
    <path
        d="M185.076 274.571C184.26 274.209 184.17 273.212 183.717 272.578C183.443 272.216 184.17 272.126 184.443 272.126C185.803 272.126 185.26 273.391 185.713 273.847C185.799 274.477 185.346 274.75 185.076 274.571Z"
        fill="#21201D" />
    <path
        d="M224.765 298.64C223.593 298.819 223.128 297.733 222.585 296.92C221.675 295.561 221.859 293.934 222.132 292.393C222.591 290.165 223.485 288.049 224.765 286.166C225.219 285.442 225.762 284.539 226.762 284.811C227.852 285.08 227.672 286.166 227.762 286.983V288.431C227.399 290.692 227.035 293.588 226.59 296.39C226.398 297.461 225.945 298.457 224.765 298.64Z"
        fill="#21201D" />
    <path
        d="M217.772 286.15C218.431 283.251 219.667 280.513 221.405 278.097C221.675 277.646 222.038 276.929 222.577 277.101C223.304 277.284 223.21 278.097 223.21 278.658C223.257 279.26 223.257 279.865 223.21 280.467C223.21 283.725 222.214 286.89 221.487 290.058C221.304 290.782 221.034 291.054 220.214 290.692C218.135 289.859 217.225 288.415 217.772 286.15Z"
        fill="#21201D" />
    <path
        d="M206.872 275.221C206.325 274.769 205.419 274.228 205.872 273.504C206.145 272.87 207.146 273.142 207.778 273.232C210.232 273.411 212.502 274.135 214.772 274.769C215.054 274.842 215.308 275 215.498 275.221L218.499 281.195C218.315 281.285 218.225 281.374 218.042 281.464C214.139 279.728 210.232 278.008 206.872 275.221Z"
        fill="#21201D" />
    <path
        d="M230.579 308.047C229.757 308.099 228.944 307.851 228.292 307.349C227.641 306.848 227.194 306.128 227.035 305.323C226.125 301.252 226.762 297.449 229.215 294.102C229.579 293.561 230.032 292.654 230.669 292.934C231.395 293.207 230.942 294.102 231.032 294.744V295.285C230.803 298.054 230.254 300.788 229.395 303.431C229.215 304.155 228.399 304.879 230.032 305.058C230.579 305.148 231.032 306.506 231.305 307.32C231.669 308.047 230.942 308.047 230.579 308.047Z"
        fill="#21201D" />
    <path
        d="M249.742 311.85C249.469 315.108 246.292 317.548 242.385 317.548C241.29 317.574 240.201 317.36 239.197 316.923C238.193 316.485 237.297 315.834 236.572 315.015C235.921 314.344 235.454 313.518 235.215 312.615C234.976 311.713 234.974 310.765 235.209 309.861C236.025 306.514 239.932 304.253 243.749 304.887C247.562 305.607 250.015 308.409 249.742 311.85Z"
        fill="#21201D" />
    <path
        d="M228.215 266.876C228.215 266.876 228.035 266.697 227.942 266.697C226.945 266.786 226.219 265.14 225.129 266.424C224.129 267.592 224.219 268.958 224.765 270.227C225.328 271.462 226.095 272.594 227.035 273.574C228.207 274.742 229.305 276.198 230.669 277.011C234.665 279.545 236.845 283.348 238.752 287.52C241.096 292.767 243.831 297.834 246.382 302.991C246.651 303.536 247.109 303.988 247.015 304.895C244.475 303.809 241.936 303.264 239.295 304.26C236.654 305.257 234.939 306.985 233.939 310.141C232.767 307.697 231.669 305.619 230.669 303.626C230.395 303.174 230.759 302.629 230.848 302.178C231.485 299.644 232.122 297.118 232.02 294.487C232.02 293.491 232.2 292.315 231.11 291.864C229.84 291.319 229.204 292.498 228.477 293.129C228.255 293.299 228.043 293.481 227.84 293.674C228.024 292.117 228.293 290.867 228.387 289.509C228.477 288.427 228.567 287.248 228.567 286.162C228.567 285.169 228.203 284.173 227.203 283.721C226.113 283.266 225.297 283.811 224.57 284.535C224.39 284.714 224.207 284.807 223.843 285.169C224.027 283.087 224.117 281.277 224.207 279.467C224.222 278.922 224.192 278.376 224.117 277.836C223.933 277.023 223.754 276.209 222.847 275.937C221.941 275.664 221.284 276.299 220.847 276.933C220.21 277.747 219.675 278.654 218.851 279.739C217.034 275.937 215.217 272.41 213.49 268.791C213.037 267.973 212.764 267.07 212.217 266.257C210.654 263.634 210.31 260.917 212.58 258.566C214.854 256.122 217.761 255.577 220.937 256.573C222.847 257.118 224.207 258.473 225.117 260.103C226.207 262.092 227.113 264.264 228.024 266.257C228.305 266.607 228.489 266.697 228.215 266.876Z"
        fill="#21201D" />
    <path
        d="M258.009 291.762H257.645C253.102 283.348 245.835 277.646 238.111 272.578C236.021 271.22 233.751 269.955 231.571 268.686C230.822 268.286 230.194 267.693 229.754 266.969C228.938 265.521 228.938 264.435 229.938 262.988C232.571 259.006 232.935 254.479 230.755 250.229C226.668 242.083 222.492 233.851 217.948 225.977C212.135 216.024 197.969 214.576 189.881 222.719C185.342 227.335 184.342 233.668 187.342 239.455L193.593 251.673C193.77 252.054 193.982 252.417 194.226 252.759C195.863 255.744 197.496 258.729 199.043 261.711C201.676 266.771 205.942 269.585 211.392 270.581C213.299 270.943 214.299 271.667 214.662 273.477C212.572 273.022 210.486 272.481 208.306 272.208C207.032 272.029 205.399 271.574 204.852 273.115C204.219 274.652 205.763 275.555 206.763 276.373C209.669 278.634 212.936 280.265 216.299 281.709C217.471 282.254 217.932 282.705 217.471 284.153C216.018 288.407 216.471 289.583 220.558 291.844C221.378 292.296 221.105 292.841 221.105 293.382C220.938 294.369 221.017 295.381 221.334 296.331C221.65 297.281 222.195 298.139 222.921 298.831C223.344 299.267 223.877 299.581 224.465 299.738C224.918 299.917 226.027 298.831 226.027 300.462C225.938 301.726 225.848 302.45 224.301 302.629C218.397 303.264 212.494 304.186 206.501 304.801C197.238 305.798 187.971 306.611 178.618 307.246C177.165 307.335 176.708 306.973 176.891 305.525C177.165 303.536 177.255 301.544 178.161 299.827C178.168 299.575 178.231 299.328 178.345 299.103C178.345 299.014 178.434 298.92 178.524 298.831L178.618 298.741C180.071 294.938 182.525 291.774 184.974 288.695C185.064 288.496 185.186 288.313 185.338 288.154C185.428 287.971 185.611 287.792 185.701 287.61C187.881 284.352 187.264 280.825 186.064 277.49C185.521 275.933 185.975 275.59 187.338 275.322C189.682 274.777 191.968 273.963 194.331 273.419C195.503 273.15 195.691 272.605 195.421 271.43C194.511 268.444 194.601 268.444 191.514 269.347C186.436 270.795 181.431 272.154 176.165 273.691C176.348 270.161 176.618 266.814 176.801 263.466C176.725 263.233 176.693 262.987 176.708 262.742C176.68 262.487 176.745 262.23 176.891 262.018C176.708 259.033 176.891 256.048 176.254 253.152C175.891 251.595 175.891 249.443 173.621 249.443C171.441 249.443 171.277 251.521 170.988 253.152C170.078 257.496 170.078 261.839 169.535 266.273C169.261 268.082 169.351 269.982 168.535 271.702C168.355 271.609 168.171 271.609 168.171 271.519C166.902 268.261 164.085 267.537 161.362 271.068C160.702 271.967 160.096 272.904 159.545 273.874C158.998 274.777 158.635 275.773 157.982 276.949C157.803 275.863 157.619 275.049 157.439 274.325C156.892 271.881 154.986 271.157 152.989 272.695C152.233 273.34 151.588 274.105 151.083 274.96C150.626 275.773 150.262 276.587 149.809 277.4C149.719 277.311 149.629 277.311 149.536 277.221C147.903 273.874 146.086 273.691 143.906 276.859C142.706 278.601 141.73 280.485 140.999 282.468C140.636 283.375 140.183 283.826 139.183 284.025C134.678 284.885 130.576 286.874 126.474 289.139C126.021 289.408 125.204 289.501 125.384 290.132C125.567 290.856 126.384 290.494 126.837 290.494C132.377 290.583 137.827 289.501 143.097 287.691C144.457 287.236 144.914 287.508 145.094 289.046C145.641 293.934 146.266 298.909 148.911 303.252C149.817 304.7 150.727 306.238 152.181 307.234C152.544 307.506 152.997 307.685 152.724 308.23C152.544 308.771 151.997 308.592 151.552 308.592C147.192 308.682 142.832 308.771 138.472 308.771C133.295 308.771 128.118 308.592 123.032 308.592C121.758 308.592 121.125 308.409 121.305 306.782C122.668 292.031 123.848 277.202 124.485 262.353C124.485 261.629 124.395 260.905 125.485 260.726C130.662 259.73 135.385 257.647 140.288 255.838C140.472 255.838 140.652 255.748 140.741 255.838C140.835 256.021 140.741 256.11 140.562 256.2C139.651 256.923 138.745 257.647 137.827 258.461C137.479 258.689 137.218 259.028 137.087 259.422C136.955 259.815 136.96 260.242 137.1 260.633C137.374 261.45 138.19 261.629 138.917 261.719C139.975 261.769 141.03 261.584 142.007 261.178C146.02 259.892 149.862 258.129 153.45 255.927C160.533 251.766 163.35 244.978 156.63 237.743C156.335 237.461 156.061 237.158 155.81 236.836C150.09 231.951 142.918 230.052 136.104 227.608C132.65 226.339 129.291 225.074 125.747 223.898C124.575 223.536 124.114 222.812 124.114 221.633C124.117 219.79 124.025 217.948 123.841 216.114C123.751 215.211 124.024 214.759 124.931 214.576C126.567 214.125 128.111 213.58 129.744 213.129C130.916 212.767 131.017 212.226 130.47 211.229C129.201 208.968 127.294 207.337 124.657 206.885C120.844 206.251 117.664 204.55 114.851 202.001C111.671 199.195 108.209 197.385 103.861 198.65C102.498 199.012 102.689 197.836 102.587 197.202C101.161 191.57 99.2784 186.062 96.9577 180.734C96.5006 179.741 96.0474 178.834 95.6841 177.838L95.1566 176.748C91.8866 171.05 88.433 165.531 83.6198 160.915C82.1665 159.556 80.7131 158.292 79.0801 156.933C85.8291 153.38 92.7734 150.208 99.88 147.432C101.333 146.891 102.693 146.074 104.24 145.895C104.42 145.533 104.873 145.533 105.236 145.35C109.596 143.634 113.956 142.275 118.406 140.827C119.578 140.465 120.043 140.644 120.586 141.824C125.22 151.504 131.303 160.117 140.206 166.434C155.646 177.383 172.176 178.111 188.979 170.054C197.609 165.893 201.602 158.292 202.149 148.88C202.414 143.668 201.706 138.452 200.059 133.498C199.606 132.229 199.879 131.961 201.231 132.05C218.491 133.218 235.474 135.943 252.019 141.1C252.486 141.244 252.915 141.49 253.277 141.818C253.638 142.146 253.922 142.549 254.11 142.999C258.38 152.589 259.649 162.542 258.38 172.949C257.522 179.812 255.594 186.499 252.664 192.769C252.366 193.391 252.032 193.995 251.664 194.578C251.937 195.034 252.754 195.302 252.211 196.135C251.153 197.866 250.183 199.648 249.304 201.475C249.121 201.837 248.847 202.199 248.484 202.02C247.851 201.748 248.304 201.296 248.484 200.934C249.394 199.304 250.3 197.583 251.219 195.956C251.398 195.505 251.855 195.143 251.582 194.598C247.495 193.15 244.135 190.437 240.955 187.631C237.595 184.646 234.779 181.298 233.142 176.955C232.052 174.059 230.505 171.252 229.051 168.45C228.782 167.995 228.688 166.893 227.961 167.282C227.145 167.644 227.961 168.368 228.145 168.839C233.142 178.959 237.681 189.196 241.678 199.693C246.674 212.853 250.651 226.375 253.574 240.14C253.758 241.226 253.574 241.861 252.758 242.476C250.941 243.83 249.308 245.278 247.491 246.547C246.581 247.177 246.581 247.633 247.308 248.446C249.652 251.342 251.941 254.238 254.395 257.398C250.851 257.219 247.671 256.674 244.495 257.309C243.869 257.363 243.256 257.515 242.678 257.76C240.768 258.578 240.588 260.205 242.131 261.563C243.858 263.011 246.038 263.462 248.124 264.007C250.719 264.648 253.363 265.071 256.028 265.272C257.118 265.362 257.665 265.634 257.665 266.899C257.665 268.709 258.208 270.429 257.571 272.239C257.208 273.236 258.298 274.049 258.298 275.046C258.009 280.281 258.368 286.06 258.009 291.762Z"
        fill="#21201D" />
    <path
        d="M187.615 271.219C188.352 271.081 189.08 270.901 189.795 270.678C191.069 270.316 191.796 271.04 191.702 272.667C190.706 273.302 189.252 273.391 187.979 273.835C187.526 274.014 186.889 274.376 186.619 273.562C186.248 272.496 185.799 271.402 187.615 271.219Z"
        fill="#21201D" />
    <path
        d="M192.976 269.682C194.066 269.682 193.613 270.768 193.976 271.403C194.245 271.854 194.066 272.216 193.429 272.306C192.339 272.306 192.702 271.313 192.339 270.679C192.278 270.573 192.247 270.453 192.249 270.331C192.252 270.209 192.288 270.091 192.354 269.988C192.419 269.885 192.512 269.802 192.622 269.748C192.731 269.694 192.854 269.672 192.976 269.682Z"
        fill="#21201D" />
    <path
        d="M133.576 288.505C133.576 289.229 132.85 288.956 132.404 288.956C131.232 289.135 129.955 289.135 128.771 289.229C128.785 289.101 128.753 288.973 128.681 288.867C129.681 288.322 130.771 287.781 131.771 287.236C132.135 287.057 132.678 286.512 133.041 286.967C133.255 287.156 133.417 287.397 133.511 287.666C133.604 287.935 133.627 288.224 133.576 288.505Z"
        fill="#21201D" />
    <path
        d="M254.191 258.095C254.442 258.123 254.684 258.201 254.903 258.326C255.122 258.45 255.313 258.618 255.465 258.819C256.735 260.45 258.008 262.077 259.642 264.159C254.172 263.707 249.093 263.256 244.292 261.434C243.202 261.072 241.658 260.71 241.838 259.263C242.018 257.815 243.655 257.994 244.745 257.815C247.925 257.375 251.101 257.83 254.191 258.095Z"
        fill="#21201D" />
    <path
        d="M259.458 274.209C258.551 273.574 257.915 272.652 258.188 271.484C258.461 270.316 259.551 270.036 260.532 269.947C264.932 269.542 269.349 270.523 273.159 272.753C273.796 273.115 274.429 273.656 274.249 274.469C274.065 275.376 273.077 275.376 272.432 275.287C270.616 275.193 268.889 275.104 267.072 274.925C266.709 274.925 266.076 274.652 266.076 275.376C266.076 275.917 266.619 275.917 267.072 276.011C268.346 276.19 269.807 275.917 270.342 277.568H270.436V277.747C270.424 277.746 270.412 277.748 270.4 277.752C270.389 277.757 270.379 277.763 270.37 277.771C270.361 277.78 270.354 277.79 270.349 277.801C270.345 277.812 270.342 277.824 270.342 277.836C270.342 277.747 270.342 277.747 270.436 277.657V277.556C266.271 277.556 262.638 276.56 259.458 274.209Z"
        fill="#21201D" />
    <path
        d="M268.088 285.881C266.627 285.351 265.295 284.518 264.181 283.437C262.459 281.627 263.091 279.817 265.545 279.272C267.073 278.957 268.65 278.957 270.178 279.272C272.812 279.634 275.445 280.269 277.808 281.627C278.262 281.9 278.805 282.079 278.715 282.713C278.625 283.254 278.078 283.347 277.543 283.437C275.453 283.978 273.363 283.799 271.292 283.616C270.835 283.616 270.292 283.347 270.202 283.888C270.018 284.702 270.835 284.523 271.198 284.523C272.198 284.612 273.198 284.885 274.199 284.702C275.761 284.523 276.742 285.064 277.285 286.695C274.081 286.967 271.085 286.874 268.088 285.881Z"
        fill="#21201D" />
    <path
        d="M303.875 268.145C303.875 268.417 300.878 271.041 300.421 271.041C300.058 271.041 297.425 268.055 297.425 267.693C297.425 267.421 300.331 264.708 300.784 264.708C301.148 264.525 303.785 267.6 303.875 268.145Z"
        fill="#21201D" />
    <path
        d="M299.155 264.436C298.339 265.16 297.592 265.79 296.885 266.335C296.248 266.786 296.065 265.973 295.795 265.701C295.248 265.16 294.795 264.436 294.232 263.891C293.06 262.443 293.416 261.267 295.233 260.633C295.377 260.575 295.53 260.544 295.686 260.543C296.881 261.812 297.983 263.077 299.155 264.436Z"
        fill="#21201D" />
    <path
        d="M293.064 254.662C294.237 255.297 295.065 256.744 295.971 257.92C296.061 258.009 296.061 258.099 296.155 258.192C296.245 258.554 295.881 258.733 295.698 258.916C292.885 261.641 291.705 261.45 289.615 258.009C289.251 257.468 289.341 257.106 289.794 256.842C289.978 256.752 290.068 256.569 290.252 256.48C291.248 255.927 292.338 254.39 293.064 254.662Z"
        fill="#21201D" />
    <path
        d="M291.795 252.673C292.338 253.393 292.338 253.841 291.521 254.3C291.349 254.392 291.195 254.514 291.068 254.662C287.614 257.387 287.614 257.387 290.431 260.89C293.166 264.237 295.791 267.584 298.514 270.842C299.241 271.659 299.331 272.2 298.335 272.835C297.163 273.648 296.061 274.555 294.881 275.369C292.974 276.816 291.068 278.354 289.161 279.802C286.345 282.079 283.528 284.251 280.793 286.605C279.703 287.598 279.066 287.419 278.339 286.243C278.008 285.683 277.615 285.161 277.167 284.686C277.347 284.597 277.347 284.507 277.441 284.418C278.437 284.056 279.621 283.873 279.711 282.515C279.711 281.25 278.621 280.705 277.71 280.343C276.441 279.802 275.167 279.175 273.897 278.895C273.257 278.803 272.652 278.547 272.142 278.15C271.632 277.753 271.235 277.23 270.991 276.634C271.816 276.572 272.636 276.451 273.444 276.272C275.351 275.82 275.894 274.283 274.616 272.835C273.616 271.566 272.163 271.025 270.709 270.499C269.983 270.231 269.147 269.869 268.44 269.869C265.353 269.686 263.626 267.787 261.989 265.615C257.633 259.823 253.09 254.215 248.456 248.602C247.64 247.609 247.46 247.045 248.64 246.162C251.546 244.079 254.363 241.818 257.176 239.545C259.266 237.914 261.446 236.194 263.536 234.567C266.08 232.574 268.615 230.585 271.073 228.503C271.71 227.962 272.073 228.141 272.526 228.686C279.078 236.657 285.434 244.71 291.795 252.673Z"
        fill="#21201D" />
    <path
        d="M75.1731 76.6762C77.1212 77.4441 79.1196 78.0787 81.1545 78.5756C84.6081 79.2995 88.0578 78.848 91.5115 78.848V78.6651C90.2378 67.1753 92.871 57.1296 102.411 49.7111C103.681 48.7147 105.408 48.4461 106.225 46.9866C105.135 44.4527 103.318 42.5495 101.321 40.6501C100.845 40.3828 100.39 40.081 99.958 39.7471C92.1444 34.407 82.3382 34.045 75.0716 38.6612C71.2096 41.1297 68.168 44.6824 66.3304 48.871C64.4927 53.0597 63.9413 57.6968 64.7458 62.1972C65.8202 68.6232 69.6333 73.4184 75.1731 76.6762ZM76.7163 42.8336C79.4777 40.8955 82.7857 39.8815 86.163 39.9378C87.9126 39.9565 89.6525 40.1998 91.3396 40.6618C91.7029 40.7552 92.3397 40.8447 92.16 41.4752C91.9764 42.0201 91.4333 41.8372 91.07 41.7477C88.3789 40.9803 85.5393 40.8867 82.8032 41.4752C80.8448 41.8916 78.9869 42.6849 77.3336 43.8105C77.0601 43.9896 76.6968 44.3515 76.3335 43.9896C75.8998 43.3785 76.353 43.106 76.7163 42.8336Z"
        fill="#21201D" />
    <path
        d="M304.328 277.011C302.511 281.989 299.968 286.423 295.792 289.77C295.534 289.944 295.342 290.199 295.245 290.494C295.155 290.856 295.334 291.039 295.792 291.039C296.155 290.766 296.608 290.404 297.061 290.042C301.058 286.605 303.703 282.258 305.328 277.284C305.508 276.832 306.055 276.116 305.418 275.836C304.418 275.563 304.512 276.56 304.328 277.011Z"
        fill="#21201D" />
    <path
        d="M174.528 327.143C173.701 326.834 172.85 326.592 171.985 326.419C171.164 326.236 170.711 326.146 170.621 326.598C170.438 327.143 170.984 327.143 171.258 327.322L174.254 328.135C174.327 328.166 174.406 328.178 174.484 328.17C174.562 328.161 174.636 328.133 174.7 328.088C174.764 328.043 174.816 327.981 174.849 327.911C174.882 327.84 174.897 327.762 174.891 327.684C174.993 327.505 174.719 327.232 174.528 327.143Z"
        fill="#21201D" />
    <path
        d="M171.012 321.441C170.922 321.803 171.012 322.075 171.375 322.164C172.547 322.526 173.555 323.332 174.825 323.25C174.918 323.25 175.098 322.888 175.008 322.799C174.282 321.892 173.102 321.803 172.102 321.351C171.961 321.267 171.808 321.206 171.648 321.168C171.359 321.168 171.086 321.168 171.012 321.441Z"
        fill="#21201D" />
    <path
        d="M173.812 319.358C174.082 319.358 174.266 319.179 174.176 318.906C174.082 318.545 172.175 317.548 171.812 317.642C171.539 317.731 171.269 317.91 171.449 318.183C171.996 318.996 172.902 319.268 173.812 319.358Z"
        fill="#21201D" />
    <path
        d="M108.233 102.645C114.593 106.086 121.586 107.44 128.759 107.896C129.216 106.899 128.216 106.81 127.763 106.448C117.043 98.1223 114.23 80.4751 122.313 69.9818C128.669 61.6564 137.21 57.1376 147.836 56.5888C144.383 51.7936 139.659 48.7149 134.209 46.6364C125.13 43.1062 115.957 43.5577 106.963 46.9984C106.963 47.7224 106.873 48.3529 106.053 48.8083C96.7 53.9654 92.7931 62.2908 92.2501 72.5156C92.1902 74.0535 92.2202 75.5935 92.34 77.1278C92.34 77.8518 92.4298 78.4862 91.5234 78.6653V78.8482C93.0666 89.614 98.6964 97.4879 108.233 102.645Z"
        fill="#21201D" />
    <path
        d="M225.582 124.453C229.839 124.995 234.057 125.812 238.209 126.897C254.469 131.058 269.545 137.663 282.356 148.612C282.899 149.063 283.528 150.169 284.083 149.519C284.809 148.612 283.536 148.25 282.993 147.798C273.362 139.473 262.286 133.681 250.292 129.431C242.254 126.583 233.948 124.551 225.5 123.367C225.136 123.277 224.589 123.277 224.5 123.729C224.492 124.453 225.218 124.363 225.582 124.453Z"
        fill="#21201D" />
    <path
        d="M291.611 192.045C288.876 198.019 288.251 204.262 290.341 210.595C293.503 205.855 295.579 200.48 296.42 194.851C296.753 192.604 296.906 190.334 296.877 188.063C296.877 186.895 296.784 185.728 296.694 184.537C294.428 186.615 292.904 189.242 291.611 192.045Z"
        fill="#21201D" />
    <path
        d="M296.788 187.973C296.824 190.245 296.672 192.515 296.334 194.761C296.719 192.52 296.871 190.246 296.788 187.973Z"
        fill="#21201D" />
    <path
        d="M171.449 229.507C176.172 224.447 174.356 218.196 167.542 216.476C165.551 215.98 163.511 215.71 161.459 215.67C157.826 215.581 154.818 214.405 153.556 210.692C153.087 209.377 152.91 207.976 153.035 206.586C153.16 205.197 153.586 203.85 154.282 202.639C156.099 199.475 158.826 197.303 162.002 195.583C162.366 195.4 163.092 195.131 162.729 194.497C162.366 193.773 161.822 194.407 161.459 194.586C158.642 196.143 156.099 197.933 154.192 200.561C151.739 203.998 151.012 207.796 152.829 211.778C154.556 215.67 158.006 216.577 161.912 216.756C162.399 216.741 162.885 216.771 163.366 216.846C165.182 217.029 167.089 217.301 168.816 218.013C172.992 219.819 174.176 223.801 171.55 227.604C170.735 228.706 169.79 229.708 168.738 230.589C164.921 233.757 160.471 235.474 155.658 236.56C155.952 236.841 156.225 237.145 156.474 237.466C162.276 236.112 167.452 233.851 171.449 229.507Z"
        fill="#21201D" />
    <path
        d="M155.736 236.474C156.031 236.755 156.304 237.058 156.553 237.381C156.304 237.058 156.031 236.755 155.736 236.474Z"
        fill="#21201D" />
    <path
        d="M101.333 164.717C100.06 162.382 101.06 160.646 103.783 160.736C104.399 160.731 105.012 160.823 105.6 161.008C109.417 162.005 112.866 163.814 116.226 165.897C119.133 167.707 122.04 166.259 122.477 162.818C122.571 162.158 122.571 161.489 122.477 160.829C122.114 158.023 120.297 156.034 118.301 154.212C114.304 150.593 109.671 147.697 105.041 144.98C104.678 145.163 104.225 145.163 104.041 145.525C104.494 146.159 105.213 146.338 105.858 146.693C110.397 149.316 114.843 152.212 118.574 155.921C120.207 157.552 121.481 159.451 121.481 161.896C121.481 164.791 119.117 166.691 116.402 164.698C112.98 162.317 109.123 160.627 105.049 159.724C103.142 159.272 101.416 159.63 100.236 161.261C99.1456 162.709 99.7785 164.157 100.599 165.605C103.412 170.583 100.599 175.83 94.8755 176.371L95.4185 177.457C102.06 176.028 104.596 170.602 101.333 164.717Z"
        fill="#21201D" />
    <path
        d="M190.249 294.113C190.681 293.742 191.023 293.277 191.249 292.755C192.522 290.315 191.432 288.232 188.795 287.598C187.705 287.329 186.619 287.508 185.435 287.419C185.346 287.598 185.166 287.781 185.072 287.96C184.985 288.162 184.862 288.346 184.709 288.505H187.162C188.526 288.594 189.979 288.594 190.522 290.221C191.069 291.778 190.159 292.946 189.069 293.751C185.893 296.087 182.349 297.916 178.352 298.64C178.329 298.64 178.306 298.649 178.289 298.666C178.272 298.683 178.263 298.706 178.263 298.729C178.169 298.819 178.169 298.908 178.079 299.002C177.989 299.27 177.989 299.453 177.899 299.726C182.623 299.091 186.639 296.92 190.249 294.113Z"
        fill="#21201D" />
    <path
        d="M185.434 287.508C185.344 287.691 185.165 287.87 185.072 288.053C185.165 287.87 185.344 287.691 185.434 287.508Z"
        fill="#21201D" />
    <path
        d="M176.352 262.536C176.352 262.805 176.446 262.988 176.446 263.26C182.075 259.368 188.166 256.2 194.066 252.852C193.887 252.472 193.674 252.108 193.429 251.766C187.799 255.114 182.075 258.461 176.446 261.812C176.362 262.044 176.33 262.291 176.352 262.536Z"
        fill="#21201D" />
    <path
        d="M176.352 262.536C176.352 262.805 176.445 262.987 176.445 263.26C176.374 263.026 176.342 262.781 176.352 262.536Z"
        fill="#21201D" />
    <path
        d="M194.062 252.763C193.884 252.382 193.67 252.019 193.425 251.677C193.67 252.019 193.884 252.382 194.062 252.763Z"
        fill="#21201D" />
    <path
        d="M237.751 283.005C237.841 282.911 237.935 282.822 237.935 282.732C237.841 282.732 237.662 282.643 237.572 282.643C237.572 282.713 237.662 282.802 237.751 283.005Z"
        fill="#21201D" />
    <path d="M270.268 277.825C270.268 277.917 270.356 277.917 270.268 277.825V277.825Z"
        fill="#21201D" />
    <path
        d="M228.215 266.424L228.035 266.607C228.125 266.697 228.215 266.876 228.305 266.786C228.489 266.697 228.305 266.607 228.215 266.424Z"
        fill="#21201D" />
    <path
        d="M227.941 266.697C228.035 266.786 228.125 266.969 228.215 266.876C228.215 266.876 228.035 266.697 227.941 266.697Z"
        fill="#21201D" />
    <path
        d="M140.66 255.565C140.57 255.476 140.386 255.565 140.207 255.565L140.476 255.838C140.66 255.838 140.75 255.76 140.66 255.565Z"
        fill="#21201D" />
    <path
        d="M284.255 159.109C284.27 159.08 284.278 159.047 284.276 159.013C284.274 158.98 284.264 158.948 284.245 158.92C284.227 158.893 284.202 158.87 284.172 158.855C284.142 158.841 284.108 158.834 284.075 158.837C283.981 158.93 283.892 158.93 283.892 159.02C283.981 159.02 284.165 159.109 284.255 159.109Z"
        fill="#21201D" />
    <path
        d="M283.802 159.019C283.927 159.025 284.051 159.056 284.165 159.109C284.051 159.056 283.927 159.025 283.802 159.019Z"
        fill="#21201D" />
    <path
        d="M254.918 142.108C255.008 142.018 255.008 142.018 254.918 141.929H254.828C254.828 141.929 254.738 142.018 254.828 142.018C254.828 142.042 254.837 142.065 254.854 142.082C254.871 142.099 254.894 142.108 254.918 142.108Z"
        fill="#21201D" />
    <path
        d="M227.399 192.59C227.309 191.955 226.762 192.138 226.399 192.228C224.055 192.679 221.675 193.224 218.679 193.041C217.983 193.087 217.285 193.087 216.589 193.041C211.865 192.679 211.049 191.593 212.502 187.16C212.524 187.023 212.589 186.897 212.686 186.798C213.682 183.357 212.049 180.57 208.506 179.741C206.236 179.196 204.239 179.831 202.149 180.644C197.609 182.544 193.339 185.167 189.069 187.701C187.897 188.425 186.725 189.059 185.256 189.149C183.256 189.242 182.26 188.246 182.166 186.253C182.076 183.813 183.338 182.003 184.803 180.282C187.889 176.663 192.066 174.491 196.336 172.681C200.969 170.782 205.783 169.334 210.322 167.072C213.139 165.624 215.862 163.994 218.042 161.643C218.316 161.37 218.863 161.008 218.405 160.557C217.948 160.105 217.589 160.646 217.315 160.919C215.947 162.27 214.424 163.455 212.776 164.449C208.236 167.251 203.239 168.793 198.321 170.676C192.96 172.755 187.772 175.11 183.865 179.543C182.138 181.536 180.869 183.614 180.959 186.42C181.048 188.682 182.596 190.04 184.776 190.13C186.772 190.13 188.315 189.227 189.952 188.23C193.222 186.237 196.492 184.338 199.852 182.711C201.848 181.715 203.849 180.812 206.103 180.539C210.1 180.177 212.549 183.073 211.279 186.767C211.1 187.401 210.826 188.032 210.643 188.666C210.01 191.021 210.826 192.737 213.186 193.372C217.636 194.539 222.09 194.096 226.446 193.099C227.036 193.131 227.489 193.041 227.399 192.59Z"
        fill="#21201D" />
    <path
        d="M219.589 147.798C222.222 148.701 224.855 148.522 227.488 148.16C231.032 147.709 234.392 146.802 237.478 146.712C240.842 146.623 242.748 146.985 244.655 147.977C247.472 149.335 249.288 152.321 249.015 155.127C248.741 157.852 247.015 159.288 244.655 160.105C243.109 160.648 241.439 160.741 239.842 160.374C237.752 160.012 235.755 159.206 233.849 158.474C233.392 158.295 232.759 157.661 232.485 158.474C232.212 159.109 232.938 159.288 233.392 159.381C235.118 160.012 236.751 160.736 238.47 161.191C239.871 161.615 241.345 161.746 242.798 161.574C244.252 161.403 245.655 160.933 246.917 160.195C249.46 158.638 250.64 156.123 250.007 153.228C249.187 149.335 246.464 147.074 242.741 146.078C238.47 144.992 234.204 145.809 230.024 146.623C226.754 147.164 223.382 147.79 220.034 146.802C217.764 146.078 216.58 144.723 216.674 142.909C216.764 140.917 218.307 139.196 220.487 138.745C221.712 138.488 222.974 138.457 224.211 138.655C224.574 138.745 225.211 138.834 225.211 138.204C225.301 137.659 224.664 137.659 224.3 137.569C222.764 137.206 221.154 137.301 219.671 137.842C217.127 138.655 215.584 140.644 215.49 142.999C215.682 145.264 216.952 146.895 219.589 147.798Z"
        fill="#21201D" />
    <path
        d="M246.198 233.489C245.929 231.317 244.112 230.593 242.292 230.048C239.928 229.328 237.385 229.145 235.025 228.604C232.755 228.148 230.575 227.335 228.938 225.615C226.942 223.536 226.668 221.271 228.211 218.92C229.775 216.514 231.61 214.294 233.681 212.303C234.044 211.941 234.497 211.49 233.954 211.035C233.501 210.673 233.228 211.217 232.864 211.49C230.688 213.613 228.767 215.981 227.141 218.546C225.578 221.08 225.777 223.704 227.778 225.875C229.684 228.137 232.228 229.133 235.044 229.678C237.494 230.13 239.947 230.309 242.311 231.122C243.581 231.578 244.944 231.94 245.124 233.457C245.397 235.084 244.491 236.353 243.217 237.256C240.873 238.977 238.404 238.887 235.771 237.891C234.045 237.157 232.45 236.148 231.048 234.905C230.774 234.633 230.321 234.271 229.958 234.722C229.684 234.995 229.958 235.267 230.231 235.54C232.775 237.801 235.587 239.521 239.041 239.701C240.584 239.611 241.948 239.339 243.217 238.533C245.108 237.466 246.472 235.839 246.198 233.489Z"
        fill="#21201D" />
    <path
        d="M125.857 82.7401C124.946 81.6542 124.946 80.9302 126.31 80.3853C126.673 80.2063 127.216 79.9338 126.853 79.3889C126.583 78.9374 126.126 79.2994 125.681 79.4823C123.411 80.65 122.231 83.9155 123.337 86.1769C123.516 86.5389 123.606 86.9008 124.063 86.8113C124.517 86.6284 124.333 86.1769 124.333 85.8149C124.153 84.8185 123.79 83.7326 124.517 82.5571C125.786 84.2775 126.861 85.9044 128.06 87.5352C128.33 87.8972 128.603 88.3487 129.056 87.9867C129.509 87.6248 129.146 87.1733 128.877 86.9008C127.853 85.6359 126.947 84.114 125.857 82.7401Z"
        fill="#21201D" />
    <path
        d="M151.376 75.0491C151.196 74.5042 150.649 74.7767 150.286 74.8662C148.289 75.5902 146.199 75.7731 144.109 75.9521C143.566 75.9521 143.019 75.8626 142.566 75.8626C142.113 75.8626 141.476 75.5902 141.394 76.3141C141.394 76.8551 142.031 76.8551 142.394 76.8551C145.188 77.1127 148.005 76.7743 150.657 75.8626C150.923 75.7731 151.559 75.5902 151.376 75.0491Z"
        fill="#21201D" />
    <path
        d="M129.486 153.784C142.84 171.159 161.913 177.492 182.166 171.159C190.612 168.536 197.152 163.741 199.879 154.964C202.223 147.273 201.149 139.671 198.789 132.159C198.729 131.863 198.57 131.595 198.34 131.398C198.109 131.202 197.819 131.087 197.516 131.074C194.882 131.074 192.339 130.984 189.702 130.801C188.792 130.801 188.53 131.074 188.428 131.969C188.368 133.634 188.217 135.294 187.975 136.943C186.639 144.832 183.076 151.328 175.536 154.952C174.364 155.493 173.192 155.945 171.902 156.49C174.176 158.299 175.446 160.471 175.356 163.274C175.262 165.718 173.993 167.617 172.086 168.162C170.18 168.707 168 167.89 166.636 165.807C164.909 163.184 164.73 160.378 166.452 157.303C159.733 157.486 153.919 155.131 148.743 151.422C143.293 147.53 138.753 142.645 134.936 137.215C134.303 136.309 133.764 135.947 132.666 136.309C129.306 137.215 125.946 138.118 122.587 138.842C121.133 139.204 121.024 139.749 121.676 141.014C123.82 145.534 126.438 149.814 129.486 153.784Z"
        fill="#F5C562" />
    <path
        d="M146.653 148.612C151.649 152.683 157.099 155.941 163.729 156.213C179.442 156.848 187.346 145.447 187.526 131.782C187.526 130.879 187.072 130.786 186.354 130.786H179.442C176.083 130.879 176.083 130.879 177.352 133.954C177.626 134.499 178.524 135.402 177.626 135.764C176.727 136.126 176.715 134.861 176.454 134.226C175.18 131.147 173.91 128.162 170.82 126.263C168.007 124.542 165.554 122.371 162.921 120.382C162.467 120.02 161.748 119.837 162.01 119.214C162.284 118.49 163.01 118.942 163.464 119.031C171.457 120.199 177.723 116.497 180.263 109.079C181.001 106.897 181.249 104.579 180.99 102.291C180.447 96.8612 180.99 97.5852 175.911 96.4992C169.734 95.2343 163.651 96.1373 157.654 97.5851C157.111 97.6786 156.295 98.4025 156.111 97.4956C155.931 96.6822 156.927 96.7717 157.474 96.5926C164.647 94.7828 171.93 93.9654 179.181 96.1373C179.454 96.2307 179.634 96.2307 179.907 95.8687C178.638 91.4316 176.637 87.2709 174.188 83.0245C172.914 84.6553 171.644 85.9203 171.551 87.9131C171.551 88.275 171.371 88.7265 170.918 88.5436C170.554 88.4541 170.644 88.0921 170.644 87.7301C170.644 86.4652 171.281 85.3948 172.008 84.2933C172.824 83.2074 173.641 82.1215 174.352 80.946C174.899 80.1287 175.352 79.2257 174.625 78.4122C173.989 77.6883 173.063 77.7778 172.172 78.0503C171.898 78.1398 171.535 78.2293 171.265 78.3188C168.722 79.4865 166.269 79.0428 163.815 78.1398C163.362 77.9568 162.456 77.8673 162.819 77.1434C163.089 76.6024 163.725 77.0539 164.179 77.2329C165.905 77.7778 167.632 78.3188 169.449 77.8673C170.355 77.5949 170.719 77.4158 170.082 76.4194C168.359 73.7961 168.449 73.7961 165.269 74.2476C164.458 74.3701 163.636 74.4014 162.819 74.341C155.822 74.1581 149.012 72.6207 142.382 70.5383C140.292 69.9039 140.292 69.8144 139.839 72.0758C138.929 76.9643 137.659 81.7595 134.662 85.8307C134.205 86.4652 133.752 87.0996 132.846 86.9167C132.025 86.7376 132.025 85.9203 131.846 85.2897C131.119 82.7559 130.209 80.3116 128.212 78.5018C127.04 77.4158 125.669 76.7814 124.126 77.4158C122.672 77.9568 122.125 79.3152 121.856 80.7631C121.219 84.8343 123.762 89.7151 127.396 91.7118C129.845 93.0702 131.482 92.5253 132.572 89.902C132.752 89.4505 132.662 88.7343 133.389 88.8161C134.026 88.9056 133.936 89.54 134.116 89.9837L146.106 132.062C146.469 133.327 146.106 133.689 144.934 133.872C142.296 134.234 139.663 134.775 137.03 135.137C135.577 135.32 135.123 135.588 136.213 136.947C139.127 141.303 142.641 145.23 146.653 148.612ZM129.306 87.808C128.853 88.17 128.58 87.625 128.306 87.3526C127.134 85.7257 126.036 84.0948 124.766 82.3784C124.04 83.546 124.403 84.5502 124.583 85.6361C124.673 85.9981 124.766 86.4496 124.309 86.6286C123.852 86.8077 123.676 86.3601 123.583 85.9981C122.586 83.7329 123.766 80.4751 125.927 79.2997C126.29 79.1206 126.743 78.7586 127.099 79.2101C127.454 79.6616 126.919 80.0236 126.556 80.2065C125.282 80.8371 125.192 81.4715 126.099 82.5418C127.189 83.9002 128.099 85.3481 129.095 86.796C129.396 87.084 129.759 87.446 129.306 87.808ZM142.566 76.5868C142.203 76.5868 141.566 76.5868 141.566 76.0419C141.566 75.3179 142.292 75.5904 142.738 75.5904C143.183 75.5904 143.734 75.6799 144.281 75.6799C146.277 75.5904 148.368 75.4114 150.458 74.594C150.821 74.415 151.364 74.232 151.548 74.7769C151.731 75.3218 151.184 75.5009 150.821 75.5904C148.173 76.5072 145.358 76.8469 142.566 76.5868Z"
        fill="#F5C562" />
    <path
        d="M62.3667 239.642C64.5467 235.478 66.8166 231.317 69.0083 227.156C73.341 219.01 81.7133 215.39 90.531 218.006C100.251 220.995 105.518 230.85 100.068 240.191C99.0999 241.83 98.221 243.519 97.4343 245.251C96.5241 247.061 96.524 247.061 98.5243 247.244C112.98 248.692 127.497 249.867 142.031 250.408C145.117 250.502 148.114 250.591 151.114 250.77C151.747 250.77 152.927 250.408 152.927 251.405C152.927 252.218 151.841 251.766 151.204 251.856C150.204 251.949 149.114 251.494 148.297 252.039C145.052 253.991 141.928 256.136 138.94 258.461C138.577 258.734 138.214 259.095 138.397 259.547C138.581 259.998 139.034 260.092 139.487 260.002C140.038 259.953 140.584 259.862 141.12 259.73C146.117 258.282 150.841 256.2 155.017 253.214C160.83 248.96 161.268 243.169 156.189 238.011C153.193 234.937 149.469 232.952 145.473 231.395C138.116 228.67 130.76 226.148 123.493 223.342C113.23 219.36 103.783 213.841 94.7933 207.325C89.5018 203.443 83.7702 200.194 77.7166 197.646C77.2634 197.463 76.6266 197.463 76.6266 196.828C76.6266 196.287 77.2634 196.198 77.7987 196.104C78.5796 195.942 79.3685 195.821 80.1623 195.742C82.8971 195.563 85.4287 196.198 87.9759 197.011C92.0625 198.276 96.149 199.634 100.603 198.732C101.775 198.459 101.962 198.187 101.693 197.011C99.419 188.059 96.149 179.457 91.2459 171.494C87.9759 166.337 84.2527 161.542 79.3497 157.832C78.623 157.287 77.9862 156.746 76.8962 157.287C66.9963 162.534 57.7293 168.688 49.8297 176.834C49.4664 177.196 48.8296 177.375 49.0132 178.189C49.4664 178.099 49.9196 178.099 50.2829 178.009C54.6429 177.648 58.9131 176.651 63.2731 177.103C64.9061 177.286 66.3595 177.827 66.7228 179.636C67.0862 181.54 66.3595 182.894 64.3787 183.801C62.4683 184.704 60.382 184.969 58.2919 185.358C52.752 186.171 47.1184 186.806 41.7621 188.705C41.0355 188.978 40.3088 189.157 39.8556 189.974C38.1288 193.232 36.4918 196.591 35.5854 200.199C42.7623 206.259 48.2084 213.409 50.2087 222.82C51.2088 227.526 51.1151 232.228 50.3884 236.933C48.3641 236.067 46.4453 234.974 44.6688 233.676C46.4453 234.974 48.3641 236.067 50.3884 236.933C53.6584 238.654 57.2019 239.561 60.6516 240.736C61.64 241.001 62.0112 240.366 62.3667 239.642Z"
        fill="#F5C562" />
    <path
        d="M243.475 201.094C246.562 209.419 249.015 217.562 251.469 226.249C255.192 219.193 258.552 212.588 262.095 205.889C255.829 204.262 249.832 202.725 243.475 201.094Z"
        fill="#F5C562" />
    <path
        d="M254.465 257.83C251.285 257.558 248.214 257.106 245.018 257.558C243.928 257.737 242.283 257.558 242.112 259.006C241.932 260.364 243.475 260.726 244.565 261.178C249.378 262.988 254.375 263.439 259.915 263.902C258.278 261.913 257.008 260.193 255.735 258.566C255.6 258.349 255.413 258.169 255.192 258.04C254.971 257.912 254.721 257.84 254.465 257.83Z"
        fill="#F5C562" />
    <path
        d="M283.438 254.935C284.528 254.211 284.528 253.666 283.711 252.673C280.078 248.147 276.445 243.531 272.811 239.008C271.995 238.012 271.358 236.474 270.358 236.112C269.088 235.75 268.272 237.56 267.088 238.105C264.908 239.821 262.822 241.542 260.642 243.262C259.403 244.364 258.098 245.391 256.735 246.337C255.735 247.061 255.829 247.505 256.555 248.33C260.821 253.666 265.092 259.006 269.268 264.436C269.995 265.339 270.44 265.249 271.174 264.615C272.538 263.529 273.909 262.536 275.265 261.45C277.261 259.893 279.262 258.282 281.258 256.745C281.942 256.092 282.671 255.488 283.438 254.935ZM262.275 246.609C262.274 246.007 262.393 245.41 262.627 244.854C262.86 244.298 263.203 243.794 263.634 243.372C264.066 242.949 264.578 242.617 265.14 242.394C265.702 242.172 266.303 242.063 266.908 242.075C267.513 242.087 268.109 242.219 268.662 242.464C269.215 242.708 269.714 243.061 270.128 243.5C270.542 243.939 270.865 244.456 271.076 245.02C271.287 245.585 271.383 246.186 271.358 246.788C271.354 247.373 271.232 247.95 271 248.487C270.768 249.024 270.431 249.509 270.008 249.914C269.584 250.319 269.084 250.635 268.537 250.844C267.989 251.053 267.405 251.151 266.818 251.132C265.615 251.129 264.462 250.652 263.61 249.804C262.759 248.957 262.279 247.808 262.275 246.609ZM273.628 259.454C272.411 259.418 271.253 258.921 270.392 258.062C269.531 257.204 269.033 256.05 268.998 254.837C269.077 253.663 269.58 252.558 270.415 251.725C271.25 250.893 272.36 250.39 273.538 250.311C274.756 250.346 275.914 250.844 276.775 251.702C277.637 252.56 278.136 253.714 278.172 254.927C278.153 256.122 277.669 257.264 276.821 258.109C275.973 258.955 274.828 259.438 273.628 259.457V259.454Z"
        fill="#F5C562" />
    <path
        d="M255.555 143.003C259.462 152.321 260.548 162.094 259.368 172.046C258.551 179.379 256.371 186.253 253.285 192.951C253.011 193.586 252.375 194.31 253.648 194.761C258.008 196.318 266.541 195.929 269.994 190.597C270.178 190.328 270.358 190.056 270.721 190.235C270.789 190.275 270.847 190.328 270.894 190.392C270.94 190.455 270.973 190.527 270.99 190.604C271.007 190.68 271.008 190.76 270.994 190.837C270.979 190.914 270.949 190.987 270.905 191.052C270.631 191.593 270.358 192.138 270.088 192.768C264.091 204.173 258.008 215.573 252.011 227.062C251.919 227.175 251.855 227.308 251.824 227.45C251.792 227.592 251.795 227.739 251.832 227.88C252.738 231.858 253.738 235.839 254.738 240.004C259.817 236.022 264.638 232.22 269.541 228.421C272.358 226.249 272.358 226.249 274.718 228.872C275.171 229.328 275.355 229.779 275.991 229.055C281.07 222.991 286.255 216.931 290.615 210.322C288.524 203.99 289.251 197.747 291.884 191.776C293.074 188.988 294.768 186.442 296.881 184.264C296.971 185.432 297.061 186.599 297.061 187.794C297.061 186.627 296.971 185.439 296.881 184.264C296.608 180.734 295.709 177.386 294.607 174.039C294.405 173.369 294.054 172.753 293.581 172.237C293.108 171.72 292.524 171.316 291.873 171.054C287.333 168.699 282.516 167.162 277.808 165.352C275.808 164.628 273.811 163.904 272.174 162.627C270.721 161.541 270.268 160.093 270.905 158.373C271.538 156.746 273.249 156.201 275.718 156.563C278.625 157.015 281.258 158.194 284.164 158.825L284.344 158.646C283.939 158.12 283.484 157.635 282.985 157.198C275.171 149.958 265.818 145.435 255.918 141.995C255.735 141.905 255.465 141.995 255.281 141.995C255.306 142.345 255.399 142.688 255.555 143.003Z"
        fill="#F5C562" />
    <path
        d="M123.766 259.457C124.195 259.448 124.621 259.388 125.036 259.278C132.213 257.92 138.753 254.751 145.293 251.766C142.112 251.677 138.932 250.68 135.846 251.677C132.311 252.829 128.907 254.344 125.688 256.199C124.782 256.744 123.961 257.367 123.055 257.92C122.692 258.192 122.238 258.554 122.508 259.006C122.778 259.457 123.313 259.457 123.766 259.457Z"
        fill="#F5C562" />
    <path
        d="M227.942 286.695C227.852 285.881 228.035 284.795 226.945 284.523C225.945 284.25 225.383 285.157 224.945 285.881C223.681 287.773 222.788 289.886 222.312 292.109C222.038 293.666 221.769 295.184 222.765 296.632C223.312 297.445 223.765 298.531 224.945 298.352C226.125 298.173 226.582 297.083 226.762 295.997C227.215 293.195 227.578 290.388 227.934 288.038C227.942 287.329 228.051 286.967 227.942 286.695Z"
        fill="#F5C562" />
    <path
        d="M220.585 290.494C221.406 290.856 221.675 290.583 221.859 289.859C222.496 286.695 223.492 283.527 223.582 280.269V278.459C223.492 277.918 223.675 277.101 222.949 276.902C222.312 276.719 222.038 277.443 221.777 277.899C220.075 280.335 218.843 283.066 218.143 285.952C217.503 288.065 218.405 289.591 220.585 290.494Z"
        fill="#F5C562" />
    <path
        d="M230.395 304.801C228.762 304.622 229.578 303.898 229.758 303.174C230.625 300.534 231.175 297.801 231.395 295.032V294.487C231.305 293.852 231.758 292.93 231.032 292.677C230.305 292.424 229.942 293.311 229.578 293.845C227.125 297.285 226.488 301.084 227.398 305.066C227.534 305.882 227.975 306.617 228.632 307.122C229.29 307.628 230.115 307.866 230.942 307.79C231.305 307.79 232.032 307.79 231.758 307.156C231.305 306.237 230.848 304.883 230.395 304.801Z"
        fill="#F5C562" />
    <path
        d="M228.399 266.152C227.399 264.074 226.489 261.991 225.492 260.002C225.082 259.156 224.497 258.404 223.777 257.796C223.057 257.188 222.218 256.737 221.312 256.472C218.136 255.476 215.229 256.021 212.955 258.461C210.685 260.796 211.049 263.521 212.592 266.152C213.049 266.969 213.412 267.783 213.866 268.686C215.592 272.306 217.409 275.836 219.226 279.635C219.952 278.549 220.585 277.735 221.222 276.832C221.675 276.198 222.312 275.563 223.219 275.836C224.125 276.108 224.309 276.922 224.492 277.735C224.611 278.27 224.642 278.821 224.582 279.366C224.492 281.176 224.309 282.986 224.219 285.064C224.582 284.702 224.766 284.613 224.945 284.434C225.672 283.71 226.508 283.165 227.579 283.616C228.649 284.068 228.942 285.064 228.942 286.061C228.972 287.179 228.912 288.299 228.762 289.408C228.669 290.677 228.399 292.031 228.215 293.573C228.441 293.407 228.654 293.225 228.852 293.028C229.579 292.304 230.216 291.218 231.485 291.763C232.575 292.214 232.396 293.39 232.396 294.386C232.396 297.009 231.759 299.543 231.224 302.077C231.134 302.528 230.77 302.98 231.044 303.525C232.044 305.607 233.04 307.686 234.314 310.04C235.31 306.962 237.049 305.152 239.67 304.159C242.292 303.167 244.851 303.704 247.378 304.802C247.472 303.899 247.015 303.447 246.745 302.902C244.202 297.745 241.475 292.677 239.115 287.431C237.209 283.266 234.935 279.467 231.032 276.922C229.669 276.019 228.579 274.66 227.399 273.485C226.458 272.503 225.691 271.37 225.129 270.134C224.582 268.779 224.492 267.51 225.492 266.335C226.582 265.07 227.399 266.697 228.305 266.607C228.305 266.246 228.399 266.152 228.399 266.152Z"
        fill="#F5C562" />
    <path
        d="M235.572 309.589C235.336 310.493 235.338 311.442 235.577 312.345C235.816 313.248 236.283 314.075 236.935 314.746C237.655 315.571 238.55 316.227 239.555 316.665C240.561 317.104 241.652 317.313 242.749 317.28C246.562 317.28 249.832 314.835 250.105 311.578C250.379 308.23 247.925 305.35 244.202 304.7C240.205 303.976 236.388 306.148 235.572 309.589Z"
        fill="#F5C562" />
    <path
        d="M100.876 165.173C100.06 163.725 99.4229 162.367 100.513 160.829C101.685 159.198 103.513 158.93 105.326 159.272C109.395 160.194 113.249 161.884 116.679 164.251C119.496 166.243 121.758 164.25 121.758 161.444C121.758 158.914 120.488 157.104 118.852 155.474C115.038 151.764 110.678 148.857 106.139 146.245C105.502 145.883 104.775 145.7 104.322 145.078C102.779 145.257 101.415 146.07 99.962 146.634C92.874 149.442 85.9343 152.608 79.1699 156.12C80.7131 157.478 82.2563 158.743 83.7096 160.101C88.5268 164.714 91.9765 170.221 95.2465 175.935C100.876 175.398 103.693 170.132 100.876 165.173Z"
        fill="#F5C562" />
    <path
        d="M224.582 299.453C223.987 299.301 223.446 298.987 223.019 298.546C221.476 297.009 221.023 295.199 221.202 293.117C221.292 292.576 221.566 292.031 220.659 291.56C216.569 289.299 216.026 288.123 217.569 283.869C218.116 282.421 217.659 281.97 216.397 281.425C213.037 279.868 209.755 278.35 206.86 276.088C205.86 275.275 204.317 274.368 204.954 272.831C205.591 271.293 207.224 271.745 208.404 271.924C210.494 272.196 212.58 272.741 214.76 273.193C214.397 271.383 213.4 270.659 211.49 270.297C206.044 269.39 201.774 266.494 199.141 261.43C197.597 258.441 195.96 255.456 194.327 252.478C188.42 255.826 182.337 258.994 176.704 262.886C176.524 266.233 176.251 269.581 176.071 273.111C181.337 271.663 186.424 270.215 191.421 268.767C194.507 267.95 194.417 267.95 195.328 270.846C195.691 272.013 195.511 272.566 194.238 272.838C191.893 273.38 189.608 274.197 187.244 274.738C185.975 275.1 185.428 275.462 185.975 276.91C187.147 280.257 187.791 283.698 185.611 287.029C186.701 287.119 187.791 286.94 188.971 287.208C191.604 287.843 192.694 289.933 191.425 292.366C191.175 292.874 190.836 293.334 190.424 293.724C186.791 296.53 182.794 298.702 178.161 299.337C178.168 299.085 178.231 298.837 178.345 298.613C178.255 298.881 178.255 299.064 178.161 299.337C177.165 301.143 177.165 303.135 176.891 305.035C176.708 306.393 177.165 306.845 178.618 306.755C187.881 306.121 197.238 305.307 206.501 304.311C212.404 303.676 218.307 302.863 224.301 302.139C225.863 301.96 226.027 301.143 226.027 299.967C226.125 298.546 225.035 299.632 224.582 299.453Z"
        fill="#F5C562" />
    <path
        d="M214.956 274.477C212.686 273.753 210.322 273.029 207.963 272.92C207.326 272.92 206.4 272.558 206.056 273.193C205.693 274.006 206.509 274.458 207.052 274.913C210.416 277.638 214.409 279.436 218.316 281.246C218.499 281.156 218.589 281.063 218.769 280.973C217.774 278.983 216.775 276.993 215.772 275.003C215.68 274.864 215.56 274.745 215.419 274.655C215.279 274.565 215.121 274.504 214.956 274.477Z"
        fill="#F5C562" />
    <path
        d="M190.796 289.953C190.249 288.322 188.795 288.322 187.436 288.232H184.982C185.071 288.033 185.194 287.85 185.346 287.691C185.258 287.892 185.135 288.075 184.982 288.232C182.529 291.401 180.079 294.46 178.626 298.278C182.623 297.554 186.072 295.744 189.342 293.389C190.432 292.576 191.327 291.49 190.796 289.953Z"
        fill="#F5C562" />
    <path
        d="M267.272 275.835C266.908 275.746 266.271 275.746 266.271 275.201C266.271 274.57 266.908 274.75 267.272 274.75C269.088 274.839 270.811 275.022 272.628 275.111C273.355 275.111 274.265 275.201 274.445 274.298C274.624 273.395 273.991 272.94 273.355 272.578C269.542 270.358 265.13 269.377 260.732 269.771C259.821 269.865 258.641 270.133 258.388 271.328C258.134 272.523 258.751 273.407 259.661 274.053C262.837 276.249 266.601 277.447 270.467 277.49C269.995 275.746 268.541 276.018 267.272 275.835Z"
        fill="#F5C562" />
    <path
        d="M274.445 284.34C273.442 284.372 272.439 284.312 271.448 284.161C270.995 284.072 270.276 284.34 270.448 283.527C270.542 282.892 271.085 283.165 271.538 283.254C273.628 283.437 275.718 283.616 277.808 283.075C278.262 282.986 278.898 282.892 278.98 282.351C279.063 281.81 278.527 281.538 278.07 281.265C275.726 279.907 273.167 279.272 270.44 278.93C268.897 278.751 267.354 278.568 265.811 278.93C263.357 279.475 262.72 281.265 264.447 283.095C265.498 284.253 266.85 285.1 268.354 285.539C271.261 286.531 274.347 286.531 277.527 286.263C276.886 284.702 275.898 284.251 274.445 284.34Z"
        fill="#F5C562" />
    <path
        d="M257.371 271.402C258.008 269.592 257.461 267.872 257.461 266.062C257.461 264.797 256.918 264.505 255.828 264.435C253.162 264.23 250.519 263.801 247.925 263.155C245.835 262.703 243.655 262.162 241.932 260.714C240.369 259.356 240.568 257.725 242.475 256.912C243.052 256.666 243.666 256.513 244.291 256.46C247.472 255.826 250.648 256.371 254.191 256.55C251.648 253.381 249.378 250.49 247.108 247.598C246.471 246.78 246.471 246.329 247.288 245.694C249.105 244.34 250.742 242.892 252.558 241.623C253.465 240.993 253.648 240.358 253.375 239.288C250.475 225.516 246.496 211.992 241.475 198.84C237.478 188.331 232.938 178.029 227.941 167.983C227.672 167.531 226.945 166.815 227.762 166.446C228.488 166.084 228.668 167.169 228.852 167.613C230.215 170.419 231.848 173.226 232.938 176.122C234.575 180.465 237.388 183.812 240.752 186.798C243.928 189.592 247.194 192.317 251.374 193.765C251.648 194.306 251.285 194.668 251.011 195.123C250.105 196.75 249.194 198.47 248.276 200.097C248.093 200.459 247.64 200.821 248.276 201.183C248.73 201.366 248.913 201.004 249.093 200.642C250.093 198.832 250.999 197.023 252 195.302C252.547 194.399 251.726 194.216 251.457 193.765C251.824 193.182 252.157 192.577 252.453 191.955C255.387 185.688 257.318 179.002 258.176 172.14C259.446 161.822 258.176 151.78 253.906 142.17C253.733 141.712 253.454 141.3 253.091 140.97C252.729 140.639 252.293 140.398 251.82 140.267C235.286 135.11 218.303 132.397 201.031 131.221C199.668 131.128 199.488 131.4 199.859 132.669C201.547 137.614 202.255 142.838 201.945 148.051C201.402 157.462 197.316 165.06 188.775 169.225C171.976 177.278 155.536 176.554 140.003 165.605C131.103 159.377 125.016 150.674 120.387 140.991C119.84 139.823 119.386 139.636 118.207 139.998C113.757 141.446 109.397 142.8 105.037 144.521C104.752 144.569 104.476 144.66 104.22 144.793C104.476 144.66 104.752 144.569 105.037 144.521C109.76 147.245 114.3 150.04 118.296 153.749C120.293 155.559 122.109 157.552 122.473 160.366C122.567 161.027 122.567 161.698 122.473 162.359C122.02 165.796 119.203 167.243 116.222 165.434C112.862 163.355 109.412 161.541 105.595 160.549C105.007 160.369 104.394 160.277 103.779 160.276C101.044 160.276 100.055 161.997 101.329 164.258C104.505 170.233 101.962 175.569 95.3321 177.017L94.7891 175.931L95.3321 177.017C95.7853 178.013 96.2424 178.916 96.6057 179.913C98.9854 185.222 100.875 190.737 102.251 196.388C102.435 197.023 102.251 198.198 103.525 197.836C107.975 196.571 111.424 198.381 114.515 201.183C117.328 203.717 120.508 205.438 124.321 206.072C126.864 206.523 128.775 208.15 130.134 210.416C130.681 211.408 130.587 211.972 129.407 212.315C127.774 212.766 126.231 213.401 124.594 213.763C123.688 214.035 123.422 214.397 123.504 215.3C123.688 217.11 123.778 219.01 123.778 220.819C123.778 221.987 124.231 222.719 125.411 223.081C128.864 224.248 132.314 225.525 135.768 226.794C142.577 229.328 149.754 231.227 155.474 236.022C160.291 234.936 164.741 233.298 168.554 230.048C169.63 229.191 170.578 228.185 171.371 227.062C174.004 223.264 172.824 219.278 168.636 217.472C166.892 216.806 165.055 216.412 163.19 216.304C162.733 216.215 162.19 216.304 161.736 216.215C157.919 216.032 154.376 215.219 152.653 211.237C150.836 207.255 151.563 203.546 154.013 200.016C155.923 197.392 158.466 195.582 161.279 194.045C161.643 193.862 162.19 193.232 162.553 193.956C162.826 194.586 162.19 194.769 161.826 195.038C158.646 196.758 155.923 198.93 154.106 202.098C153.411 203.309 152.986 204.656 152.861 206.045C152.735 207.435 152.912 208.836 153.38 210.151C154.649 213.86 157.74 215.036 161.279 215.129C163.333 215.17 165.375 215.443 167.366 215.943C174.086 217.663 175.992 223.906 171.273 228.974C167.276 233.313 162.1 235.59 156.376 236.844C163.096 244.083 160.373 250.855 153.196 255.032C149.599 257.218 145.759 258.978 141.753 260.278C140.754 260.599 139.715 260.782 138.667 260.823C137.94 260.734 137.104 260.64 136.85 259.737C136.576 258.924 136.85 258.181 137.577 257.566C138.483 256.842 139.393 256.118 140.311 255.304L140.038 255.032C135.135 256.842 130.411 258.924 125.235 259.916C124.145 260.099 124.235 260.823 124.235 261.547C123.582 276.388 122.492 291.217 121.039 305.969C120.859 307.596 121.496 307.779 122.766 307.779C127.942 307.779 133.119 307.958 138.206 307.958C142.566 307.958 146.926 307.868 151.286 307.779C151.649 307.779 152.192 307.958 152.458 307.417C152.641 306.872 152.278 306.693 151.915 306.42C150.461 305.424 149.461 303.976 148.645 302.439C146.007 298.095 145.382 293.125 144.835 288.232C144.656 286.695 144.203 286.422 142.839 286.874C137.573 288.684 132.213 289.77 126.583 289.68C126.036 289.68 125.309 290.042 125.129 289.318C124.95 288.594 125.762 288.505 126.219 288.232C130.212 285.971 134.303 283.978 138.932 283.075C139.932 282.892 140.386 282.441 140.749 281.538C141.482 279.553 142.461 277.668 143.663 275.925C145.843 272.85 147.57 272.94 149.297 276.287C149.297 276.38 149.477 276.38 149.567 276.47C150.024 275.656 150.387 274.75 150.84 274.026C151.347 273.173 151.991 272.409 152.747 271.764C154.743 270.207 156.654 270.951 157.197 273.391C157.38 274.209 157.47 274.948 157.744 276.018C158.376 274.75 158.74 273.847 159.306 272.94C159.825 271.951 160.433 271.012 161.123 270.133C163.858 266.607 166.663 267.331 167.933 270.589C167.933 270.678 168.116 270.678 168.296 270.768C169.023 269.048 169.023 267.148 169.296 265.338C169.843 260.995 169.843 256.561 170.749 252.218C171.113 250.591 171.296 248.508 173.383 248.508C175.563 248.508 175.652 250.68 176.016 252.218C176.653 255.114 176.473 258.099 176.653 261.088C176.55 261.317 176.489 261.562 176.473 261.812C176.446 261.557 176.509 261.301 176.653 261.088C182.286 257.737 188.006 254.39 193.639 251.042L187.342 238.829C184.345 233.037 185.345 226.701 189.885 222.092C197.972 213.946 212.228 215.394 217.952 225.35C222.585 233.22 226.672 241.456 230.758 249.598C232.938 253.852 232.485 258.286 229.942 262.357C228.942 263.805 228.941 264.891 229.758 266.339C230.199 267.063 230.826 267.657 231.575 268.059C233.755 269.324 236.025 270.593 238.115 271.951C245.928 277.108 253.101 282.721 257.649 291.136C257.649 291.225 257.829 291.136 258.008 291.136C258.372 285.344 258.008 279.642 257.829 273.854C258.008 273.302 257.008 272.399 257.371 271.402ZM220.042 137.573C221.533 137.074 223.131 136.98 224.671 137.301C225.128 137.39 225.671 137.39 225.582 137.935C225.492 138.57 224.945 138.476 224.581 138.387C223.349 138.146 222.078 138.176 220.858 138.476C218.588 139.021 217.045 140.648 217.045 142.641C216.951 144.451 218.135 145.899 220.405 146.533C223.765 147.526 227.047 146.985 230.395 146.35C234.665 145.626 238.841 144.723 243.112 145.809C246.835 146.802 249.558 149.063 250.378 152.955C251.011 155.851 249.831 158.385 247.288 159.922C246.026 160.661 244.623 161.13 243.169 161.302C241.716 161.473 240.242 161.343 238.841 160.919C237.115 160.467 235.482 159.751 233.763 159.109C233.309 158.93 232.59 158.836 232.856 158.206C233.219 157.388 233.856 158.023 234.22 158.206C236.142 159.055 238.151 159.692 240.213 160.105C241.817 160.377 243.463 160.284 245.026 159.833C247.37 159.019 249.202 157.571 249.386 154.855C249.659 152.052 247.749 148.974 245.026 147.709C243.119 146.802 241.213 146.44 237.849 146.44C234.763 146.44 231.313 147.436 227.859 147.888C225.226 148.25 222.503 148.432 219.96 147.526C217.323 146.623 216.053 144.902 216.053 142.73C215.94 140.286 217.502 138.387 220.042 137.573ZM213.681 193.13C211.337 192.5 210.505 190.795 211.142 188.425C211.311 187.779 211.523 187.144 211.775 186.525C213.049 182.816 210.603 179.831 206.598 180.298C204.329 180.481 202.328 181.465 200.347 182.47C196.951 184.132 193.646 185.974 190.448 187.989C188.885 188.985 187.267 189.888 185.271 189.888C183.091 189.888 181.548 188.44 181.454 186.179C181.274 183.454 182.626 181.294 184.361 179.301C188.268 174.868 193.444 172.517 198.816 170.435C203.719 168.536 208.806 166.998 213.271 164.208C214.92 163.214 216.445 162.029 217.815 160.677C218.084 160.405 218.448 159.864 218.905 160.315C219.362 160.767 218.811 161.129 218.542 161.401C216.362 163.756 213.635 165.383 210.822 166.831C206.278 169.092 201.465 170.54 196.831 172.44C192.471 174.249 188.385 176.332 185.298 180.041C183.845 181.761 182.564 183.571 182.665 186.015C182.755 188.004 183.755 188.911 185.752 188.911C187.205 188.911 188.385 188.187 189.565 187.463C193.835 184.93 198.105 182.404 202.645 180.403C204.645 179.589 206.731 178.955 209.005 179.5C212.545 180.313 214.271 183.12 213.181 186.556C213.159 186.693 213.095 186.82 212.998 186.918C211.544 191.445 212.365 192.531 217.088 192.8C217.783 192.848 218.48 192.848 219.174 192.8C222.081 192.982 224.535 192.438 226.894 191.986C227.351 191.897 227.805 191.714 227.894 192.348C227.984 192.8 227.441 192.893 227.168 192.982C222.495 193.874 218.041 194.31 213.681 193.13ZM230.481 235.298C230.34 235.223 230.233 235.096 230.183 234.945C230.133 234.794 230.143 234.629 230.211 234.485C230.575 234.03 231.028 234.391 231.301 234.664C232.687 235.927 234.284 236.937 236.021 237.649C238.564 238.735 241.1 238.735 243.471 237.019C244.741 236.112 245.651 234.847 245.377 233.216C245.198 231.659 243.815 231.317 242.561 230.881C240.217 230.063 237.747 229.884 235.294 229.433C232.481 228.888 229.938 227.802 228.031 225.63C226.121 223.369 225.851 220.745 227.394 218.301C229.022 215.729 230.947 213.355 233.13 211.229C233.399 210.957 233.763 210.416 234.22 210.778C234.763 211.229 234.22 211.681 233.946 212.043C231.881 214.038 230.046 216.257 228.477 218.659C226.914 221.104 227.203 223.275 229.203 225.358C230.836 227.074 232.926 227.892 235.286 228.343C237.74 228.795 240.193 228.977 242.553 229.791C244.37 230.332 246.28 231.056 246.46 233.228C246.733 235.563 245.37 237.209 243.463 238.385C242.181 239.096 240.749 239.496 239.283 239.553C235.755 239.28 233.028 237.56 230.485 235.298H230.481Z"
        fill="#F5C562" />
</svg>