<svg width="62" height="52" viewBox="0 0 62 52" fill="none" xmlns="http://www.w3.org/2000/svg">
    <path
        d="M14.3645 51.4706C14.481 51.6107 14.604 51.7598 14.7204 51.8999L61.9074 11.8018C61.791 11.6617 61.6746 11.5215 61.5516 11.3725C56.3174 5.03726 48.812 1.0666 40.6916 0.336981C39.5428 0.232431 38.3875 0.192394 37.2343 0.221312C30.3725 0.368126 23.7611 2.84394 18.4566 7.25059L18.1513 7.51086C5.11956 18.582 3.42606 38.2618 14.3645 51.4706Z"
        fill="#D9E1C5" />
    <path
        d="M14.7203 52C14.7181 52 14.7137 52 14.7115 52C14.6852 51.9978 14.661 51.9844 14.6434 51.9644L14.2876 51.5351C8.98091 45.1264 6.45277 37.0094 7.16882 28.681C7.88707 20.3527 11.7617 12.8051 18.0831 7.433L18.3884 7.17274C23.6864 2.77054 30.3768 0.265799 37.2277 0.118985C38.3808 0.0922911 39.5472 0.130111 40.6959 0.234661C44.7506 0.599472 48.6362 1.75173 52.245 3.66254C55.8538 5.57113 59.0102 8.14483 61.6218 11.308L61.9776 11.7373C61.9952 11.7573 62.0018 11.784 61.9996 11.8107C61.9974 11.8374 61.9842 11.8619 61.9645 11.8797L14.784 51.9778C14.7664 51.9933 14.7423 52 14.7203 52ZM37.9547 0.312511C37.7153 0.312511 37.4737 0.314738 37.2365 0.321411C30.4296 0.468225 23.7808 2.95739 18.518 7.32845L18.2127 7.58649C5.24689 18.6042 3.5556 38.2618 14.4392 51.4061L14.7313 51.7598L61.7646 11.7907L61.4724 11.437C56.2162 5.0773 48.8317 1.16893 40.6784 0.43708C39.7778 0.354775 38.8641 0.312511 37.9547 0.312511Z"
        fill="#090667" />
    <path
        d="M14.7247 51.8977C14.6017 51.7486 14.4787 51.5996 14.3557 51.4506C3.41502 38.244 5.10632 18.5642 18.1337 7.49083C18.2369 7.40408 18.3357 7.31732 18.439 7.23057C23.7413 2.82392 30.3527 0.350324 37.2145 0.20351C36.9377 0.167919 30.0408 -0.684047 21.0923 3.21543C14.2393 6.20732 8.3615 11.1723 4.57916 17.6877C-1.46556 28.0715 -1.60832 40.6953 5.45117 50.5497L14.7247 51.8977Z"
        fill="#21056E" />
    <path
        d="M14.7247 51.9978C14.7203 51.9978 14.7159 51.9978 14.7116 51.9978L5.43362 50.6498C5.40726 50.6453 5.3831 50.632 5.36772 50.6097C-1.46114 41.0757 -1.7972 28.4408 4.49133 17.6366C8.19679 11.2546 13.923 6.23624 21.0506 3.122C30.0144 -0.78415 36.9334 0.065591 37.2233 0.103407C37.2738 0.11008 37.3134 0.156794 37.309 0.207956C37.3068 0.261343 37.2628 0.301389 37.2123 0.303613C30.4054 0.448203 23.7611 2.93514 18.4983 7.30843L18.193 7.56647C5.22935 18.5864 3.54025 38.244 14.4282 51.3861L14.7972 51.8332C14.8236 51.8643 14.828 51.911 14.8082 51.9466C14.7928 51.9778 14.7599 51.9978 14.7247 51.9978ZM5.50171 50.4562L14.4809 51.7598L14.2767 51.5151C8.96776 45.1064 6.43961 36.9916 7.15566 28.661C7.87172 20.3304 11.7463 12.785 18.0678 7.41298L18.3731 7.15271C23.1856 3.15314 29.149 0.721806 35.3387 0.201283C32.681 0.179039 27.4116 0.570548 21.1297 3.30663C14.0394 6.40308 8.34615 11.3925 4.66265 17.7367C-1.57975 28.4586 -1.25687 40.9912 5.50171 50.4562Z"
        fill="#090667" />
    <path
        d="M14.0702 45.9895C13.934 45.9895 13.8088 45.9206 13.7232 45.816C13.5782 45.6425 13.5497 45.3689 13.7693 45.1798C13.8923 45.0753 14.0461 45.0441 14.191 45.0975C14.347 45.1554 14.4722 45.3066 14.5029 45.4734C14.5293 45.6269 14.4744 45.7738 14.3492 45.8805C14.2591 45.9562 14.1647 45.9895 14.0702 45.9895ZM14.0482 45.2732C14.0043 45.2732 13.9516 45.2888 13.8967 45.3333C13.7517 45.4557 13.8154 45.6136 13.8747 45.6848C13.9362 45.7582 14.0768 45.8472 14.2218 45.7248C14.3096 45.6492 14.3162 45.5646 14.3074 45.5068C14.2899 45.4112 14.2152 45.32 14.1229 45.2866C14.1032 45.2799 14.0768 45.2732 14.0482 45.2732ZM19.3154 41.5339C19.1792 41.5339 19.054 41.465 18.9684 41.3604C18.8234 41.1869 18.7949 40.9133 19.0145 40.7242C19.1375 40.6175 19.2913 40.5885 19.4362 40.6419C19.5922 40.6998 19.7174 40.851 19.7481 41.0179C19.7745 41.1713 19.7196 41.3182 19.5944 41.4249C19.5043 41.5006 19.4077 41.5339 19.3154 41.5339ZM19.2913 40.8177C19.2473 40.8177 19.1946 40.8332 19.1397 40.8777C18.9947 41.0001 19.0584 41.158 19.1177 41.2292C19.177 41.3026 19.3198 41.3916 19.4648 41.2692C19.5526 41.1936 19.5592 41.1091 19.5504 41.0512C19.5329 40.9534 19.4582 40.8644 19.3659 40.8288C19.3462 40.8243 19.3198 40.8177 19.2913 40.8177ZM13.1279 39.4607C13.0796 39.4607 13.0313 39.4518 12.9852 39.434C12.8292 39.3762 12.704 39.2249 12.6754 39.0603C12.6491 38.9068 12.704 38.7578 12.8292 38.6533C13.0511 38.4664 13.3124 38.5443 13.4552 38.7178C13.6002 38.8913 13.6309 39.1671 13.4091 39.354C13.3256 39.4229 13.2268 39.4607 13.1279 39.4607ZM13.1082 38.7445C13.0598 38.7445 13.0093 38.7623 12.9566 38.8067C12.8665 38.8824 12.86 38.9669 12.8709 39.0247C12.8885 39.1204 12.9632 39.2116 13.0533 39.245C13.1082 39.265 13.1916 39.2739 13.2817 39.1983C13.4266 39.0737 13.363 38.918 13.3037 38.8446C13.2641 38.7979 13.1938 38.7445 13.1082 38.7445ZM24.5584 37.0784C24.4222 37.0784 24.297 37.0094 24.2114 36.9048C24.0664 36.7313 24.0379 36.4577 24.2575 36.2686C24.3805 36.1641 24.5343 36.133 24.6792 36.1863C24.8352 36.2442 24.9604 36.3954 24.9911 36.5623C25.0175 36.7158 24.9626 36.8626 24.8374 36.9694C24.7473 37.045 24.6507 37.0784 24.5584 37.0784ZM24.5365 36.3621C24.4925 36.3621 24.4398 36.3776 24.3849 36.4221C24.297 36.4978 24.2905 36.5823 24.2992 36.6401C24.3168 36.7358 24.3915 36.827 24.4837 36.8626C24.5386 36.8826 24.6221 36.8915 24.71 36.8159C24.7978 36.7402 24.8044 36.6557 24.7956 36.5979C24.7781 36.5 24.7034 36.411 24.6111 36.3754C24.5892 36.3687 24.565 36.3621 24.5365 36.3621ZM18.3731 35.0052C18.3248 35.0052 18.2787 34.9963 18.2304 34.9785C18.0744 34.9206 17.9492 34.7694 17.9206 34.6048C17.8943 34.4513 17.9492 34.3022 18.0744 34.1977C18.1996 34.0909 18.3534 34.062 18.4961 34.1154C18.6521 34.1732 18.7773 34.3245 18.8058 34.4913C18.8322 34.6448 18.7773 34.7938 18.6521 34.8984C18.5686 34.9673 18.472 35.0052 18.3731 35.0052ZM18.3534 34.2889C18.3072 34.2889 18.2567 34.3045 18.2018 34.3512C18.1117 34.4268 18.1052 34.5113 18.1161 34.5692C18.1337 34.6648 18.2084 34.756 18.2985 34.7894C18.3534 34.8094 18.4368 34.8183 18.5269 34.7427C18.6169 34.667 18.6235 34.5825 18.6125 34.5247C18.595 34.429 18.5203 34.3378 18.4302 34.3044C18.4061 34.2955 18.3819 34.2889 18.3534 34.2889ZM29.7948 32.6272C29.6586 32.6272 29.5335 32.5582 29.4478 32.4537C29.3731 32.3647 29.3336 32.2535 29.3336 32.1445C29.3358 32.0177 29.3907 31.9065 29.4939 31.8175C29.6169 31.713 29.7707 31.6818 29.9156 31.7352C30.0716 31.793 30.1968 31.9443 30.2275 32.1111C30.2539 32.2646 30.199 32.4114 30.0738 32.5182C29.9837 32.5961 29.8871 32.6272 29.7948 32.6272ZM29.7729 31.9109C29.7289 31.9109 29.6762 31.9265 29.6213 31.971C29.5335 32.0466 29.5269 32.1311 29.5356 32.189C29.5532 32.2869 29.6279 32.3758 29.7202 32.4114C29.7751 32.4314 29.8585 32.4404 29.9464 32.3647C30.0342 32.2891 30.0408 32.2046 30.0321 32.1467C30.0145 32.0511 29.9398 31.9599 29.8497 31.9243C29.8256 31.9176 29.8014 31.9109 29.7729 31.9109ZM11.5684 32.1489C11.4322 32.1489 11.3049 32.08 11.2192 31.9754C11.0764 31.8019 11.0457 31.5283 11.2653 31.3393C11.3905 31.2325 11.5443 31.2035 11.687 31.2569C11.843 31.3148 11.9682 31.466 11.9967 31.6329C12.0231 31.7864 11.9682 31.9354 11.843 32.0399C11.7573 32.1156 11.6607 32.1489 11.5684 32.1489ZM11.5487 31.4327C11.5025 31.4327 11.4498 31.4482 11.3971 31.495C11.2521 31.6195 11.3136 31.7752 11.3751 31.8464C11.4344 31.9198 11.5772 32.0088 11.7222 31.8865C11.8122 31.8108 11.8188 31.7263 11.8078 31.6685C11.7903 31.5706 11.7156 31.4816 11.6255 31.4482C11.6014 31.4393 11.5772 31.4327 11.5487 31.4327ZM23.6161 30.5496C23.5678 30.5496 23.5195 30.5407 23.4734 30.5229C23.3174 30.465 23.1922 30.3138 23.1615 30.1492C23.1351 29.9957 23.19 29.8466 23.3152 29.7421C23.4404 29.6353 23.5942 29.6064 23.7369 29.6598C23.8929 29.7176 24.0181 29.8689 24.0466 30.0357C24.073 30.1892 24.0181 30.3382 23.8929 30.4428C23.8116 30.5117 23.715 30.5496 23.6161 30.5496ZM23.5964 29.8333C23.5502 29.8333 23.4997 29.8489 23.4448 29.8956C23.3547 29.9712 23.3482 30.0557 23.3591 30.1136C23.3767 30.2092 23.4514 30.3004 23.5415 30.3338C23.5964 30.3538 23.6798 30.3627 23.7699 30.2871C23.8599 30.2114 23.8665 30.1269 23.8555 30.0691C23.838 29.9734 23.7633 29.8822 23.6732 29.8489C23.6491 29.84 23.6249 29.8333 23.5964 29.8333ZM35.0422 28.1672C34.906 28.1672 34.7808 28.0982 34.6952 27.9937C34.5502 27.8202 34.5217 27.5465 34.7413 27.3575C34.8643 27.2507 35.0181 27.2218 35.163 27.2752C35.319 27.333 35.4442 27.4843 35.4749 27.6511C35.5013 27.8046 35.4464 27.9514 35.3212 28.0582C35.2311 28.136 35.1345 28.1672 35.0422 28.1672ZM35.0203 27.4531C34.9763 27.4531 34.9236 27.4687 34.8687 27.5132C34.8094 27.5621 34.7808 27.6222 34.7808 27.6889C34.7808 27.749 34.805 27.8135 34.8489 27.8669C34.9082 27.9403 35.051 28.0292 35.196 27.9069C35.2838 27.8313 35.2904 27.7467 35.2816 27.6889C35.2641 27.5933 35.1894 27.5021 35.0971 27.4687C35.073 27.4576 35.0488 27.4531 35.0203 27.4531ZM16.8136 27.6934C16.6774 27.6934 16.55 27.6244 16.4644 27.5198C16.3216 27.3463 16.2909 27.0727 16.5105 26.8837C16.6357 26.7769 16.7895 26.748 16.9322 26.8014C17.0882 26.8592 17.2134 27.0105 17.2419 27.1773C17.2683 27.3308 17.2134 27.4798 17.0882 27.5844C17.0025 27.66 16.9059 27.6934 16.8136 27.6934ZM16.7917 26.9771C16.7455 26.9771 16.6928 26.9927 16.6401 27.0394C16.4951 27.1639 16.5566 27.3197 16.6181 27.3908C16.6796 27.4642 16.8202 27.5532 16.9652 27.4309C17.0552 27.3552 17.0618 27.2707 17.0508 27.2129C17.0333 27.115 16.9586 27.026 16.8685 26.9927C16.8444 26.9838 16.8202 26.9771 16.7917 26.9771ZM28.8547 26.0984C28.7186 26.0984 28.5912 26.0295 28.5055 25.9249C28.3627 25.7514 28.332 25.4778 28.5516 25.2887C28.7713 25.1019 29.0326 25.1797 29.1776 25.3532C29.3226 25.5267 29.3533 25.8026 29.1315 25.9894C29.0436 26.0651 28.947 26.0984 28.8547 26.0984ZM28.8328 25.3821C28.7844 25.3821 28.7339 25.4 28.6812 25.4444C28.5363 25.569 28.5977 25.7247 28.6593 25.7959C28.7208 25.8693 28.8613 25.9583 29.0063 25.8359C29.1513 25.7114 29.0876 25.5557 29.0283 25.4823C28.9887 25.4355 28.9184 25.3821 28.8328 25.3821ZM40.2896 23.7094C40.1534 23.7094 40.0282 23.6404 39.9426 23.5359C39.8679 23.4469 39.8284 23.3356 39.8284 23.2266C39.8306 23.0999 39.8855 22.9864 39.9887 22.8997C40.1117 22.7929 40.2677 22.764 40.4104 22.8173C40.5664 22.8752 40.6916 23.0264 40.7223 23.1933C40.7487 23.3468 40.6938 23.4936 40.5686 23.6004C40.4785 23.676 40.3819 23.7094 40.2896 23.7094ZM40.2677 22.9931C40.2237 22.9931 40.171 23.0087 40.1161 23.0531C40.0568 23.1021 40.0282 23.1621 40.026 23.2289C40.026 23.2889 40.0502 23.3534 40.0941 23.4068C40.1381 23.4602 40.1952 23.4958 40.2545 23.5047C40.3204 23.5158 40.3819 23.4958 40.4412 23.4469C40.529 23.3712 40.5356 23.2867 40.5269 23.2289C40.5093 23.1332 40.4346 23.042 40.3423 23.0086C40.3204 22.9998 40.2962 22.9931 40.2677 22.9931ZM22.0544 23.2355C22.0061 23.2355 21.9578 23.2267 21.9117 23.2089C21.7557 23.151 21.6305 22.9998 21.602 22.8351C21.5756 22.6817 21.6305 22.5326 21.7557 22.4281C21.8809 22.3213 22.0347 22.2924 22.1774 22.3458C22.3334 22.4036 22.4586 22.5549 22.4871 22.7217C22.5135 22.8752 22.4586 23.0242 22.3334 23.1288C22.2499 23.2 22.1533 23.2355 22.0544 23.2355ZM22.0347 22.5215C21.9885 22.5215 21.9358 22.5371 21.8831 22.5838C21.7931 22.6594 21.7865 22.7439 21.7974 22.8018C21.815 22.8974 21.8897 22.9886 21.9798 23.022C22.0347 23.042 22.1181 23.0509 22.2082 22.9753C22.2982 22.8997 22.3048 22.8151 22.2939 22.7573C22.2763 22.6594 22.2016 22.5704 22.1115 22.5371C22.0896 22.5259 22.0632 22.5215 22.0347 22.5215ZM12.4404 22.417C12.3043 22.417 12.1791 22.348 12.0934 22.2434C11.9484 22.0699 11.9199 21.7963 12.1395 21.6072C12.3614 21.4204 12.6227 21.4982 12.7655 21.6718C12.9105 21.8453 12.9412 22.1211 12.7194 22.3079C12.6293 22.3836 12.5327 22.417 12.4404 22.417ZM12.2669 21.7607C12.1219 21.8853 12.1834 22.041 12.2449 22.1122C12.3043 22.1856 12.447 22.2746 12.592 22.1522C12.737 22.0277 12.6733 21.872 12.614 21.7986C12.5525 21.7274 12.4119 21.6384 12.2669 21.7607ZM34.1021 21.6384C34.0538 21.6384 34.0077 21.6295 33.9594 21.6117C33.8012 21.5539 33.676 21.4026 33.6475 21.2358C33.6211 21.0823 33.676 20.9355 33.8012 20.8309C34.0231 20.6441 34.2844 20.7219 34.4272 20.8954C34.57 21.0689 34.6007 21.3425 34.3811 21.5316C34.2976 21.6006 34.201 21.6384 34.1021 21.6384ZM34.0802 20.9221C34.0318 20.9221 33.9813 20.9399 33.9286 20.9844C33.8407 21.06 33.8342 21.1446 33.843 21.2024C33.8605 21.3003 33.9352 21.3892 34.0275 21.4248C34.0824 21.4449 34.1658 21.4538 34.2537 21.3781C34.3987 21.2536 34.3372 21.0978 34.2757 21.0267C34.2383 20.9777 34.1658 20.9221 34.0802 20.9221ZM45.5348 19.2493C45.4865 19.2493 45.4404 19.2404 45.3921 19.2226C45.2361 19.1648 45.1109 19.0135 45.0802 18.8467C45.0538 18.6932 45.1087 18.5464 45.2339 18.4396C45.4536 18.2528 45.7149 18.3306 45.8599 18.5041C46.0049 18.6776 46.0334 18.9512 45.8138 19.1403C45.7325 19.2115 45.6337 19.2493 45.5348 19.2493ZM45.3635 18.5953C45.2756 18.671 45.2691 18.7555 45.2778 18.8133C45.2954 18.9112 45.3701 19.0002 45.4623 19.0358C45.5173 19.0558 45.6007 19.0647 45.6886 18.9891C45.8336 18.8667 45.7698 18.7088 45.7105 18.6376C45.6512 18.5664 45.5085 18.4708 45.3635 18.5953ZM27.2974 18.78C27.2491 18.78 27.2008 18.7711 27.1547 18.7533C26.9987 18.6954 26.8735 18.5442 26.845 18.3796C26.8186 18.2261 26.8735 18.077 26.9987 17.9725C27.1239 17.8657 27.2777 17.8368 27.4204 17.8902C27.5764 17.948 27.7016 18.0993 27.7301 18.2661C27.7565 18.4196 27.7016 18.5686 27.5764 18.6732C27.4951 18.7444 27.3963 18.78 27.2974 18.78ZM27.2777 18.0659C27.2315 18.0659 27.1788 18.0815 27.1261 18.1282C27.0361 18.2038 27.0295 18.2884 27.0404 18.3462C27.058 18.4418 27.1327 18.533 27.2228 18.5664C27.2777 18.5864 27.3611 18.5953 27.4512 18.5197C27.5412 18.4441 27.5478 18.3595 27.5369 18.3017C27.5193 18.2038 27.4446 18.1148 27.3545 18.0815C27.3326 18.0704 27.3062 18.0659 27.2777 18.0659ZM17.6834 17.9591C17.5473 17.9591 17.4221 17.8902 17.3364 17.7856C17.1914 17.6121 17.1629 17.3385 17.3825 17.1494C17.5077 17.0427 17.6615 17.0137 17.8042 17.0671C17.9602 17.125 18.0854 17.2762 18.1139 17.4431C18.1403 17.5965 18.0854 17.7456 17.9602 17.8501C17.8723 17.928 17.7757 17.9591 17.6834 17.9591ZM17.5099 17.3051C17.3649 17.4297 17.4264 17.5854 17.4879 17.6566C17.5494 17.73 17.69 17.819 17.835 17.6967C17.9251 17.621 17.9316 17.5365 17.9206 17.4787C17.9031 17.383 17.8284 17.2918 17.7383 17.2584C17.6834 17.2384 17.6 17.2295 17.5099 17.3051ZM39.3495 17.1783C39.3012 17.1783 39.2551 17.1695 39.2068 17.1517C39.0486 17.0938 38.9234 16.9426 38.8949 16.7757C38.8685 16.6222 38.9234 16.4754 39.0486 16.3709C39.1716 16.2663 39.3276 16.2352 39.4703 16.2886C39.6263 16.3464 39.7515 16.4977 39.7822 16.6623C39.8086 16.8158 39.7537 16.9648 39.6285 17.0694C39.545 17.1405 39.4484 17.1783 39.3495 17.1783ZM39.1782 16.5244C39.0903 16.6 39.0838 16.6845 39.0925 16.7424C39.1101 16.8402 39.1848 16.9292 39.2771 16.9648C39.332 16.9848 39.4154 16.9937 39.5033 16.9181C39.5933 16.8425 39.5999 16.7579 39.589 16.7001C39.5714 16.6044 39.4967 16.5132 39.4066 16.4799C39.3495 16.4576 39.2661 16.4487 39.1782 16.5244ZM50.7756 14.7982C50.6395 14.7982 50.5142 14.7292 50.4286 14.6247C50.2836 14.4512 50.2551 14.1776 50.4747 13.9885C50.6944 13.8016 50.9557 13.8795 51.1007 14.053C51.2457 14.2265 51.2742 14.5001 51.0546 14.6892C50.9645 14.7648 50.8679 14.7982 50.7756 14.7982ZM50.6021 14.1442C50.5428 14.1931 50.5142 14.2532 50.5142 14.3199C50.5142 14.38 50.5384 14.4445 50.5823 14.4979C50.6263 14.5513 50.6834 14.5869 50.7427 14.5958C50.8064 14.6069 50.8701 14.5869 50.9294 14.5379C51.0744 14.4156 51.0107 14.2576 50.9513 14.1865C50.8876 14.1108 50.7471 14.0196 50.6021 14.1442ZM32.5426 14.3244C32.4064 14.3244 32.2791 14.2554 32.1934 14.1509C32.0506 13.9774 32.0199 13.7037 32.2395 13.5147C32.4614 13.3278 32.7206 13.4057 32.8655 13.5792C33.0105 13.7527 33.0412 14.0285 32.8194 14.2154C32.7315 14.2932 32.6349 14.3244 32.5426 14.3244ZM32.5207 13.6103C32.4723 13.6103 32.4218 13.6281 32.3691 13.6726C32.2241 13.7972 32.2856 13.9529 32.3471 14.0241C32.4086 14.0975 32.5492 14.1865 32.6942 14.0641C32.8392 13.9395 32.7755 13.7838 32.7162 13.7104C32.6766 13.6637 32.6063 13.6103 32.5207 13.6103ZM22.9286 13.5035C22.7925 13.5035 22.6651 13.4346 22.5794 13.33C22.4344 13.1565 22.4059 12.8829 22.6255 12.6938C22.8474 12.507 23.1065 12.5848 23.2515 12.7584C23.3965 12.9319 23.4272 13.2077 23.2054 13.3945C23.1153 13.4724 23.0209 13.5035 22.9286 13.5035ZM22.7529 12.8496C22.6079 12.9741 22.6694 13.1298 22.7309 13.201C22.7924 13.2744 22.933 13.3634 23.078 13.2411C23.223 13.1165 23.1593 12.9608 23.1 12.8874C23.0407 12.8162 22.9001 12.725 22.7529 12.8496ZM44.5881 12.7272C44.5398 12.7272 44.4937 12.7183 44.4454 12.7005C44.2894 12.6427 44.1642 12.4914 44.1335 12.3246C44.1071 12.1711 44.162 12.0243 44.2872 11.9175C44.5091 11.7307 44.7705 11.8085 44.9132 11.982C45.056 12.1555 45.0867 12.4291 44.8671 12.6182C44.7858 12.6894 44.687 12.7272 44.5881 12.7272ZM44.4168 12.0732C44.329 12.1489 44.3224 12.2334 44.3312 12.2912C44.3487 12.3869 44.4234 12.4781 44.5135 12.5114C44.5684 12.5315 44.6518 12.5404 44.7397 12.4647C44.8847 12.3402 44.8232 12.1844 44.7617 12.1133C44.7024 12.0399 44.5618 11.9487 44.4168 12.0732ZM56.0186 10.3426C55.8825 10.3426 55.7572 10.2736 55.6716 10.1691C55.5266 9.99557 55.4981 9.72197 55.7177 9.53289C55.8429 9.42834 55.9967 9.3972 56.1394 9.45059C56.2954 9.50842 56.4206 9.65969 56.4513 9.82652C56.4777 9.98001 56.4228 10.1268 56.2976 10.2336C56.2075 10.3092 56.1109 10.3426 56.0186 10.3426ZM55.9967 9.62632C55.9527 9.62632 55.9 9.64189 55.8451 9.68638C55.7001 9.80872 55.7638 9.96666 55.8231 10.0378C55.8824 10.1112 56.0252 10.2002 56.1702 10.0779C56.258 10.0023 56.2646 9.91772 56.2559 9.85989C56.2383 9.76201 56.1636 9.67303 56.0713 9.63744C56.0516 9.63299 56.0252 9.62632 55.9967 9.62632ZM37.7856 9.86878C37.7373 9.86878 37.6912 9.85989 37.6429 9.84209C37.4869 9.78426 37.3617 9.63299 37.3332 9.46838C37.3068 9.31489 37.3617 9.16586 37.4869 9.06131C37.7088 8.87445 37.9701 8.95009 38.1129 9.12582C38.2579 9.29932 38.2864 9.57515 38.0668 9.76201C37.9811 9.83097 37.8845 9.86878 37.7856 9.86878ZM37.7637 9.15251C37.7153 9.15251 37.6648 9.17031 37.6121 9.21479C37.5221 9.29043 37.5155 9.37495 37.5264 9.43279C37.544 9.52844 37.6187 9.61965 37.7088 9.65301C37.7637 9.67303 37.8471 9.68193 37.9372 9.60629C38.0822 9.48172 38.0185 9.32601 37.9592 9.25261C37.9218 9.20812 37.8493 9.15251 37.7637 9.15251ZM28.1716 9.04796C28.0355 9.04796 27.9081 8.979 27.8224 8.87445C27.6774 8.70094 27.6489 8.42733 27.8685 8.23825C28.0904 8.0514 28.3495 8.12926 28.4945 8.30277C28.6395 8.47627 28.6702 8.7521 28.4484 8.93896C28.3605 9.01681 28.2639 9.04796 28.1716 9.04796ZM27.9981 8.39397C27.8531 8.51854 27.9146 8.67425 27.9761 8.74543C28.0377 8.81884 28.1782 8.90782 28.3232 8.78548C28.4682 8.66091 28.4045 8.50519 28.3452 8.43178C28.2837 8.3606 28.1431 8.2694 27.9981 8.39397ZM49.8311 8.2694C49.7828 8.2694 49.7367 8.2605 49.6884 8.24271C49.5324 8.18487 49.4072 8.03361 49.3765 7.86677C49.3501 7.71329 49.405 7.56424 49.5302 7.45969C49.6554 7.35514 49.8092 7.324 49.952 7.37739C50.1079 7.43523 50.2331 7.58649 50.2638 7.7511C50.2902 7.90458 50.2353 8.05363 50.1101 8.15818C50.0288 8.23381 49.93 8.2694 49.8311 8.2694ZM49.8114 7.55534C49.7652 7.55534 49.7147 7.57092 49.6598 7.61541C49.572 7.69104 49.5654 7.77557 49.5742 7.8334C49.5917 7.93128 49.6664 8.02026 49.7565 8.05585C49.8114 8.07587 49.8948 8.08477 49.9827 8.00914C50.0728 7.9335 50.0794 7.84898 50.0684 7.79114C50.0508 7.69549 49.9761 7.60428 49.8861 7.57092C49.8663 7.56202 49.8399 7.55534 49.8114 7.55534ZM43.0286 5.4132C42.9803 5.4132 42.9342 5.40429 42.8859 5.3865C42.7299 5.32866 42.6047 5.1774 42.574 5.01279C42.5476 4.8593 42.6025 4.71027 42.7277 4.60572C42.8529 4.50117 43.0067 4.47003 43.1495 4.52341C43.3054 4.58125 43.4306 4.73251 43.4591 4.89935C43.4855 5.05284 43.4306 5.20187 43.3054 5.30642C43.2241 5.37538 43.1275 5.4132 43.0286 5.4132ZM43.0089 4.69692C42.9627 4.69692 42.9122 4.71249 42.8573 4.75921C42.7673 4.83484 42.7607 4.91936 42.7716 4.9772C42.7892 5.07285 42.8639 5.16406 42.954 5.19742C43.0089 5.21744 43.0923 5.22634 43.1824 5.15071C43.2724 5.07507 43.279 4.99055 43.2681 4.93271C43.2505 4.83706 43.1758 4.74585 43.0857 4.71249C43.0638 4.70359 43.0374 4.69692 43.0089 4.69692ZM33.4124 4.59237C33.3641 4.59237 33.3158 4.58348 33.2697 4.56568C33.1137 4.50784 32.9885 4.35658 32.96 4.19197C32.9336 4.03848 32.9885 3.88944 33.1137 3.78489C33.3334 3.59804 33.5947 3.6759 33.7397 3.8494C33.8847 4.02291 33.9154 4.29874 33.6936 4.4856C33.6101 4.55455 33.5113 4.59237 33.4124 4.59237ZM33.3927 3.8761C33.3443 3.8761 33.2938 3.89389 33.2411 3.93838C33.1511 4.01401 33.1445 4.09854 33.1555 4.15637C33.173 4.25203 33.2477 4.34323 33.3378 4.3766C33.3927 4.39662 33.4761 4.40551 33.5662 4.32988C33.7112 4.20531 33.6475 4.0496 33.5882 3.97619C33.5486 3.92948 33.4761 3.8761 33.3927 3.8761Z"
        fill="#090667" />
</svg>