<svg width="39" height="32" viewBox="0 0 39 32" fill="none" xmlns="http://www.w3.org/2000/svg">
    <path
        d="M7.41562 24.3329L15.0203 31.9054L23.2725 23.6859L31.5306 31.9112L38.4877 24.9818C38.6583 24.8119 38.7533 24.582 38.7533 24.3426C38.7533 24.1031 38.6583 23.8733 38.4877 23.7033L30.8753 16.1212L38.7591 8.26869C38.9627 8.0659 38.9627 7.73759 38.7591 7.53288L31.5209 0.323489L23.2687 8.54293L15.0106 0.317696L7.41174 7.8863L15.6698 16.1115L7.41562 24.3329Z"
        fill="#36BAB7" />
    <path
        d="M31.5306 32C31.5073 32 31.486 31.9923 31.4686 31.9749L23.2725 23.8115L15.0823 31.9691C15.0474 32.0039 14.9931 32.0039 14.9582 31.9691L7.35549 24.3966C7.33998 24.3812 7.33028 24.358 7.33028 24.3348C7.33028 24.3117 7.33998 24.2904 7.35549 24.273L15.5457 16.1154L7.34968 7.95196C7.31478 7.91719 7.31478 7.86313 7.34968 7.82836L14.9485 0.259759C14.9834 0.224996 15.0377 0.224996 15.0726 0.259759L23.2686 8.42318L31.4589 0.265552C31.4938 0.230789 31.5481 0.230789 31.583 0.265552L38.8211 7.47494C39.0596 7.71249 39.0596 8.09681 38.8211 8.33242L30.9993 16.1231L38.5497 23.6434C38.7378 23.8308 38.8425 24.0799 38.8425 24.3445C38.8425 24.6091 38.7397 24.8582 38.5516 25.0455L31.5946 31.9749C31.5752 31.9903 31.5519 32 31.5306 32ZM23.2706 23.599C23.2938 23.599 23.3152 23.6087 23.3326 23.6241L31.5287 31.7876L38.4237 24.92C38.5788 24.7655 38.6641 24.5608 38.6641 24.3426C38.6641 24.1243 38.5788 23.9177 38.4237 23.7651L30.8113 16.183C30.7763 16.1482 30.7763 16.0942 30.8113 16.0594L38.6951 8.20688C38.8638 8.03886 38.8638 7.76463 38.6951 7.59468L31.519 0.447085L23.3287 8.60472C23.2938 8.63949 23.2396 8.63949 23.2047 8.60472L15.0086 0.441297L7.53387 7.8863L15.7299 16.0497C15.7648 16.0845 15.7648 16.1386 15.7299 16.1733L7.53969 24.331L15.0203 31.7818L23.2105 23.6241C23.226 23.6087 23.2473 23.599 23.2706 23.599Z"
        fill="#090667" fill-opacity="0.5" />
    <path
        d="M31.5189 0.325423L23.9841 0.0898093C23.4412 0.072428 22.9157 0.279065 22.5318 0.661454L18.9428 4.23622L23.2686 8.54486L31.5189 0.325423Z"
        fill="#21056E" />
    <path
        d="M23.2667 8.63176C23.2434 8.63176 23.2221 8.62211 23.2046 8.60666L18.8788 4.29802C18.8633 4.28257 18.8536 4.25939 18.8536 4.23621C18.8536 4.21304 18.8633 4.19179 18.8788 4.17441L22.4678 0.599662C22.8673 0.201823 23.4179 -0.0164169 23.986 0.000964473L31.5209 0.236578C31.5558 0.23851 31.5868 0.259755 31.6004 0.292587C31.614 0.325418 31.6062 0.36211 31.581 0.387216L23.3287 8.60666C23.3113 8.62211 23.2899 8.63176 23.2667 8.63176ZM19.0649 4.23621L23.2667 8.42126L31.3134 0.40653L23.9802 0.17671C23.4645 0.159328 22.9564 0.360177 22.5919 0.723254L19.0649 4.23621Z"
        fill="#090667" fill-opacity="0.5" />
    <path
        d="M0.530307 24.6496L6.66134 30.7563C6.98321 31.0769 7.4059 31.2719 7.85962 31.3105L15.0203 31.9073L7.41562 24.3329L15.6679 16.1135L7.40979 7.88823L15.0067 0.321555L7.87514 0.25976C7.53388 0.255897 7.20619 0.389149 6.96576 0.628625L0.278243 7.28954C0.0203592 7.54639 0.0203592 7.96355 0.278243 8.2204L7.6095 15.5225L0.528366 22.5755C0.251093 22.8497 0.0959787 23.2244 0.0959787 23.6125C0.0979177 24.0007 0.253034 24.3735 0.530307 24.6496Z"
        fill="#21056E" />
    <path
        d="M15.0203 31.9923C15.0183 31.9923 15.0164 31.9923 15.0125 31.9923L7.85187 31.3955C7.3807 31.3569 6.93473 31.1502 6.59929 30.8161L0.468258 24.7095C0.173534 24.4159 0.0106629 24.0258 0.0106629 23.6106C0.0106629 23.1954 0.173534 22.8053 0.468258 22.5117L7.48734 15.5206L0.218134 8.28027C-0.0727115 7.98865 -0.0727115 7.5155 0.218134 7.22581L6.90565 0.564891C7.15772 0.313827 7.50479 0.170918 7.86156 0.170918C7.86738 0.170918 7.8732 0.170918 7.87902 0.170918L15.0106 0.23272C15.0455 0.23272 15.0784 0.253964 15.0901 0.286795C15.1036 0.319626 15.0959 0.356319 15.0707 0.381425L7.53582 7.8863L15.7319 16.0497C15.7668 16.0845 15.7668 16.1386 15.7319 16.1733L7.54164 24.331L15.0842 31.8436C15.1094 31.8687 15.1172 31.9092 15.1017 31.9421C15.0842 31.973 15.0532 31.9923 15.0203 31.9923ZM7.85962 0.34473C7.54938 0.34473 7.24691 0.470262 7.02586 0.688494L0.33835 7.34941C0.115368 7.5715 0.115368 7.93458 0.33835 8.1586L7.6696 15.4607C7.70451 15.4955 7.70451 15.5495 7.6696 15.5843L0.590414 22.6353C0.328653 22.896 0.183236 23.2417 0.185175 23.6106C0.185175 23.9795 0.330593 24.3271 0.592355 24.5878L6.72339 30.6945C7.02974 30.9996 7.43499 31.1869 7.86544 31.2236L14.7895 31.8011L7.35355 24.3928C7.31865 24.358 7.31865 24.3039 7.35355 24.2692L15.5438 16.1115L7.34774 7.9481C7.31284 7.91334 7.31284 7.85926 7.34774 7.8245L14.7973 0.404605L7.87319 0.34473C7.86932 0.34473 7.8635 0.34473 7.85962 0.34473Z"
        fill="#090667" fill-opacity="0.5" />
    <path
        d="M19.0805 27.8613L22.3923 31.1599C22.8324 31.5983 23.4296 31.8494 24.052 31.8532L31.5306 31.9131L23.2726 23.6879L19.0805 27.8613Z"
        fill="#21056E" />
    <path
        d="M31.5286 32L24.05 31.9401C23.4005 31.9343 22.7878 31.6794 22.3282 31.2198L19.0165 27.9212C18.9816 27.8864 18.9816 27.8323 19.0165 27.7976L23.2066 23.6241C23.2415 23.5894 23.2958 23.5894 23.3307 23.6241L31.5888 31.8494C31.614 31.8745 31.6217 31.9112 31.6082 31.944C31.5965 31.9788 31.5636 32 31.5286 32ZM19.2045 27.8613L22.4543 31.0981C22.8808 31.5249 23.4489 31.7625 24.0539 31.7663L31.3192 31.8243L23.2725 23.8115L19.2045 27.8613Z"
        fill="#090667" fill-opacity="0.5" />
    <path
        d="M9.48258 10.0377C9.45932 10.0377 9.43799 10.03 9.42054 10.0126C9.38563 9.97786 9.38563 9.92378 9.42054 9.88901L17.0194 2.32041C17.0543 2.28565 17.1086 2.28565 17.1435 2.32041C17.1784 2.35517 17.1784 2.40925 17.1435 2.44401L9.54462 10.0126C9.52717 10.03 9.50391 10.0377 9.48258 10.0377Z"
        fill="#090667" fill-opacity="0.5" />
    <path
        d="M12.0129 12.558C11.9896 12.558 11.9683 12.5503 11.9509 12.5329C11.916 12.4981 11.916 12.4441 11.9509 12.4093L19.5846 4.80594C19.6195 4.77118 19.6738 4.77118 19.7087 4.80594C19.7436 4.8407 19.7436 4.89478 19.7087 4.92954L12.075 12.5329C12.0575 12.5503 12.0342 12.558 12.0129 12.558Z"
        fill="#090667" fill-opacity="0.5" />
    <path
        d="M14.6422 14.9798C14.6189 14.9798 14.5976 14.9721 14.5801 14.9547C14.5452 14.9199 14.5452 14.8659 14.5801 14.8311L21.9482 7.49233C21.9831 7.45756 22.0374 7.45756 22.0723 7.49233C22.1072 7.52709 22.1072 7.58116 22.0723 7.61592L14.7042 14.9547C14.6868 14.9721 14.6635 14.9798 14.6422 14.9798Z"
        fill="#090667" fill-opacity="0.5" />
    <path
        d="M8.91632 25.7234C8.89306 25.7234 8.87173 25.7157 8.85428 25.6983C8.81938 25.6635 8.81938 25.6095 8.85428 25.5747L32.8025 1.72172C32.8374 1.68696 32.8917 1.68696 32.9266 1.72172C32.9615 1.75649 32.9615 1.81055 32.9266 1.84531L8.97837 25.6983C8.96092 25.7157 8.93765 25.7234 8.91632 25.7234Z"
        fill="#090667" fill-opacity="0.5" />
    <path
        d="M11.4467 28.2437C11.4235 28.2437 11.4021 28.236 11.3847 28.2186C11.3498 28.1838 11.3498 28.1298 11.3847 28.095L35.3911 4.18408C35.426 4.14932 35.4803 4.14932 35.5152 4.18408C35.5501 4.21884 35.5501 4.27291 35.5152 4.30767L11.5088 28.2186C11.4913 28.236 11.4681 28.2437 11.4467 28.2437Z"
        fill="#090667" fill-opacity="0.5" />
    <path
        d="M13.9771 30.764C13.9538 30.764 13.9325 30.7563 13.915 30.7389C13.8801 30.7041 13.8801 30.6501 13.915 30.6153L37.9214 6.70437C37.9563 6.66961 38.0106 6.66961 38.0455 6.70437C38.0804 6.73913 38.0804 6.79321 38.0455 6.82797L14.0391 30.7389C14.0217 30.7563 13.9984 30.764 13.9771 30.764Z"
        fill="#090667" fill-opacity="0.5" />
    <path
        d="M24.717 25.1073C24.6938 25.1073 24.6725 25.0996 24.655 25.0822C24.6201 25.0475 24.6201 24.9934 24.655 24.9586L32.1356 17.5078C32.1705 17.4731 32.2248 17.4731 32.2597 17.5078C32.2946 17.5426 32.2946 17.5967 32.2597 17.6314L24.7791 25.0822C24.7616 25.0977 24.7403 25.1073 24.717 25.1073Z"
        fill="#090667" fill-opacity="0.5" />
    <path
        d="M27.2144 27.5948C27.1912 27.5948 27.1698 27.5871 27.1524 27.5697C27.1175 27.5349 27.1175 27.4809 27.1524 27.4461L34.6329 19.9953C34.6678 19.9605 34.7221 19.9605 34.757 19.9953C34.7919 20.0301 34.7919 20.0841 34.757 20.1189L27.2765 27.5697C27.261 27.5851 27.2377 27.5948 27.2144 27.5948Z"
        fill="#090667" fill-opacity="0.5" />
    <path
        d="M29.6924 30.1672C29.6691 30.1672 29.6478 30.1595 29.6303 30.1421C29.5954 30.1074 29.5954 30.0533 29.6303 30.0185L37.1652 22.5137C37.2001 22.4789 37.2544 22.4789 37.2893 22.5137C37.3242 22.5484 37.3242 22.6025 37.2893 22.6373L29.7544 30.1421C29.737 30.1595 29.7137 30.1672 29.6924 30.1672Z"
        fill="#090667" fill-opacity="0.5" />
</svg>
    